<svg width="92" height="90" viewBox="0 0 92 90" fill="none" xmlns="http://www.w3.org/2000/svg">
<g clip-path="url(#clip0_425_3864)">
<path d="M89.6101 45C89.6101 68.7256 70.1372 88 46.0653 88C21.9934 88 2.52051 68.7256 2.52051 45C2.52051 21.2744 21.9934 2 46.0653 2C70.1372 2 89.6101 21.2744 89.6101 45Z" stroke="#0868A2" stroke-width="4"/>
<path d="M46.5205 61C37.6455 61 30.5205 53.875 30.5205 45C30.5205 36.1875 37.6455 29 46.5205 29C55.333 29 62.5205 36.1875 62.5205 45C62.5205 53.875 55.333 61 46.5205 61ZM45.0205 45C45.0205 45.5 45.2705 46 45.6455 46.25L51.6455 50.25C52.333 50.75 53.2705 50.5625 53.708 49.875C54.208 49.1875 54.0205 48.25 53.333 47.75L48.0205 44.25V36.5C48.0205 35.6875 47.333 35 46.458 35C45.6455 35 44.958 35.6875 44.958 36.5L45.0205 45Z" fill="#0868A2"/>
</g>
<defs>
<clipPath id="clip0_425_3864">
<rect width="91.0896" height="90" fill="white" transform="translate(0.520508)"/>
</clipPath>
</defs>
</svg>
