<svg width="92" height="90" viewBox="0 0 92 90" fill="none" xmlns="http://www.w3.org/2000/svg">
<g clip-path="url(#clip0_425_3871)">
<path d="M89.0896 45C89.0896 68.7256 69.6167 88 45.5448 88C21.4729 88 2 68.7256 2 45C2 21.2744 21.4729 2 45.5448 2C69.6167 2 89.0896 21.2744 89.0896 45Z" stroke="#0868A2" stroke-width="4"/>
<path d="M55 29H37C35.375 29 34 30.4375 34 32V58C34 59.625 35.375 61 37 61H55C56.5625 61 58 59.625 58 58V32C58 30.4375 56.5625 29 55 29ZM38 42C38 41.5 38.4375 41 39 41H41C41.5 41 42 41.5 42 42V44C42 44.5625 41.5 45 41 45H39C38.4375 45 38 44.5625 38 44V42ZM38 48C38 47.5 38.4375 47 39 47H41C41.5 47 42 47.5 42 48V50C42 50.5625 41.5 51 41 51H39C38.4375 51 38 50.5625 38 50V48ZM48 56C48 56.5625 47.5 57 47 57H39C38.4375 57 38 56.5625 38 56V54C38 53.5 38.4375 53 39 53H47C47.5 53 48 53.5 48 54V56ZM48 50C48 50.5625 47.5 51 47 51H45C44.4375 51 44 50.5625 44 50V48C44 47.5 44.4375 47 45 47H47C47.5 47 48 47.5 48 48V50ZM48 44C48 44.5625 47.5 45 47 45H45C44.4375 45 44 44.5625 44 44V42C44 41.5 44.4375 41 45 41H47C47.5 41 48 41.5 48 42V44ZM54 56C54 56.5625 53.5 57 53 57H51C50.4375 57 50 56.5625 50 56V54C50 53.5 50.4375 53 51 53H53C53.5 53 54 53.5 54 54V56ZM54 50C54 50.5625 53.5 51 53 51H51C50.4375 51 50 50.5625 50 50V48C50 47.5 50.4375 47 51 47H53C53.5 47 54 47.5 54 48V50ZM54 44C54 44.5625 53.5 45 53 45H51C50.4375 45 50 44.5625 50 44V42C50 41.5 50.4375 41 51 41H53C53.5 41 54 41.5 54 42V44ZM54 38C54 38.5625 53.5 39 53 39H39C38.4375 39 38 38.5625 38 38V34C38 33.5 38.4375 33 39 33H53C53.5 33 54 33.5 54 34V38Z" fill="#0868A2"/>
</g>
<defs>
<clipPath id="clip0_425_3871">
<rect width="91.0896" height="90" fill="white"/>
</clipPath>
</defs>
</svg>
