<svg width="17" height="19" viewBox="0 0 17 19" fill="none" xmlns="http://www.w3.org/2000/svg">
<path d="M5.88672 1.15405V2.27905H10.3867V1.15405C10.3867 0.556396 10.8789 0.0290527 11.5117 0.0290527C12.1094 0.0290527 12.6367 0.556396 12.6367 1.15405V2.27905H14.3242C15.2383 2.27905 16.0117 3.05249 16.0117 3.96655V5.65405H0.261719V3.96655C0.261719 3.05249 1 2.27905 1.94922 2.27905H3.63672V1.15405C3.63672 0.556396 4.12891 0.0290527 4.76172 0.0290527C5.35938 0.0290527 5.88672 0.556396 5.88672 1.15405ZM0.261719 6.77905H16.0117V16.3416C16.0117 17.2908 15.2383 18.0291 14.3242 18.0291H1.94922C1 18.0291 0.261719 17.2908 0.261719 16.3416V6.77905ZM3.07422 9.02905C2.75781 9.02905 2.51172 9.3103 2.51172 9.59155V12.9666C2.51172 13.283 2.75781 13.5291 3.07422 13.5291H6.44922C6.73047 13.5291 7.01172 13.283 7.01172 12.9666V9.59155C7.01172 9.3103 6.73047 9.02905 6.44922 9.02905H3.07422Z" fill="#0868A2"/>
</svg>
