<svg width="92" height="90" viewBox="0 0 92 90" fill="none" xmlns="http://www.w3.org/2000/svg">
<g clip-path="url(#clip0_425_3899)">
<path d="M89.0896 45C89.0896 68.7256 69.6167 88 45.5448 88C21.4729 88 2 68.7256 2 45C2 21.2744 21.4729 2 45.5448 2C69.6167 2 89.0896 21.2744 89.0896 45Z" stroke="#0868A2" stroke-width="4"/>
<path d="M42 40C42 41.6875 40.625 43 39 43H33C31.3125 43 30 41.6875 30 40V34C30 32.375 31.3125 31 33 31H39C40.625 31 42 32.375 42 34V40ZM42 56C42 57.6875 40.625 59 39 59H33C31.3125 59 30 57.6875 30 56V50C30 48.375 31.3125 47 33 47H39C40.625 47 42 48.375 42 50V56ZM46 34C46 32.375 47.3125 31 49 31H55C56.625 31 58 32.375 58 34V40C58 41.6875 56.625 43 55 43H49C47.3125 43 46 41.6875 46 40V34ZM58 56C58 57.6875 56.625 59 55 59H49C47.3125 59 46 57.6875 46 56V50C46 48.375 47.3125 47 49 47H55C56.625 47 58 48.375 58 50V56Z" fill="#0868A2"/>
</g>
<defs>
<clipPath id="clip0_425_3899">
<rect width="91.0896" height="90" fill="white"/>
</clipPath>
</defs>
</svg>
