<svg width="92" height="90" viewBox="0 0 92 90" fill="none" xmlns="http://www.w3.org/2000/svg">
<g clip-path="url(#clip0_425_3885)">
<path d="M89.0896 45C89.0896 68.7256 69.6167 88 45.5448 88C21.4729 88 2 68.7256 2 45C2 21.2744 21.4729 2 45.5448 2C69.6167 2 89.0896 21.2744 89.0896 45Z" stroke="#0868A2" stroke-width="4"/>
<path d="M63.4375 56.75C65 54.875 66 52.5625 66 50C66 43.9375 60.625 39 54 39C53.9375 39 53.9375 39.0625 53.9375 39.0625C53.9375 39.375 54 39.6875 54 40C54 46.1875 49 51.375 42.3125 52.6875C43.625 57.5 48.3125 61 54 61C56.0625 61 58.0625 60.5 59.75 59.6875C61.3125 60.375 63.25 61 65.5 61C65.6875 61 65.875 60.9375 65.9375 60.75C66 60.5625 65.9375 60.375 65.8125 60.25C65.8125 60.1875 64.4375 58.75 63.4375 56.75ZM52 40C52 33.9375 46.125 29 39 29C31.8125 29 26 33.9375 26 40C26 42.5 26.9375 44.75 28.5625 46.625C27.5625 48.6875 26.125 50.1875 26.125 50.25C25.9375 50.375 25.9375 50.5625 26 50.75C26.0625 50.9375 26.25 51 26.4375 51C28.875 51 30.875 50.3125 32.4375 49.5C34.375 50.5 36.5625 51 39 51C46.125 51 52 46.125 52 40ZM39 47C38.125 47 37.5 46.375 37.5 45.5C37.5 44.625 38.125 44 39 44C39.875 44 40.5 44.625 40.5 45.5C40.5 46.375 39.875 47 39 47ZM42.3125 39.75L40.125 41.0625V41.1875C40.125 41.8125 39.625 42.3125 39 42.3125C38.375 42.3125 37.875 41.8125 37.875 41.1875V40.4375C37.875 40 38.0625 39.625 38.4375 39.4375L41.125 37.8125C41.5 37.5625 41.6875 37.25 41.6875 36.875C41.6875 36.3125 41.1875 35.8125 40.625 35.8125H38.125C37.5625 35.8125 37.0625 36.3125 37.0625 36.875C37.0625 37.5 36.5625 38 35.9375 38C35.3125 38 34.8125 37.5 34.8125 36.875C34.8125 35 36.25 33.5 38.125 33.5H40.625C42.5 33.5 44 35 44 36.875C44 38 43.375 39.125 42.3125 39.75Z" fill="#0868A2"/>
</g>
<defs>
<clipPath id="clip0_425_3885">
<rect width="91.0896" height="90" fill="white"/>
</clipPath>
</defs>
</svg>
