<svg width="92" height="90" viewBox="0 0 92 90" fill="none" xmlns="http://www.w3.org/2000/svg">
<g clip-path="url(#clip0_425_3892)">
<path d="M89.6101 45C89.6101 68.7256 70.1372 88 46.0653 88C21.9934 88 2.52051 68.7256 2.52051 45C2.52051 21.2744 21.9934 2 46.0653 2C70.1372 2 89.6101 21.2744 89.6101 45Z" stroke="#0868A2" stroke-width="4"/>
<path d="M52.333 38.4375L61.2705 39.75C62.0205 39.875 62.6455 40.375 62.8955 41.125C63.1455 41.8125 62.958 42.625 62.3955 43.125L55.8955 49.5625L57.458 58.6875C57.583 59.4375 57.2705 60.1875 56.6455 60.625C56.0205 61.125 55.208 61.125 54.5205 60.8125L46.5205 56.5L38.458 60.8125C37.833 61.125 36.958 61.125 36.3955 60.625C35.7705 60.1875 35.458 59.4375 35.583 58.6875L37.083 49.5625L30.583 43.125C30.0205 42.625 29.833 41.8125 30.083 41.125C30.333 40.375 30.958 39.875 31.708 39.75L40.708 38.4375L44.708 30.125C45.0205 29.4375 45.708 29 46.5205 29C47.2705 29 47.958 29.4375 48.2705 30.125L52.333 38.4375Z" fill="#0868A2"/>
</g>
<defs>
<clipPath id="clip0_425_3892">
<rect width="91.0896" height="90" fill="white" transform="translate(0.520508)"/>
</clipPath>
</defs>
</svg>
