<svg width="92" height="90" viewBox="0 0 92 90" fill="none" xmlns="http://www.w3.org/2000/svg">
<g clip-path="url(#clip0_425_3878)">
<path d="M89.6101 45C89.6101 68.7256 70.1372 88 46.0653 88C21.9934 88 2.52051 68.7256 2.52051 45C2.52051 21.2744 21.9934 2 46.0653 2C70.1372 2 89.6101 21.2744 89.6101 45Z" stroke="#0868A2" stroke-width="4"/>
<path d="M40.5205 34C40.5205 32.375 41.833 31 43.5205 31H45.5205C47.1455 31 48.5205 32.375 48.5205 34V56C48.5205 57.6875 47.1455 59 45.5205 59H43.5205C41.833 59 40.5205 57.6875 40.5205 56V34ZM30.5205 46C30.5205 44.375 31.833 43 33.5205 43H35.5205C37.1455 43 38.5205 44.375 38.5205 46V56C38.5205 57.6875 37.1455 59 35.5205 59H33.5205C31.833 59 30.5205 57.6875 30.5205 56V46ZM55.5205 35C57.1455 35 58.5205 36.375 58.5205 38V56C58.5205 57.6875 57.1455 59 55.5205 59H53.5205C51.833 59 50.5205 57.6875 50.5205 56V38C50.5205 36.375 51.833 35 53.5205 35H55.5205Z" fill="#0868A2"/>
</g>
<defs>
<clipPath id="clip0_425_3878">
<rect width="91.0896" height="90" fill="white" transform="translate(0.520508)"/>
</clipPath>
</defs>
</svg>
