<svg width="21" height="21" viewBox="0 0 21 21" fill="none" xmlns="http://www.w3.org/2000/svg">
<g id="ep:calendar">
<path id="Vector" d="M2.52036 7.56094V17.6422H17.6423V3.78046H15.122V4.41054C15.122 4.57765 15.0556 4.73791 14.9374 4.85607C14.8193 4.97424 14.659 5.04062 14.4919 5.04062C14.3248 5.04062 14.1645 4.97424 14.0464 4.85607C13.9282 4.73791 13.8618 4.57765 13.8618 4.41054V3.78046H6.30084V4.41054C6.30084 4.57765 6.23446 4.73791 6.1163 4.85607C5.99813 4.97424 5.83787 5.04062 5.67076 5.04062C5.50365 5.04062 5.34339 4.97424 5.22523 4.85607C5.10706 4.73791 5.04068 4.57765 5.04068 4.41054V3.78046H2.52036V6.30078H17.6423V7.56094H2.52036ZM6.30084 2.52029H13.8618V1.89021C13.8618 1.72311 13.9282 1.56284 14.0464 1.44468C14.1645 1.32652 14.3248 1.26013 14.4919 1.26013C14.659 1.26013 14.8193 1.32652 14.9374 1.44468C15.0556 1.56284 15.122 1.72311 15.122 1.89021V2.52029H18.2724C18.4395 2.52029 18.5998 2.58668 18.7179 2.70484C18.8361 2.823 18.9025 2.98327 18.9025 3.15038V18.2723C18.9025 18.4394 18.8361 18.5997 18.7179 18.7179C18.5998 18.836 18.4395 18.9024 18.2724 18.9024H1.89027C1.72317 18.9024 1.5629 18.836 1.44474 18.7179C1.32658 18.5997 1.26019 18.4394 1.26019 18.2723V3.15038C1.26019 2.98327 1.32658 2.823 1.44474 2.70484C1.5629 2.58668 1.72317 2.52029 1.89027 2.52029H5.04068V1.89021C5.04068 1.72311 5.10706 1.56284 5.22523 1.44468C5.34339 1.32652 5.50365 1.26013 5.67076 1.26013C5.83787 1.26013 5.99813 1.32652 6.1163 1.44468C6.23446 1.56284 6.30084 1.72311 6.30084 1.89021V2.52029ZM5.67076 10.0813H6.93092C7.09803 10.0813 7.2583 10.1477 7.37646 10.2658C7.49462 10.384 7.56101 10.5442 7.56101 10.7114C7.56101 10.8785 7.49462 11.0387 7.37646 11.1569C7.2583 11.275 7.09803 11.3414 6.93092 11.3414H5.67076C5.50365 11.3414 5.34339 11.275 5.22523 11.1569C5.10706 11.0387 5.04068 10.8785 5.04068 10.7114C5.04068 10.5442 5.10706 10.384 5.22523 10.2658C5.34339 10.1477 5.50365 10.0813 5.67076 10.0813ZM5.67076 13.8618H6.93092C7.09803 13.8618 7.2583 13.9281 7.37646 14.0463C7.49462 14.1645 7.56101 14.3247 7.56101 14.4918C7.56101 14.6589 7.49462 14.8192 7.37646 14.9374C7.2583 15.0555 7.09803 15.1219 6.93092 15.1219H5.67076C5.50365 15.1219 5.34339 15.0555 5.22523 14.9374C5.10706 14.8192 5.04068 14.6589 5.04068 14.4918C5.04068 14.3247 5.10706 14.1645 5.22523 14.0463C5.34339 13.9281 5.50365 13.8618 5.67076 13.8618ZM9.45125 10.0813H10.7114C10.8785 10.0813 11.0388 10.1477 11.1569 10.2658C11.2751 10.384 11.3415 10.5442 11.3415 10.7114C11.3415 10.8785 11.2751 11.0387 11.1569 11.1569C11.0388 11.275 10.8785 11.3414 10.7114 11.3414H9.45125C9.28414 11.3414 9.12388 11.275 9.00571 11.1569C8.88755 11.0387 8.82117 10.8785 8.82117 10.7114C8.82117 10.5442 8.88755 10.384 9.00571 10.2658C9.12388 10.1477 9.28414 10.0813 9.45125 10.0813ZM9.45125 13.8618H10.7114C10.8785 13.8618 11.0388 13.9281 11.1569 14.0463C11.2751 14.1645 11.3415 14.3247 11.3415 14.4918C11.3415 14.6589 11.2751 14.8192 11.1569 14.9374C11.0388 15.0555 10.8785 15.1219 10.7114 15.1219H9.45125C9.28414 15.1219 9.12388 15.0555 9.00571 14.9374C8.88755 14.8192 8.82117 14.6589 8.82117 14.4918C8.82117 14.3247 8.88755 14.1645 9.00571 14.0463C9.12388 13.9281 9.28414 13.8618 9.45125 13.8618ZM13.2317 10.0813H14.4919C14.659 10.0813 14.8193 10.1477 14.9374 10.2658C15.0556 10.384 15.122 10.5442 15.122 10.7114C15.122 10.8785 15.0556 11.0387 14.9374 11.1569C14.8193 11.275 14.659 11.3414 14.4919 11.3414H13.2317C13.0646 11.3414 12.9044 11.275 12.7862 11.1569C12.668 11.0387 12.6017 10.8785 12.6017 10.7114C12.6017 10.5442 12.668 10.384 12.7862 10.2658C12.9044 10.1477 13.0646 10.0813 13.2317 10.0813ZM13.2317 13.8618H14.4919C14.659 13.8618 14.8193 13.9281 14.9374 14.0463C15.0556 14.1645 15.122 14.3247 15.122 14.4918C15.122 14.6589 15.0556 14.8192 14.9374 14.9374C14.8193 15.0555 14.659 15.1219 14.4919 15.1219H13.2317C13.0646 15.1219 12.9044 15.0555 12.7862 14.9374C12.668 14.8192 12.6017 14.6589 12.6017 14.4918C12.6017 14.3247 12.668 14.1645 12.7862 14.0463C12.9044 13.9281 13.0646 13.8618 13.2317 13.8618Z" fill="white"/>
</g>
</svg>
