<svg width="27" height="16" viewBox="0 0 27 16" fill="none" xmlns="http://www.w3.org/2000/svg">
<g clip-path="url(#clip0_1_187)">
<path d="M20 8.00001C19.9931 6.4651 19.3558 4.99028 18.2176 3.87565C17.0794 2.76101 15.526 2.0903 13.8734 2.00003H13.4904C11.7742 1.99532 10.1261 2.62295 8.90895 3.74483C7.69176 4.86672 7.00511 6.39097 7.00003 7.98227C6.99495 9.57356 7.67187 11.1015 8.88187 12.2301C10.0919 13.3586 11.7359 13.9953 13.4521 14H13.8351C15.4945 13.9184 17.0574 13.2516 18.2037 12.136C19.3499 11.0205 19.9926 9.54073 20 8.00001ZM13.4904 10.8757C12.8785 10.8694 12.2823 10.6954 11.7768 10.3756C11.2713 10.0558 10.8791 9.60455 10.6496 9.07855C10.4201 8.55256 10.3636 7.97536 10.4871 7.41965C10.6107 6.86393 10.9088 6.35453 11.3439 5.95555C11.779 5.55656 12.3317 5.28582 12.9324 5.17743C13.5331 5.06903 14.1549 5.12782 14.7197 5.34638C15.2844 5.56495 15.7668 5.93353 16.1061 6.40572C16.4454 6.87792 16.6265 7.43262 16.6265 8.00001C16.6184 8.7653 16.2849 9.4967 15.6983 10.0352C15.1118 10.5737 14.3197 10.8758 13.4943 10.8757H13.4904Z" fill="white"/>
<path d="M13.5 6C13.1022 6 12.7206 6.21072 12.4393 6.58579C12.158 6.96087 12 7.46957 12 8C12 8.53043 12.158 9.03913 12.4393 9.41421C12.7206 9.78928 13.1022 10 13.5 10C13.8978 10 14.2794 9.78928 14.5607 9.41421C14.842 9.03913 15 8.53043 15 8C15 7.46957 14.842 6.96087 14.5607 6.58579C14.2794 6.21072 13.8978 6 13.5 6Z" fill="white"/>
<path d="M3.8147e-06 7.99992C2.41165 11.5502 5.49533 14.0591 8.96982 15.2425C7.74251 14.4676 6.73198 13.3975 6.03186 12.1315C5.33174 10.8654 4.96467 9.44436 4.96467 7.99992C4.96467 6.55548 5.33174 5.13442 6.03186 3.86837C6.73198 2.60232 7.74251 1.53226 8.96982 0.757324C5.54299 1.94076 2.41165 4.40229 3.8147e-06 7.99992Z" fill="white"/>
<path d="M18.564 0.946777C19.7066 1.74097 20.6402 2.79625 21.2864 4.02373C21.9325 5.25121 22.2722 6.61494 22.2768 8.00004C22.2827 9.38705 21.9475 10.7545 21.3005 11.9837C20.6535 13.2129 19.7141 14.2666 18.564 15.0533C21.7906 13.8225 24.7313 11.4083 27 8.00004C24.9688 4.85755 22.028 2.39879 18.564 0.946777Z" fill="white"/>
</g>
<defs>
<clipPath id="clip0_1_187">
<rect width="27" height="16" fill="white"/>
</clipPath>
</defs>
</svg>
