<svg width="30" height="30" viewBox="0 0 30 30" fill="none" xmlns="http://www.w3.org/2000/svg">
<path d="M15.9233 24.3791C20.7317 23.7795 24.4526 19.6776 24.4526 14.7067C24.4526 9.32315 20.0884 4.95892 14.7048 4.95892C9.3212 4.95892 4.95697 9.32315 4.95697 14.7067C4.95697 19.6776 8.67781 23.7795 13.4863 24.3791V17.1437H11.0493V14.7067H13.4863V12.6911C13.4863 11.0617 13.6559 10.4708 13.9746 9.87513C14.2931 9.27943 14.7606 8.81193 15.3563 8.49335C15.8226 8.24398 16.401 8.09347 17.4119 8.02891C17.813 8.00329 18.3323 8.03597 18.9694 8.12695V10.4421H18.3602C17.2425 10.4421 16.7813 10.4948 16.5056 10.6423C16.3346 10.7337 16.215 10.8534 16.1235 11.0244C15.976 11.3001 15.9233 11.5734 15.9233 12.6911V14.7067H18.9694L18.3602 17.1437H15.9233V24.3791ZM14.7048 26.8915C7.97531 26.8915 2.52002 21.4361 2.52002 14.7067C2.52002 7.97726 7.97531 2.52197 14.7048 2.52197C21.4342 2.52197 26.8895 7.97726 26.8895 14.7067C26.8895 21.4361 21.4342 26.8915 14.7048 26.8915Z" fill="white"/>
</svg>
