<svg width="30" height="30" viewBox="0 0 30 30" fill="none" xmlns="http://www.w3.org/2000/svg">
<g id="instagram-line" >
<path id="Vector" d="M14.9835 11.0513C12.964 11.0513 11.328 12.6878 11.328 14.7067C11.328 16.7261 12.9646 18.3621 14.9835 18.3621C17.0028 18.3621 18.6389 16.7256 18.6389 14.7067C18.6389 12.6873 17.0024 11.0513 14.9835 11.0513ZM14.9835 8.61434C18.3469 8.61434 21.0758 11.3402 21.0758 14.7067C21.0758 18.0703 18.35 20.7991 14.9835 20.7991C11.6199 20.7991 8.89108 18.0732 8.89108 14.7067C8.89108 11.3432 11.6169 8.61434 14.9835 8.61434ZM22.9035 8.30869C22.9035 9.14957 22.2202 9.8318 21.3805 9.8318C20.5396 9.8318 19.8574 9.14852 19.8574 8.30869C19.8574 7.46885 20.5406 6.78663 21.3805 6.78663C22.2191 6.78557 22.9035 7.46885 22.9035 8.30869ZM14.9835 4.95892C11.9684 4.95892 11.4769 4.9669 10.0746 5.02935C9.11914 5.0742 8.47868 5.2027 7.88362 5.43372C7.3548 5.63882 6.97333 5.88372 6.56689 6.29016C6.15888 6.69817 5.91442 7.07861 5.71015 7.60768C5.47859 8.20411 5.35013 8.84355 5.30608 9.79766C5.24303 11.1429 5.23565 11.6131 5.23565 14.7067C5.23565 17.7218 5.24364 18.2132 5.30607 19.6155C5.35095 20.5705 5.47962 21.2119 5.71008 21.8055C5.91571 22.3351 6.16111 22.7174 6.56559 23.122C6.97521 23.531 7.35679 23.7763 7.88083 23.9786C8.48314 24.2114 9.12319 24.3401 10.0744 24.3841C11.4197 24.4471 11.8898 24.4545 14.9835 24.4545C17.9986 24.4545 18.49 24.4465 19.8922 24.3841C20.8452 24.3394 21.4871 24.2103 22.0823 23.98C22.6104 23.775 22.994 23.5287 23.3987 23.1245C23.8084 22.7143 24.0532 22.3336 24.2557 21.8083C24.4879 21.2082 24.6168 20.5673 24.6608 19.6158C24.7238 18.2705 24.7313 17.8003 24.7313 14.7067C24.7313 11.6916 24.7232 11.2002 24.6608 9.79793C24.616 8.84471 24.487 8.20188 24.2564 7.60688C24.0518 7.07953 23.8061 6.69689 23.4 6.29016C22.9913 5.88149 22.6118 5.63753 22.0824 5.43342C21.4865 5.20205 20.846 5.07341 19.8925 5.02936C18.5473 4.96629 18.0771 4.95892 14.9835 4.95892ZM14.9835 2.52197C18.2936 2.52197 18.7069 2.53416 20.0066 2.59508C21.3032 2.65499 22.1877 2.8601 22.9645 3.16167C23.7676 3.47137 24.4459 3.88971 25.1231 4.56697C25.7994 5.24425 26.2178 5.92456 26.5285 6.72571C26.829 7.50147 27.0342 8.38689 27.0951 9.68355C27.153 10.9833 27.1682 11.3965 27.1682 14.7067C27.1682 18.0169 27.156 18.4301 27.0951 19.7299C27.0352 21.0266 26.829 21.9109 26.5285 22.6877C26.2188 23.4909 25.7994 24.1691 25.1231 24.8465C24.4459 25.5227 23.7645 25.941 22.9645 26.2518C22.1877 26.5524 21.3032 26.7574 20.0066 26.8183C18.7069 26.8762 18.2936 26.8915 14.9835 26.8915C11.6733 26.8915 11.26 26.8793 9.96029 26.8183C8.66362 26.7584 7.78023 26.5524 7.00244 26.2518C6.20027 25.942 5.52097 25.5227 4.84371 24.8465C4.16644 24.1691 3.74912 23.4879 3.4384 22.6877C3.13683 21.9109 2.93274 21.0266 2.87181 19.7299C2.81394 18.4301 2.79871 18.0169 2.79871 14.7067C2.79871 11.3965 2.81089 10.9833 2.87181 9.68355C2.93171 8.38588 3.13683 7.50248 3.4384 6.72571C3.74809 5.92355 4.16644 5.24425 4.84371 4.56697C5.52097 3.88971 6.20129 3.47238 7.00244 3.16167C7.77922 2.8601 8.66261 2.656 9.96029 2.59508C11.26 2.5372 11.6733 2.52197 14.9835 2.52197Z" fill="white"/>
</g>
</svg>
