<svg width="85" height="82" viewBox="0 0 85 82" fill="none" xmlns="http://www.w3.org/2000/svg">
<g id="Component 11">
<path id="Vector" d="M82.892 63.761L82.9977 63.2675L82.4436 62.4372L82.1851 62.1044L57.9238 44.3091L57.0505 43.8636L56.6226 43.7305L55.7688 43.704L3.3691 52.0607L2.54959 52.3544L1.77022 53.0447L1.21605 53.9494L1.05646 54.8267V60.7209L1.30515 61.0459L1.46474 61.9262L25.726 79.7214L26.29 80.537L26.6973 80.6927L27.5912 81.1156L28.446 81.1421L28.8533 80.8562L81.252 72.4995L81.9315 72.2831L82.5297 71.8288L82.892 71.1346L82.9997 70.4081V64.5139L82.892 63.761Z" fill="white"/>
<path id="Vector_2" d="M81.9252 61.9874C82.3395 62.2674 82.6785 62.6451 82.9123 63.0871C83.146 63.5291 83.2672 64.022 83.2653 64.5219C83.2793 66.3118 83.2931 68.1022 83.2638 69.8916C83.3057 70.6603 83.0417 71.4142 82.5294 71.9887C82.0172 72.5633 81.2983 72.9118 80.53 72.9579C76.6156 73.5668 72.7061 74.2059 68.7943 74.8311C64.8989 75.4537 61.0036 76.0751 57.1078 76.6956C53.1627 77.3253 49.2175 77.9551 45.2723 78.5852C41.1437 79.2423 37.0148 79.8978 32.8857 80.5517C31.5204 80.7687 30.1563 80.9929 28.791 81.2097C28.6136 81.2378 28.4323 81.2413 28.1719 81.2628C28.4924 80.9382 28.7424 80.5509 28.9062 80.1252C29.0701 79.6994 29.1441 79.2444 29.1239 78.7887C29.1143 77.8769 29.1092 76.9648 29.1254 76.0532C29.1409 75.1807 29.2528 74.3047 29.199 73.4379C29.1254 72.6442 28.985 71.8581 28.7792 71.0882C28.7081 70.7871 28.741 70.7199 29.0403 70.6639C31.2765 70.2457 33.5065 69.7942 35.7432 69.3788C38.0515 68.9502 40.3659 68.5539 42.6765 68.1373C44.4317 67.8208 46.1845 67.4896 47.94 67.1741C49.9408 66.8146 79.3482 61.9086 81.3527 61.5704L81.9252 61.9874Z" fill="#B6DBA8"/>
<path id="Vector_3" d="M28.4448 81.7302H28.4266L27.5728 81.7044C27.5199 81.7024 27.4675 81.6939 27.4169 81.6786L26.9895 81.5456C26.9573 81.5354 26.926 81.5225 26.8957 81.5075L26.0219 81.061L1.68102 63.2162C1.63692 63.1843 1.59765 63.1463 1.56437 63.1034L1.30622 62.7706L0.72678 61.9062C0.682561 61.8401 0.652307 61.7655 0.637853 61.6872L0.47914 60.8295C0.472592 60.7943 0.469398 60.7584 0.469581 60.7224V54.8277C0.469557 54.7928 0.472433 54.758 0.478185 54.7236L0.63691 53.8458C0.645416 53.7983 0.65987 53.752 0.67993 53.7081L1.1628 52.7471C1.20231 52.6706 1.25811 52.6037 1.3263 52.5512L2.19162 51.8886C2.24018 51.8518 2.29401 51.8228 2.35129 51.8024L3.17074 51.5089C3.20486 51.4964 3.24007 51.4871 3.2759 51.4813L55.6762 43.1244C55.7127 43.1188 55.75 43.1165 55.787 43.1178L56.6408 43.1444C56.6937 43.1463 56.7462 43.155 56.7967 43.1703L57.2241 43.3032C57.2561 43.3133 57.287 43.3262 57.3169 43.3415L58.1907 43.787C58.2191 43.8009 58.2459 43.8176 58.271 43.8368L82.5326 61.6318C82.5768 61.6636 82.616 61.7015 82.6493 61.7446L82.9074 62.0774L83.4859 62.9427C83.5302 63.0089 83.5604 63.0833 83.5749 63.1616L83.7346 64.0193C83.7412 64.0547 83.7443 64.0905 83.744 64.1264V70.0201C83.7443 70.0555 83.7412 70.0906 83.7346 70.1254L83.5749 71.0031C83.5668 71.0493 83.5531 71.0942 83.5338 71.1369L83.0508 72.1017C83.0104 72.1787 82.9535 72.2459 82.8845 72.2987L82.0268 72.9546C81.9773 72.9937 81.9217 73.0244 81.8623 73.0454L81.0429 73.339C81.0088 73.3514 80.9735 73.3607 80.9377 73.3667L28.5375 81.7235C28.5069 81.7281 28.4758 81.7303 28.4448 81.7302ZM27.6884 80.5322L28.4075 80.5542L80.6989 72.2145L81.3767 71.9717L82.07 71.442L82.4313 70.7249L82.5701 69.9676V64.1809L82.4418 63.4944L81.7725 62.5306L57.6151 44.812L56.8283 44.4104L56.5242 44.3158L55.8061 44.2938L3.51493 52.6334L2.83319 52.8772L2.14476 53.405L1.78046 54.125L1.64373 54.8803V60.6689L1.77092 61.3544L2.44116 62.3174L26.6366 80.0646L27.3835 80.4374L27.6884 80.5322Z" fill="#5DA845"/>
<path id="Vector_4" d="M53.8311 47.7166L53.6549 46.8962L53.2857 46.1334L53.0713 45.6145L52.5171 44.9311L52.151 44.5365L51.4538 43.996L50.6471 43.6259L50.182 43.4008L49.3439 43.2382L48.8279 43.1677L48.0289 43.2098L47.5247 43.2647L46.7336 43.4086L45.8436 43.625L44.8674 43.8893L43.8599 44.1684L43.855 44.1703L43.8491 44.1733L43.8442 44.1762L43.8384 44.1811L43.8335 44.186L43.8295 44.1919L43.8256 44.1977L43.8227 44.2046L43.8207 44.2105L43.8198 44.2163L43.7199 45.1573L43.5906 46.1109L43.4634 47.0185L43.3625 47.8596L43.34 48.636L43.3889 49.1716L43.5652 49.9931L43.7669 50.4816L44.1487 51.2737L44.7029 51.9571L45.0701 52.3517L45.7672 52.8922L46.2616 53.1321L47.0391 53.4875L47.6118 53.5658L48.3932 53.7205L48.9855 53.6559L49.6865 53.6167L50.2368 53.4483L50.8125 53.1742L51.2296 53.0312L51.6849 52.7395L52.1245 52.384L52.5318 51.9777L52.8912 51.5371L53.1898 51.0779L53.415 50.6187L53.5932 50.1037L53.7773 49.5407L53.8487 49.0218L53.8801 48.2522L53.8311 47.7166Z" fill="white"/>
<path id="Vector_5" d="M52.1873 44.674C51.604 44.09 50.8603 43.6925 50.0507 43.5319C49.5203 43.3843 48.9664 43.34 48.4192 43.4015C47.5795 43.521 46.7606 43.7868 45.9326 43.9899C45.7131 44.0437 45.4926 44.0941 45.2726 44.1462L45.2487 44.2934C45.4425 44.3973 45.6454 44.483 45.855 44.5493C46.4262 44.6767 47.0077 44.7574 47.579 44.8842C48.1918 44.9937 48.762 45.2714 49.226 45.6863C49.6901 46.1012 50.0296 46.637 50.2067 47.2336C50.6589 48.4724 50.7878 49.8061 50.5809 51.1086C50.5654 51.6257 50.4299 52.1322 50.1852 52.5881C49.9406 53.044 49.5934 53.4369 49.1709 53.7356L49.218 53.8525L51.4413 53.1867C51.4413 53.1867 55.6469 48.9512 52.1873 44.674Z" fill="#B6DBA8"/>
<path id="Vector_6" d="M48.3918 54.3075C48.365 54.3074 48.3382 54.3058 48.3115 54.3027L46.9279 54.0647C46.8817 54.056 46.8368 54.0419 46.7941 54.0226L45.5109 53.4212C45.474 53.4032 45.439 53.3814 45.4067 53.3562L44.7096 52.815L44.2727 52.358L43.6923 51.6437C43.6634 51.6086 43.6391 51.57 43.6196 51.5289L43.022 50.2152C43.0088 50.1829 42.9983 50.1497 42.9904 50.1157L42.8145 49.2943L42.7543 48.6901L42.7744 47.843L43.2352 44.154C43.2395 44.1186 43.2462 44.0834 43.2554 44.0489C43.2662 44.0118 43.28 43.9757 43.2965 43.9409C43.3665 43.7994 43.4854 43.688 43.6311 43.6273L46.5941 42.8375L47.9644 42.6253L48.7963 42.5808C48.833 42.5779 48.8698 42.5795 48.9062 42.5856L49.4225 42.6559L50.2936 42.8242C50.3393 42.8328 50.384 42.8469 50.4265 42.8663L51.7078 43.4667C51.7451 43.4845 51.7803 43.5063 51.8129 43.5317L52.5099 44.0729C52.535 44.0922 52.5584 44.1137 52.5798 44.137L52.9469 44.5319L53.5273 45.2442C53.5562 45.2793 53.5805 45.3178 53.6 45.359L54.1975 46.6727C54.2111 46.7049 54.2216 46.7382 54.2291 46.7722L54.406 47.5935L54.4643 48.1997L54.4357 49.0449L54.3572 49.6225C54.3524 49.6569 54.3447 49.6908 54.3343 49.7238L53.97 50.81L53.7176 51.3359L53.3829 51.8579L52.9871 52.3494L52.5377 52.7998L52.0529 53.1967L51.5451 53.5255L51.0298 53.7771L49.8575 54.1786C49.8222 54.1893 49.7861 54.1966 49.7495 54.2006L48.4281 54.3068C48.4156 54.3075 48.4043 54.3075 48.3918 54.3075ZM47.2195 52.925L48.4138 53.1306L49.566 53.0388L50.5719 52.6955L50.9762 52.5004L51.3674 52.2451L51.7546 51.9268L52.117 51.5624L52.4344 51.1657L52.6974 50.7564L52.8867 50.3606L53.2013 49.4082L53.2672 48.9407L53.2921 48.2292L53.2462 47.7694L53.0922 47.0714L52.5721 45.9316L51.7527 44.9716L51.1407 44.4974L50.001 43.9639L48.8029 43.7573L47.5877 43.8491L46.8381 43.9867L44.3607 44.6388L43.9447 47.929L43.9266 48.6518L43.9743 49.1165L44.1283 49.8165L44.309 50.2591L44.6474 50.9563L45.4994 51.9507L46.0759 52.3894L47.2195 52.925Z" fill="#5DA845"/>
<path id="Vector_7" d="M38.3656 37.7668L38.3343 36.3265L38.0347 35.4013L37.8997 35.0781L37.4267 34.2606L36.7894 33.5625L36.5464 33.3265L35.822 32.8252L35.5291 32.6568L34.7938 32.3827L34.5296 32.2818L34.2134 32.2006L33.856 32.1428L33.473 32.1085L33.3222 32.1614L33.1207 32.1575L32.9209 32.1673L32.7309 32.1898L32.3129 32.1653L31.9722 32.2348L31.6775 32.3249L31.4396 32.4326L30.6601 32.7293L30.4115 32.9065L29.6605 33.4293L29.4794 33.6722L28.8302 34.3889L28.3485 35.2201L28.2966 35.5471L27.9969 36.4812L27.9657 37.9224L27.9579 43.7315L27.9657 49.5395L27.9969 50.9798L28.1398 51.3234L28.4316 52.2291L28.9056 53.0467L29.1905 53.3238L29.7847 53.9798L30.1578 54.1952L30.802 54.6504L31.186 54.7963L31.6452 54.9138L32.1179 55.1057L32.4753 55.1645L32.8582 55.1978L33.2537 55.2056L33.6454 55.186L34.0194 55.141L34.3592 55.0724L34.8987 54.8658L35.3265 54.7346L35.6712 54.577L36.3545 54.1031L36.6708 53.877L37.2877 53.2023L37.5012 52.9174L37.9828 52.0862L38.2795 51.1717L38.3343 50.8251L38.3656 49.3838L38.3736 43.5758L38.3656 37.7668Z" fill="white"/>
<path id="Vector_8" d="M32.6312 32.3791C33.5892 32.2128 34.5751 32.3405 35.4592 32.7452C36.3532 33.1204 37.1151 33.7534 37.6479 34.5634C38.1806 35.3734 38.4601 36.3237 38.4506 37.2931C38.4727 41.649 38.4393 46.0051 38.4574 50.3609C38.4107 51.5145 37.9783 52.6191 37.2295 53.4979C36.4808 54.3767 35.4587 54.9789 34.3272 55.2082C34.1309 55.25 33.9298 55.2692 33.6403 55.3126C34.181 54.9539 34.6181 54.4598 34.9084 53.8794C35.1986 53.299 35.3317 52.6527 35.2942 52.0049C35.3172 47.6658 35.3007 43.3263 35.304 38.987C35.262 37.3579 34.7375 35.7778 33.7967 34.4472C33.3867 33.8144 33.0522 33.1326 32.6312 32.3791Z" fill="#B6DBA8"/>
<path id="Vector_9" d="M33.2829 55.7923L32.4243 55.7492L31.6555 55.5934L30.5932 55.1985L30.2155 54.989L29.4514 54.4623L29.1341 54.1659L28.4715 53.4421C28.4428 53.4112 28.4178 53.3772 28.3968 53.3407L27.9236 52.5232L27.7553 52.133L27.4378 51.1606C27.4205 51.1062 27.4111 51.0495 27.4101 50.9923L27.3786 49.5513L27.371 43.7323L27.4101 36.4679L27.4723 36.0419L27.7908 35.0389C27.8034 34.9995 27.82 34.9616 27.8405 34.9256L28.5738 33.7519L29.2278 33.0329C29.2551 33.0024 29.286 32.9751 29.3196 32.9516L30.3255 32.2464C30.3542 32.2267 30.3847 32.2094 30.4164 32.1949L30.7615 32.0375L31.7998 31.6723L32.6164 31.537L33.0495 31.5145L33.9072 31.5571L34.6761 31.7129L35.7393 32.1074L36.1169 32.3168L36.8809 32.8435L37.1984 33.1405L37.861 33.8638C37.8892 33.8951 37.9142 33.9292 37.9355 33.9656L38.4089 34.7831L38.5772 35.1752L38.8937 36.1452C38.9118 36.1997 38.9215 36.2566 38.9223 36.314L38.9529 37.7545V37.7659L38.9615 43.5745L38.9223 50.8375L38.8603 51.2649L38.5418 52.268C38.529 52.3072 38.5123 52.345 38.4921 52.3808L37.7568 53.5559L37.1057 54.2731C37.0776 54.3034 37.0465 54.331 37.0129 54.3553L36.0061 55.0599C35.9775 55.0801 35.9472 55.0974 35.9152 55.1116L35.5701 55.2693L34.5326 55.6335L33.7151 55.7694L33.2829 55.7923ZM29.3808 52.6962L30.1936 53.5577L31.0971 54.141L32.2647 54.5368L32.91 54.6125L33.2657 54.6182L34.2428 54.4967L35.3778 54.0655L36.2795 53.4354L37.0319 52.5653L37.4431 51.8472L37.7547 50.7324L37.7787 49.3717L37.7873 43.5745L37.75 36.4253L37.358 35.3033L36.9516 34.6106L36.137 33.7481L35.2354 33.1649L34.0669 32.7695L33.4226 32.694L33.0668 32.6887L32.0887 32.8096L30.9528 33.2414L30.053 33.871L29.3015 34.7407L28.8893 35.4592L28.5777 36.5736L28.5528 37.9351L28.5452 43.7323L28.5825 50.8815L28.9735 52.0012L29.3808 52.6962Z" fill="#5DA845"/>
<path id="Vector_10" d="M64.8211 32.5317L64.7506 31.9638L64.636 31.4038L64.4823 30.8731L64.2943 30.3933L64.0799 29.9811L63.6148 29.4769L63.3191 29.0608L62.6494 28.6114L62.2872 28.2667L61.4608 27.9407L61.0584 27.7341L60.137 27.5823L58.7447 27.7733L58.3325 27.7488L52.7282 28.6339L47.1277 29.5357L45.7432 29.7883L44.8953 30.2279L44.5389 30.3894L43.8271 30.9857L43.2563 31.7269L43.0174 31.9883L42.662 32.7892L42.5073 33.0937L42.3927 33.4854L42.3075 34.1453L42.2586 34.4654L42.2429 34.8238L42.2586 35.2056L42.3075 35.5973L42.3859 35.9831L42.4926 36.3483L42.6218 36.6792L42.849 37.1639L43.0634 37.5761L43.2955 37.9031L43.8242 38.4964L44.1316 38.7892L44.8562 39.2905L45.2184 39.4765L46.0849 39.8231L47.0063 39.9749L47.4165 39.9993L48.8117 39.8084L54.4142 38.9233L60.0156 38.0206L61.4011 37.7689L61.779 37.5966L62.6044 37.1678L63.3172 36.5715L63.5972 36.2641L64.1259 35.5689L64.3227 35.1821L64.4676 34.6828L64.7506 34.0718L64.8211 33.6068L64.8446 33.0869L64.8211 32.5317Z" fill="white"/>
<path id="Vector_11" d="M48.2953 39.9953C48.7003 39.693 49.0285 39.2999 49.2538 38.8475C49.4791 38.3951 49.595 37.8962 49.5922 37.3909C49.7214 35.8168 49.3078 34.246 48.4202 32.9396C47.9749 32.1912 47.5506 31.4297 47.1369 30.6632C47.0754 30.5647 47.0411 30.4517 47.0373 30.3357C47.0336 30.2197 47.0605 30.1047 47.1156 30.0025C47.1705 29.9002 47.2516 29.8144 47.3505 29.7536C47.4493 29.6928 47.5625 29.6593 47.6786 29.6563C49.075 29.4371 50.4673 29.191 51.8641 28.9742C53.2642 28.757 54.6686 28.5668 56.0699 28.3563C57.2097 28.185 58.3519 28.0245 59.4851 27.8158C60.5119 27.6602 61.5601 27.8884 62.4293 28.4569C63.1774 28.9033 63.8025 29.5292 64.2478 30.2779C64.6932 31.0266 64.9448 31.8746 64.9801 32.745C65.0153 33.6156 64.833 34.481 64.4494 35.2633C64.066 36.0456 63.4936 36.7198 62.784 37.2252C61.8424 37.7884 60.7813 38.1213 59.6868 38.1964C56.1935 38.7499 52.7006 39.3055 49.2081 39.8635C48.9323 39.9073 48.6554 39.9435 48.2953 39.9953Z" fill="#B6DBA8"/>
<path id="Vector_12" d="M47.4157 40.5867L47.3813 40.5858L46.9711 40.5614L45.9881 40.4022C45.9463 40.3954 45.9051 40.3841 45.8657 40.3683L44.5864 39.8128L43.7966 39.272L43.418 38.9215L42.8558 38.2938L42.5833 37.9152L41.9445 36.5618L41.7313 35.7141L41.6548 34.8483L41.7381 33.8793L41.8117 33.3969L41.9427 32.9284L42.4925 31.7227C42.5085 31.691 42.5275 31.6607 42.5489 31.6323L43.3923 30.5896L44.16 29.939C44.1932 29.9116 44.229 29.8877 44.2671 29.8677L45.4987 29.2534C45.5429 29.2332 45.5895 29.2186 45.6372 29.2099L47.0218 28.9579L59.6469 26.9758C59.6846 26.9709 59.7228 26.9694 59.7607 26.9711L60.1708 26.9954L61.1529 27.1542C61.1948 27.1609 61.2358 27.1723 61.2752 27.1881L62.5555 27.7441L63.3453 28.2848L63.723 28.6357L64.2853 29.2629L64.5577 29.6416L65.1974 30.9951L65.4116 31.8413L65.4871 32.7098L65.4039 33.6789L65.3302 34.1599L65.1993 34.6284L64.6495 35.8342C64.6335 35.8659 64.6145 35.8961 64.5931 35.9245L63.7488 36.9681L62.981 37.6178C62.948 37.6449 62.9124 37.6686 62.8749 37.6886L61.6424 38.3038C61.5985 38.3239 61.5522 38.3385 61.5047 38.3469L60.1201 38.5989L47.4951 40.581C47.4688 40.5849 47.4422 40.5867 47.4157 40.5867ZM46.2416 39.2534L47.39 39.4097L48.7314 39.2261L61.2226 37.2038L62.2754 36.6761L62.938 36.1206L63.1637 35.8672L63.6255 35.2566L64.0969 34.2283L64.1858 33.9065L64.3129 32.7085L64.2527 32.0325L64.0864 31.3727L63.5585 30.254L63.3673 29.9939L62.6052 29.1927L61.6558 28.6032L60.8995 28.303L59.7521 28.1472L58.4116 28.3308L45.9193 30.353L44.8656 30.8808L44.203 31.4363L43.9783 31.6888L43.5165 32.3002L43.0451 33.3285L42.9562 33.6503L42.829 34.8503L42.8902 35.5243L43.0557 36.1841L43.5834 37.3042L43.7738 37.5629L44.5367 38.3637L45.4862 38.9536L46.2416 39.2534Z" fill="#5DA845"/>
<path id="Vector_13" d="M24.9703 36.9309L24.8695 35.6101L24.7314 34.1728L24.5846 32.7002L24.5836 32.6992L24.5826 32.6973L24.5807 32.6953L24.5767 32.6924L24.5728 32.6884L24.5679 32.6845L24.5621 32.6806L24.5562 32.6757L24.5503 32.6708L24.5444 32.6659L24.5395 32.662L24.5346 32.6581L24.5307 32.6552L24.5288 32.6532L24.5268 32.6522L23.2178 32.7922L21.9018 32.9029L20.6623 32.9998L19.5295 33.1036L18.5083 33.2671L17.5419 33.6147L16.6597 34.1463L15.896 34.8405L15.2792 35.6708L14.8327 36.6058L14.5752 37.6084L14.5155 38.6414L14.6565 39.6646L14.9913 40.6378L15.5093 41.5249L15.5553 41.5493L16.1888 42.2905L17.0102 42.877L17.022 42.9054L17.959 43.346L17.9257 43.3489L18.9156 43.6006L19.9368 43.6515L19.9985 43.6456L21.0226 43.4929L21.9968 43.1433L22.8839 42.6117L23.6505 41.9175L24.2654 41.0872L24.707 40.1531L24.9557 39.1505L25.0134 38.1078L24.9703 36.9309Z" fill="white"/>
<path id="Vector_14" d="M20.6398 43.6623C21.1026 43.2916 21.4697 42.8154 21.7105 42.2736C21.9512 41.7318 22.0587 41.14 22.0237 40.5482C22.0651 38.5012 21.3865 36.5046 20.1062 34.9068C19.8915 34.5933 19.7237 34.2501 19.6081 33.8882C19.4949 33.5426 19.6531 33.318 20.0527 33.2806C21.2759 33.1665 22.4977 33.0367 23.7199 32.9126C24.0205 32.882 24.321 32.8498 24.6982 32.8104C24.8309 34.3824 25.004 35.9343 25.0758 37.4907C25.1168 38.2966 25.0537 39.1044 24.8884 39.8941C24.6323 40.872 24.092 41.752 23.3358 42.4228C22.5794 43.0935 21.6413 43.5249 20.6398 43.6623Z" fill="#B6DBA8"/>
<path id="Vector_15" d="M19.9223 44.2391H19.908L18.8868 44.1885C18.8476 44.1868 18.8088 44.1806 18.771 44.1702L17.7813 43.9187C17.7437 43.9092 17.7068 43.8961 17.6714 43.8796L16.7507 43.4369C16.722 43.4226 16.6493 43.3824 16.6236 43.3643C16.6168 43.3604 16.5384 43.305 16.5326 43.3002L15.8289 42.7552L15.1051 41.9975C15.0965 41.9875 15.0468 41.9233 15.0391 41.9128L14.4798 41.0031C14.4655 40.9791 14.4291 40.8993 14.4186 40.874L14.0544 39.869C14.041 39.8328 14.0314 39.7952 14.0257 39.7572L13.8718 38.7355C13.866 38.6973 13.8641 38.6587 13.866 38.6202L13.9147 37.5886C13.9167 37.55 13.9225 37.5117 13.932 37.4743L14.1815 36.4723C14.191 36.4349 14.2037 36.3986 14.2199 36.3637L14.6606 35.4295C14.6772 35.3944 14.6974 35.3611 14.7208 35.3302L15.3366 34.5001C15.3592 34.4693 15.3847 34.4408 15.4131 34.4151L16.1789 33.7204C16.2076 33.6946 16.2386 33.6714 16.2717 33.6516L17.159 33.1195C17.1922 33.0998 17.2271 33.0834 17.2633 33.0703L18.2376 32.7217C18.2716 32.7093 18.3069 32.7003 18.3427 32.6949L19.3745 32.5304C19.3878 32.5281 19.4643 32.5209 19.4768 32.5194L24.4641 32.069C24.5758 32.0566 24.6888 32.0771 24.7892 32.1279C24.7977 32.1341 24.8752 32.1795 24.8838 32.1861C24.8971 32.1967 24.9479 32.2368 24.9612 32.2488C24.9893 32.2735 25.0155 32.3002 25.0397 32.3287C25.0809 32.3697 25.1136 32.4187 25.1358 32.4725C25.1579 32.5264 25.1691 32.584 25.1687 32.6423L25.5559 36.8872L25.5999 38.0867L25.5434 39.1829C25.5411 39.2203 25.5354 39.2572 25.5263 39.2933L25.2768 40.2954C25.2673 40.3328 25.2546 40.369 25.2385 40.404L24.7977 41.3382C24.781 41.3729 24.7611 41.4062 24.7384 41.4376L24.1226 42.268C24.0996 42.2988 24.0737 42.3273 24.0452 42.353L23.2793 43.0477C23.2505 43.0734 23.2194 43.0964 23.1866 43.1166L22.2993 43.6483C22.2664 43.6681 22.2314 43.6845 22.195 43.697L21.2207 44.046C21.1848 44.0592 21.1476 44.0688 21.1098 44.0747L20.0858 44.2276C20.0315 44.2343 19.9769 44.238 19.9223 44.2391ZM19.0034 43.0172L19.9652 43.065L20.8765 42.9215L21.7446 42.6108L22.5326 42.1385L23.2124 41.5218L23.7593 40.7845L24.1504 39.9551L24.3732 39.064L24.4258 38.0768L24.3827 36.9533L24.0528 33.2945L19.5838 33.6899L18.5807 33.8467L17.7135 34.1569L16.9256 34.6297L16.2449 35.2464L15.6989 35.9832L15.3078 36.8126L15.086 37.7019L15.0429 38.6179L15.1788 39.5248L15.5106 40.4422L16.0546 41.2971L16.6149 41.887L17.2401 42.3627L18.1284 42.7953L19.0034 43.0172Z" fill="#5DA845"/>
<path id="Vector_16" d="M36.1617 21.6811L36.1127 21.2894L36.0344 20.9037L35.9287 20.5385L35.7985 20.2075L35.5713 19.7219L35.3569 19.3107L35.1248 18.9836L34.5961 18.3903L34.2887 18.0966L33.5641 17.5963L32.7378 17.2702L32.3354 17.0636L31.414 16.9119L30.0217 17.1028L24.4193 17.9879L18.8178 18.8897L17.4305 19.1413L17.0202 19.1178L16.1723 19.5564L15.4243 20.1693L14.8055 20.9321L14.5333 21.0564L14.126 21.9131L13.939 22.1187L13.7696 22.995L13.6629 23.2046L13.5845 23.4748L13.6991 24.1572L13.6736 24.3207L13.6658 24.5029L13.6736 24.6977L13.6991 24.8974L13.7392 25.0942L13.7931 25.2803L13.7696 25.6778L13.8988 26.0087L14.0457 26.2917L14.2063 26.5169L14.5725 27.2316L14.8143 27.4617L15.4086 28.1187L16.1331 28.619L16.4954 28.805L17.3619 29.1526L18.2833 29.3044L18.6935 29.3289L20.0887 29.137L25.6921 28.2519L31.2926 27.3501L32.6771 27.0985L33.055 26.9261L33.8814 26.4973L34.5942 25.9L34.8752 25.5936L35.4029 24.8984L35.5997 24.5107L35.913 23.793L36.0276 23.4004L36.0981 22.9353L36.1617 22.4203L36.1783 22.0629L36.1617 21.6811Z" fill="white"/>
<path id="Vector_17" d="M20.379 29.1639C20.8002 28.8357 21.1218 28.3968 21.3081 27.8963C21.4943 27.3958 21.5379 26.8535 21.4338 26.3297C21.3199 24.9064 20.7365 23.5614 19.7753 22.5056C18.9982 21.5142 18.3446 20.4261 17.574 19.2887C18.3506 19.1439 19.0128 19.0098 19.6787 18.8985C21.2742 18.6319 22.8707 18.3715 24.4682 18.1173C26.0693 17.8636 27.6715 17.617 29.2748 17.3773C29.805 17.2971 30.3452 17.2677 30.8679 17.1554C31.385 17.0683 31.9143 17.0873 32.4238 17.211C32.9333 17.3346 33.4125 17.5606 33.832 17.8751C34.5602 18.3307 35.1645 18.9594 35.5908 19.7053C36.017 20.4512 36.252 21.2909 36.275 22.1497C36.2979 23.0084 36.1078 23.8595 35.722 24.6271C35.3361 25.3946 34.7662 26.0547 34.0632 26.5485C33.2994 27.0476 32.426 27.3542 31.5178 27.4422C27.9246 28.0126 24.3318 28.586 20.7395 29.1623C20.6195 29.1699 20.4991 29.1704 20.379 29.1639Z" fill="#B6DBA8"/>
<path id="Vector_18" d="M18.6937 29.9156L18.6593 29.9146L18.2491 29.8901L17.2662 29.732C17.224 29.7248 17.1826 29.7132 17.1428 29.6975L15.8645 29.1415L15.0746 28.6008L14.696 28.2504L14.1338 27.6227L13.8612 27.245L13.2226 25.8906L13.0084 25.0444L12.9319 24.1785L13.016 23.2081L13.0897 22.7262L13.2207 22.2572L13.7704 21.0515C13.7865 21.0198 13.8053 20.9897 13.8268 20.9616L14.6702 19.9175L15.438 19.2678C15.4711 19.2406 15.507 19.2168 15.5451 19.197L16.7776 18.5817C16.8214 18.5617 16.8677 18.5472 16.9153 18.5388L18.2998 18.2868L30.9248 16.3047C30.9626 16.2997 31.0007 16.2981 31.0387 16.2999L31.4489 16.3243L32.4309 16.4835C32.4728 16.4901 32.5139 16.5015 32.5533 16.5174L33.8326 17.0729L34.6224 17.6132L35.0011 17.9645L35.8358 18.9699L36.4754 20.3239L36.6887 21.1715L36.7652 22.0374L36.681 23.0078L36.6093 23.4873L36.4773 23.9573L35.9276 25.163C35.9117 25.195 35.8927 25.2253 35.8711 25.2538L35.0268 26.297L34.26 26.9462C34.2269 26.9738 34.191 26.9979 34.1529 27.0179L32.9213 27.6323C32.8772 27.6525 32.8305 27.6671 32.7827 27.6758L31.3982 27.9278L18.773 29.9099C18.7468 29.9136 18.7203 29.9156 18.6937 29.9156ZM17.5195 28.5827L18.6679 28.7385L20.0074 28.5549L32.5006 26.5327L33.5543 26.0049L34.216 25.4498L34.4416 25.196L34.9035 24.586L35.3749 23.5572L35.4638 23.2354L35.591 22.0354L35.5298 21.3614L35.3643 20.7016L34.8356 19.5815L34.6453 19.3238L33.8833 18.5216L32.9338 17.9321L32.1775 17.6324L31.0301 17.4761L29.6886 17.6597L17.1973 19.6818L16.1437 20.2096L15.481 20.7651L15.2554 21.0185L14.7955 21.6285L14.3231 22.6574L14.2343 22.9796L14.1061 24.1805L14.1673 24.8546L14.3337 25.5129L14.8615 26.6335L15.0517 26.8911L15.8148 27.6924L16.7642 28.2825L17.5195 28.5827Z" fill="#5DA845"/>
<path id="Vector_19" d="M51.923 7.05247L51.8926 5.6122L51.592 4.68695L51.1054 3.83709L50.4494 3.0959L49.6514 2.4918L49.5702 2.29696L48.6841 1.91315L48.5529 1.78488L47.656 1.64585L47.5532 1.5871L47.4181 1.53521L47.2575 1.49409L47.0754 1.46374L46.8796 1.44709L46.6779 1.44318L46.4782 1.45297L46.2882 1.47647L46.1149 1.51073L45.9641 1.55675L45.8437 1.61256L45.7566 1.67424L44.8264 1.84069L44.7275 1.97189L43.8267 2.38214L43.0366 2.95785L42.3884 3.67456L42.3414 3.96829L41.8538 4.83284L41.5542 5.7669L41.5239 7.20814L41.5151 13.0172L41.5239 18.8252L41.5542 20.2655L41.8538 21.1907L41.989 21.5148L42.4629 22.3324L43.1002 23.0295L43.3431 23.2655L44.0666 23.7668L44.3594 23.9362L44.7432 24.082L45.359 24.3102L45.6763 24.3914L46.0327 24.4502L46.4165 24.4835L46.8111 24.4913L47.2027 24.4717L47.5767 24.4267L47.9174 24.3582L48.2112 24.2681L48.8838 24.0204L49.2285 23.8627L49.9119 23.3888L50.2291 23.1627L50.845 22.4881L51.0584 22.2031L51.5401 21.3719L51.8368 20.4574L51.8926 20.1118L51.923 18.6705L51.9318 12.8615L51.923 7.05247Z" fill="white"/>
<path id="Vector_20" d="M47.9403 24.446C48.2366 24.1109 48.4627 23.7196 48.6049 23.2954C48.7471 22.8712 48.8027 22.4228 48.7682 21.9767C48.7617 18.6514 48.7825 15.326 48.7726 12.0007C48.7687 10.7066 48.7465 9.41057 48.6658 8.1195C48.545 7.08238 48.1632 6.09286 47.5558 5.24349C47.0032 4.3702 46.3566 3.55645 45.7529 2.71543C45.6946 2.63355 45.6423 2.54769 45.596 2.45847C45.2736 1.84214 45.3631 1.74774 46.0389 1.65974C47.1555 1.46545 48.3049 1.6495 49.3051 2.18271C50.0889 2.55178 50.7543 3.13206 51.2266 3.85839C51.699 4.58471 51.9594 5.42829 51.9788 6.29443C52.0275 10.8851 52.0144 15.4768 51.9678 20.0674C51.9325 20.7283 51.7489 21.3728 51.4306 21.9531C51.1124 22.5332 50.6675 23.0344 50.1291 23.4192C49.502 23.9473 48.7472 24.3013 47.9403 24.446Z" fill="#B6DBA8"/>
<path id="Vector_21" d="M46.8401 25.0765L45.9825 25.034L45.2136 24.8781L44.1504 24.4838L43.7727 24.2744L43.0088 23.748C42.9815 23.7294 42.9559 23.7085 42.9323 23.6853L42.6903 23.4496L42.0287 22.7273C42.0004 22.6959 41.9755 22.6618 41.954 22.6255L41.4808 21.8079L41.3125 21.4164L40.996 20.4458C40.9779 20.3914 40.9682 20.3345 40.9674 20.2771L40.9368 18.8367L40.9282 13.0165L40.9674 5.75356L41.0295 5.32667L41.3479 4.32419C41.3605 4.28481 41.3771 4.24683 41.3976 4.21089L42.1309 3.03672L42.7849 2.31817C42.8127 2.28768 42.8434 2.26012 42.8767 2.23592L43.8836 1.53171C43.9123 1.51157 43.9426 1.49413 43.9744 1.4796L44.3187 1.32231L45.358 0.957551L46.1726 0.822263L46.6068 0.799744L47.4654 0.842298L48.2332 0.998147L49.2965 1.39256L49.6742 1.60196L50.4381 2.12785C50.4655 2.14647 50.4911 2.16761 50.5146 2.19096L50.7566 2.42719L51.4182 3.1491C51.4461 3.18028 51.4708 3.21424 51.4918 3.25045L51.966 4.06747L52.1353 4.46046L52.4518 5.43095C52.4691 5.48541 52.4784 5.54208 52.4795 5.59923L52.5101 7.03974V7.05112L52.5197 12.8593L52.4795 20.1227L52.4174 20.5496L52.0989 21.5521C52.0863 21.5915 52.0697 21.6295 52.0492 21.6654L51.3159 22.8391L50.6618 23.5582C50.6342 23.5886 50.6035 23.6162 50.57 23.6404L49.5651 24.3446C49.5361 24.3646 49.5054 24.382 49.4733 24.3968L49.1282 24.554L48.0899 24.9188L47.2743 25.0541L46.8401 25.0765ZM43.7163 22.809L44.6543 23.4262L45.8227 23.8217L46.4672 23.8972L46.8229 23.9024L47.802 23.781L48.9359 23.3507L49.8367 22.7197L50.5883 21.8505L51.0004 21.1315L51.3121 20.0176L51.336 18.6565L51.3455 12.8593L51.3073 5.71012L50.9162 4.58807L50.5089 3.8963L49.7306 3.06683L48.7926 2.45011L47.6251 2.05474L46.9787 1.97876L46.625 1.97399L45.6469 2.09493L44.5118 2.52569L43.6102 3.15675L42.8587 4.02542L42.4465 4.74445L42.1348 5.85882L42.111 7.2194L42.1024 13.0166L42.1397 20.1658L42.5317 21.2874L42.938 21.9806L43.7163 22.809Z" fill="#5DA845"/>
<path id="Vector_22" d="M65.3968 16.4748L65.2529 15.4752L65.1354 15.3224L64.8319 14.4226L64.6977 14.2719L64.5146 14.0809L64.2904 13.8577L64.0731 13.328L63.9419 13.2017L63.7989 13.0676L63.6501 12.9315L63.5003 12.7983L63.3564 12.674L62.8854 12.5741L62.623 12.3548L62.3929 12.1687L62.202 12.0228L61.3179 11.8388L61.1103 11.6948L60.1243 11.6625L59.1403 11.83L58.9445 11.7242L57.9791 12.0728L57.0969 12.6044L56.3323 13.2986L56.2441 13.3065L55.6293 14.1367L55.1877 15.0708L54.938 16.0734L54.8822 17.1161L54.9243 18.293L55.0251 19.6138L55.1632 21.0521L55.3091 22.5159L55.3101 22.5247L55.314 22.5286L55.3169 22.5316L55.3218 22.5355L55.3267 22.5394L55.3375 22.5482L55.3434 22.5531L55.3502 22.558L55.3551 22.5619L55.36 22.5658L55.362 22.5668L55.3659 22.5707L55.3678 22.5717L56.6857 22.4317L57.9938 22.3211L59.2324 22.2241L60.3652 22.1204L60.4269 22.1145L61.4598 21.95L62.434 21.6014L63.3211 21.0688L64.0868 20.3746L64.7016 19.5443L65.1422 18.6103L65.3929 17.6086L65.34 17.4882L65.3968 16.4748Z" fill="white"/>
<path id="Vector_23" d="M61.2061 22.0752C61.4448 21.9201 61.6436 21.7111 61.7864 21.465C61.9292 21.2187 62.0121 20.9425 62.0282 20.6583C62.2261 19.2828 62.0887 17.8797 61.6275 16.5687C61.0742 15.2625 60.3796 14.0206 59.5561 12.8654C59.3905 12.5755 59.2742 12.2577 59.1072 11.8911C60.0251 11.6756 60.9842 11.7122 61.8831 11.9971C62.7819 12.2821 63.587 12.8047 64.213 13.5096C64.8391 14.2147 65.2628 15.0759 65.4395 16.002C65.6163 16.9283 65.5392 17.885 65.2165 18.771C64.904 19.6296 64.3672 20.3889 63.662 20.97C62.9566 21.551 62.1087 21.9326 61.2061 22.0752Z" fill="#B6DBA8"/>
<path id="Vector_24" d="M55.3678 23.1597C55.2765 23.1597 55.1865 23.1384 55.1049 23.0975C55.0738 23.0817 55.0441 23.0635 55.0159 23.0429C54.997 23.0296 54.9787 23.015 54.9615 22.9995L54.949 22.989C54.8866 22.9399 54.8347 22.8788 54.7964 22.8092C54.7581 22.7397 54.7342 22.6631 54.7262 22.584L54.338 18.3382L54.2941 17.1387L54.3524 16.042C54.3539 16.005 54.3595 15.9683 54.3686 15.9326L54.6172 14.9305C54.626 14.8926 54.6391 14.8558 54.6564 14.821L55.0982 13.8869C55.1146 13.8522 55.1342 13.819 55.1564 13.7878L55.7723 12.9574C55.7954 12.9267 55.8214 12.8983 55.8496 12.8724L56.6156 12.1782C56.6442 12.1522 56.6753 12.1292 56.7083 12.1093L57.5947 11.5772C57.6277 11.5573 57.6626 11.5409 57.6989 11.5279L58.6733 11.179C58.7095 11.1659 58.7469 11.1566 58.7851 11.1512L59.8101 10.9987C59.868 10.9879 59.9271 10.9839 59.986 10.9867L61.0072 11.0374C61.0462 11.0393 61.085 11.0451 61.123 11.0546L62.1135 11.3061C62.1514 11.3156 62.1884 11.329 62.2235 11.3463L63.1432 11.7885C63.1873 11.8101 63.2301 11.8342 63.2714 11.8607C63.2762 11.864 63.3049 11.8836 63.3298 11.9013C63.3421 11.9094 63.3546 11.9181 63.3661 11.9271L64.0659 12.4694L64.6129 13.0387L64.6167 13.0425L64.7869 13.2251C64.7984 13.2376 64.8491 13.304 64.8596 13.3179L65.4142 14.2224C65.4266 14.243 65.462 14.3195 65.4725 14.3414L65.8397 15.3569C65.853 15.393 65.8627 15.4303 65.8683 15.4682L66.0223 16.4894C66.0281 16.5276 66.0299 16.5662 66.028 16.6047L65.9792 17.6365C65.9774 17.675 65.9716 17.7132 65.9621 17.7506L65.7125 18.7528C65.7031 18.79 65.6903 18.8263 65.6742 18.8612L65.2335 19.7959C65.2167 19.8306 65.1969 19.8638 65.1742 19.8949L64.5594 20.7248C64.5361 20.7559 64.5098 20.7848 64.4809 20.8108L63.7142 21.5055C63.686 21.5313 63.6552 21.5543 63.6224 21.5739L62.7361 22.1056C62.703 22.1254 62.6681 22.1419 62.6318 22.1548L61.6575 22.5038C61.6233 22.5161 61.5881 22.5252 61.5523 22.531L60.5196 22.6955C60.5063 22.6974 60.4317 22.7045 60.4183 22.706L55.43 23.1564C55.4094 23.1587 55.3886 23.1597 55.3678 23.1597ZM55.5218 16.1616L55.4673 17.1492L55.5112 18.2718L55.8411 21.9309L60.3112 21.5356L61.3142 21.3788L62.1814 21.0681L62.9683 20.5957L63.6491 19.979L64.195 19.2423L64.5862 18.4123L64.808 17.5231L64.851 16.607L64.7142 15.7006L64.3844 14.7822L63.7858 13.872L63.7601 13.8457L63.2791 13.3376L62.6509 12.8595L62.6489 12.8576L61.7664 12.4301L60.8906 12.2078L59.9286 12.16L59.0174 12.304L58.1492 12.6148L57.3624 13.087L56.6815 13.7038L56.1355 14.4414L55.7435 15.2704L55.5218 16.1616Z" fill="#5DA845"/>
<path id="Vector_25" d="M36.6633 7.24259L36.4871 6.42113L36.117 5.65938L35.9035 5.14046L35.3493 4.45705L34.6454 3.90876L34.285 3.52201L33.4783 3.15191L32.5941 2.96784L31.665 2.97469L31.3086 2.80237L30.4479 3.03931L30.1033 2.99231L29.7068 3.03539L29.1144 3.46228L28.8168 3.55334L28.5054 3.70217L28.1921 3.90288L27.8895 4.14766L27.6085 4.42768L27.3608 4.7312L27.1552 5.04744L26.9995 5.36369L26.9006 5.66819L26.4933 6.23705L26.4365 6.64534L26.2035 7.3924L26.2456 7.84768L26.2211 8.69754L26.3974 9.51803L26.5981 10.0076L26.9809 10.7997L27.5341 11.4831L27.9023 11.8777L28.5994 12.4181L29.0929 12.658L29.8703 13.0134L30.7084 13.1759L31.2244 13.2464L32.0233 13.2043L32.5276 13.1495L33.3187 13.0056L34.2087 12.7892L35.1839 12.5248L36.1923 12.2448L36.1972 12.2438L36.2021 12.2409L36.208 12.237L36.2129 12.2331L36.2188 12.2282L36.2227 12.2223L36.2266 12.2164L36.2296 12.2096L36.2315 12.2037L36.2325 12.1978L36.3324 11.2569L36.4479 10.4031L36.5331 9.80295L36.5889 9.39565L36.6897 8.55459L36.7122 7.77816L36.6633 7.24259Z" fill="white"/>
<path id="Vector_26" d="M33.0354 13.1047C33.2968 12.7639 33.4882 12.3749 33.5984 11.9597C33.7085 11.5447 33.7352 11.1119 33.6772 10.6864C33.6054 8.95689 32.9975 7.29266 31.9376 5.92411C31.3542 5.15295 30.7491 4.39802 30.1529 3.63647C29.8843 3.29333 29.9704 3.08986 30.3911 3.00325C31.1309 2.8265 31.9009 2.81702 32.6449 2.97553C33.3889 3.13402 34.0881 3.45649 34.6917 3.91945C35.5164 4.53232 36.1459 5.37117 36.5038 6.33448C36.8616 7.29768 36.9325 8.34409 36.7079 9.34682C36.5728 10.2294 36.4806 11.1185 36.3538 12.0026C36.3356 12.1294 36.2559 12.3244 36.164 12.3519C35.1544 12.6524 34.1368 12.9258 33.1212 13.2067L33.0354 13.1047Z" fill="#B6DBA8"/>
<path id="Vector_27" d="M31.224 13.8329C31.1976 13.8328 31.1712 13.831 31.1449 13.8277L29.7583 13.5895C29.7124 13.5808 29.6679 13.5665 29.6254 13.547L28.3423 12.9465C28.3055 12.9285 28.2706 12.907 28.238 12.882L27.541 12.3413L27.1041 11.8823L26.5236 11.169C26.4949 11.134 26.4704 11.0957 26.451 11.0547L25.8534 9.74047C25.84 9.70816 25.8294 9.67474 25.8218 9.6406L25.646 8.81925L25.5866 8.21392L25.6162 7.36773L25.6927 6.79214C25.6979 6.75762 25.7058 6.72348 25.7167 6.69031L26.0809 5.60314L26.3353 5.07638L26.668 4.55619L27.0648 4.06424L27.5123 3.61341L27.998 3.21708L28.5057 2.8877L29.022 2.63671L30.1933 2.23512C30.2287 2.22432 30.2648 2.21678 30.3014 2.2126L31.6228 2.10694C31.6613 2.10392 31.7003 2.1052 31.7386 2.11077L33.1249 2.34885C33.1708 2.35758 33.2154 2.37186 33.2578 2.39139L34.541 2.99282C34.5778 3.01046 34.613 3.03192 34.6453 3.05689L35.3423 3.59759C35.3671 3.61716 35.3904 3.63858 35.412 3.66165L35.7792 4.05607L36.3586 4.76936C36.3875 4.80448 36.412 4.84301 36.4314 4.88409L37.0289 6.19733C37.0423 6.22952 37.0529 6.26281 37.0605 6.29683L37.2375 7.11818L37.2966 7.72437L37.2765 8.57056L36.8168 12.2595C36.8128 12.2989 36.8046 12.3378 36.7928 12.3757C36.7833 12.3972 36.7392 12.5033 36.7269 12.5234C36.7095 12.5514 36.6905 12.5783 36.6696 12.6037C36.6387 12.6403 36.604 12.6734 36.5662 12.7027C36.5024 12.7423 36.4356 12.7769 36.3664 12.806L33.4578 13.5757L32.0875 13.7879L31.2548 13.8318L31.224 13.8329ZM30.051 12.4493L31.248 12.6558L32.4633 12.5645L33.2138 12.4268L35.6874 11.7747L36.1062 8.48415L36.1245 7.76072L36.0776 7.29515L35.9236 6.59717L35.4035 5.45652L34.5849 4.49743L33.973 4.0227L32.8323 3.48917L31.6382 3.28311L30.4851 3.3749L29.4801 3.71721L29.0747 3.91274L28.6836 4.16852L28.2964 4.48595L27.935 4.85121L27.6156 5.24748L27.3546 5.65576L27.1633 6.05401L26.8498 7.00497L26.7856 7.472L26.7588 8.18479L26.8057 8.64326L26.9597 9.34173L27.1404 9.78453L27.4788 10.4815L28.3318 11.4769L28.9074 11.9148L30.051 12.4493Z" fill="#5DA845"/>
</g>
</svg>
