<svg width="85" height="86" viewBox="0 0 85 86" fill="none" xmlns="http://www.w3.org/2000/svg">
<g clip-path="url(#clip0_1_1030)">
<path d="M81.8377 32.0977L81.6763 31.0075L81.5745 30.6727L81.3355 29.8729L81.0168 29.3657L80.6366 28.8906L80.1283 28.4207L79.5534 27.9991L78.9786 27.5776L78.4047 27.156L77.8309 26.7354L77.256 26.3139L76.6811 25.8923L76.1073 25.4708L75.5324 25.0502L74.9586 24.6286L74.3837 24.2071L73.8089 23.7855L73.235 23.365L72.6612 22.9434L72.0863 22.5218L71.5115 22.1003L70.9376 21.6797L70.3628 21.2582L69.7889 20.8366L69.2141 20.415L68.6392 19.9945L68.0654 19.5729L67.4915 19.1514L66.9509 18.8518L66.4326 18.6542L65.9656 18.5927H65.3676L64.7292 18.6945L64.0908 18.7964L63.4514 18.8982L62.813 19.0001L62.1746 19.102L61.5352 19.2038L60.8968 19.3057L60.2584 19.4075L59.619 19.5094L58.9806 19.6113L58.3422 19.7131L57.7028 19.815L57.0644 19.9168L56.426 20.0187L55.7876 20.1206L55.1482 20.2224L54.5098 20.3243L53.8715 20.4261L53.3016 20.6117L52.871 20.9667L52.5886 21.2239L52.4283 21.6081L52.2094 22.1689L52.0491 23.1744L51.9956 24.5026V25.9922V27.4828V28.9723V30.4629V31.9525V33.4431V34.9327V36.4233V37.9129V39.4035V40.893V42.3826V43.8732V45.3638V46.8534V48.343V49.8336V51.3232L52.0491 52.6806L52.2094 53.7708L52.4283 54.4455L52.5513 54.9054L52.87 55.4127L53.2502 55.8877L53.7585 56.3577L54.3334 56.7792L54.9072 57.2008L55.4811 57.6224L56.0559 58.0429L56.6308 58.4645L57.2056 58.886L57.7795 59.3076L58.3533 59.7282L58.9282 60.1497L59.503 60.5713L60.0769 60.9928L60.6507 61.4134L61.2256 61.8349L61.8004 62.2565L62.3753 62.6781L62.9491 63.0986L63.523 63.5202L64.0978 63.9418L64.6727 64.3633L65.2465 64.7839L65.8204 65.2054L66.3953 65.627L66.9348 65.9265L67.4532 66.1252L67.9211 66.1857H68.5182L69.1576 66.0838L69.796 65.982L70.3648 65.7964L70.7954 65.4414L71.0778 65.1853L71.2402 64.8L71.457 64.2393L71.6174 63.2348L71.6254 63.0452L74.657 62.5611L74.891 62.7325L75.4659 63.1541L76.0407 63.5757L76.6156 63.9972L77.1551 64.2967L77.6725 64.4944L78.1405 64.5559H78.7375L79.3769 64.4541L80.0153 64.3522L80.5851 64.1666L81.0147 63.8116L81.2971 63.5545L81.4585 63.1702L81.6763 62.6095L81.8377 61.604L81.8912 60.2758V58.7862V57.2956V55.806V54.3154V52.8258V51.3353V49.8457V48.3551V46.8655V45.3749V43.8853V42.3957V40.9051V39.4156V37.925V36.4354V34.9448V33.4552L81.8377 32.0977Z" fill="white"/>
<path d="M68.4404 66.3166C68.7069 66.0496 68.9119 65.7277 69.0409 65.3732C69.17 65.0189 69.22 64.6405 69.1876 64.2647C69.2404 54.475 69.2742 44.6852 69.289 34.8953C69.3427 33.4541 68.9224 32.035 68.0925 30.8555C67.5001 30.1587 66.8044 29.557 66.0296 29.0714C62.9889 26.8096 59.9284 24.5743 56.8735 22.3316C56.1375 21.7913 55.395 21.2596 54.522 20.6272C54.832 20.514 55.1491 20.4219 55.4715 20.3511C56.1192 20.2614 56.7766 20.2378 57.4216 20.1342C58.0732 20.0294 58.7105 19.8357 59.3619 19.7278C59.87 19.6437 60.3924 19.6486 60.9041 19.5805C61.2103 19.5398 61.505 19.4164 61.8105 19.3641C62.0811 19.3179 62.3638 19.3417 62.6339 19.2933C63.0022 19.2274 63.3613 19.1107 63.7285 19.0368C64.1548 18.9512 64.5847 18.8815 65.0149 18.8173C65.5772 18.74 66.1494 18.7797 66.6958 18.9338C67.2422 19.088 67.7507 19.3532 68.1898 19.7129C72.0416 22.5621 75.8924 25.4134 79.7865 28.204C80.481 28.6916 81.0419 29.3456 81.4179 30.1063C81.7939 30.867 81.9729 31.7098 81.9385 32.5578C81.9841 36.7257 81.9803 40.8943 81.9797 45.0628C81.9788 50.4848 81.9645 55.9069 81.9369 61.3289C81.9072 61.9368 81.7979 62.5383 81.6118 63.1177C81.514 63.467 81.3154 63.7798 81.041 64.017C80.7666 64.2542 80.4283 64.4053 80.0685 64.4514C79.6417 64.5374 79.2083 64.591 78.7196 64.6684C79.2577 63.9895 79.5156 63.1307 79.4406 62.2676C79.4932 52.8851 79.5369 43.5023 79.5223 34.1198C79.6078 32.9578 79.4614 31.7903 79.0918 30.6853C78.65 29.5712 77.8954 28.6085 76.9189 27.9137C74.9579 26.5191 73.0345 25.0718 71.088 23.6567C69.5303 22.5239 67.9938 21.3565 66.382 20.3055C65.6647 19.8727 64.8805 19.5617 64.0614 19.3854C63.5383 19.3096 63.0059 19.4354 62.5721 19.7373C62.1382 20.0393 61.8353 20.4947 61.7244 21.0116C61.6565 21.342 61.5493 21.663 61.4055 21.9679C61.2252 22.3399 61.3828 22.3744 61.6925 22.3402C62.2737 22.2299 62.8643 22.1781 63.4557 22.1854C63.9509 22.2393 64.424 22.4192 64.8301 22.7078C68.6967 25.5101 72.5479 28.3338 76.3834 31.1789C76.4732 31.2535 76.547 31.3456 76.6004 31.4496C76.6536 31.5535 76.6853 31.6672 76.6936 31.7837C76.7085 41.829 76.7163 51.8743 76.7168 61.9196C76.7173 62.3104 76.5889 62.9132 76.276 62.9611C74.8989 63.1721 73.4839 62.8798 72.1054 63.0805C71.8171 63.1225 71.7205 63.2176 71.6829 63.508C71.62 63.9408 71.5208 64.3674 71.3861 64.7832C71.291 65.1002 71.111 65.3851 70.8658 65.6072C70.6205 65.8293 70.3192 65.9801 69.9943 66.0434C69.5129 66.1629 69.0155 66.2181 68.4404 66.3166Z" fill="#8FB8E2"/>
<path d="M60.4249 20.1861L66.9359 18.2164L81.4586 29.2143V64.5589L77.4205 64.2402L76.2728 63.2146L76.6177 30.7029L60.7608 21.9671L60.4249 20.1861Z" fill="#8FB8E2"/>
<path d="M68.0904 66.793C67.832 66.7953 67.5741 66.7692 67.3212 66.7152C66.5383 66.4357 65.8113 66.0192 65.1742 65.4851L56.2718 58.9514C55.8828 58.651 55.4819 58.3653 55.0781 58.0778C54.2934 57.5445 53.5442 56.9606 52.8356 56.3296C52.5292 55.973 52.2544 55.5904 52.0141 55.1861C51.9236 54.9517 51.8477 54.7119 51.7867 54.4681C51.7345 54.277 51.6852 54.0909 51.6478 53.9944C51.4853 53.1148 51.3989 52.2228 51.3897 51.3284V46.851C51.4055 43.794 51.3967 40.725 51.3868 37.6532C51.3721 32.8943 51.3563 27.9738 51.4429 23.1627L51.6114 22.0725C51.6219 22.0101 51.6419 21.9497 51.6705 21.8932C51.7079 21.8183 51.7611 21.6687 51.8182 21.516C51.8866 21.3187 51.9657 21.1253 52.0556 20.9369C52.0715 20.906 52.0903 20.8766 52.1117 20.8493C52.27 20.6702 52.4482 20.5096 52.6426 20.3706C52.7341 20.2987 52.8228 20.2327 52.8769 20.1795C52.9335 20.1232 53.0008 20.0791 53.075 20.0495C53.6188 19.8613 54.1821 19.7341 54.7542 19.6703L63.9952 18.1979C65.7591 17.8729 66.7657 17.7646 68.442 19.0981L79.9109 27.5109C80.4727 27.8408 80.9619 28.2807 81.3497 28.8041C81.7374 29.3275 82.0154 29.9238 82.1674 30.5571C82.4473 31.7608 82.557 32.9976 82.4934 34.2318L82.4953 58.7848C82.4913 59.0478 82.4924 59.3118 82.4934 59.5826C82.6162 61.0331 82.3889 62.4919 81.8305 63.8364C81.794 63.9064 81.7438 63.9684 81.6828 64.0186C81.6079 64.0816 81.5242 64.1574 81.4366 64.2353C81.2702 64.3859 81.0928 64.5425 80.9401 64.6538L80.9333 64.644C80.6995 64.7618 80.4548 64.8564 80.2025 64.9266L79.8116 64.9976C79.0669 65.1684 78.2969 65.1982 77.5414 65.0852C76.6584 64.752 75.8399 64.2682 75.1225 63.6551C74.9176 63.4985 74.7138 63.3429 74.5109 63.1971L72.1728 63.5684L72.0535 64.3346C72.0435 64.3955 72.0246 64.4545 71.9974 64.51C71.959 64.5859 71.9059 64.7345 71.8497 64.8861C71.781 65.0843 71.7013 65.2787 71.6114 65.4682C71.5761 65.5351 71.5282 65.5946 71.4705 65.6435L71.2578 65.8306C71.0806 65.9892 70.8845 66.1615 70.727 66.2798C70.6743 66.3194 70.6153 66.35 70.5526 66.3704L69.9834 66.5565L69.5865 66.6284C69.0932 66.7243 68.5928 66.7793 68.0904 66.793ZM52.7942 22.3443L52.6455 23.2691C52.5667 27.9838 52.5824 32.8973 52.5972 37.6494C52.6061 40.7242 52.616 43.797 52.5992 46.8551L52.6002 48.9214L52.5992 51.3234C52.6081 52.0996 52.6752 52.8739 52.8001 53.6399C52.8605 53.8068 52.9118 53.9767 52.9538 54.1491C53.0099 54.3539 53.0651 54.5657 53.1094 54.674C53.2948 54.9621 53.4974 55.2386 53.7161 55.5024C54.3719 56.0728 55.0612 56.6037 55.7804 57.0919C56.1971 57.3893 56.6107 57.6838 57.0008 57.9852L65.8992 64.515C66.4144 64.9493 66.9968 65.297 67.6237 65.5442C68.2137 65.6061 68.8099 65.5692 69.3876 65.4349L69.7018 65.3837L70.0731 65.2556C70.1923 65.1601 70.3282 65.0389 70.4543 64.9266L70.5843 64.8124C70.6236 64.7188 70.669 64.5898 70.7152 64.4657C70.7705 64.3159 70.8255 64.1702 70.8708 64.0638L71.0196 63.138L71.0216 63.0937C71.0174 63.0481 71.0188 63.0021 71.0255 62.9568C71.0905 60.6758 71.0787 58.2264 71.0668 55.8559C71.06 54.3815 71.0531 52.914 71.0658 51.4702V37.2484C71.0688 36.0893 71.0717 34.7744 71.0136 33.762C70.9369 33.4448 70.6375 32.0108 70.6375 32.0108C70.41 31.1422 69.4724 30.4665 68.645 29.8707L59.3221 23.0356C59.184 22.946 59.0836 22.8086 59.0405 22.6496C59.0154 22.5612 59.01 22.4683 59.0246 22.3777C59.0392 22.287 59.0735 22.2005 59.1252 22.1247C59.274 21.9395 59.274 21.9395 61.3047 21.6174C62.0405 21.5011 62.7426 21.3898 62.8372 21.3732C62.8812 21.3656 62.9257 21.3621 62.9702 21.3623C63.0447 21.3616 63.1192 21.3673 63.1928 21.3791L63.3887 21.4047C63.5865 21.4147 63.7823 21.4503 63.9708 21.511C64.7214 21.7927 64.7961 21.8331 64.9045 21.9444L76.9761 30.7886C77.0529 30.8446 77.1153 30.9179 77.1583 31.0027C77.2013 31.0875 77.2236 31.1812 77.2233 31.2761V63.6365C77.4262 63.7503 77.6392 63.8448 77.8596 63.9191C78.4463 63.9778 79.0388 63.9389 79.6128 63.8039L79.92 63.7536L80.2943 63.6246C80.4007 63.5409 80.5168 63.4355 80.6281 63.335C80.6901 63.2789 80.7521 63.2237 80.8104 63.1725C81.22 62.0241 81.3811 60.8019 81.2831 59.5866C81.2821 59.3079 81.2811 59.0351 81.286 58.775L81.2831 34.2298C81.3414 33.0952 81.2447 31.9581 80.9955 30.8497C80.8727 30.3583 80.6518 29.8969 80.3458 29.4932C80.04 29.0895 79.6556 28.7519 79.2158 28.5008L67.7063 20.0593C66.4201 19.0351 65.8774 19.0813 64.2002 19.3906L54.9344 20.8669C54.489 20.9207 54.0489 21.0114 53.6186 21.1377C53.5516 21.1949 53.4718 21.2588 53.3881 21.3239C53.3005 21.3918 53.1636 21.4992 53.0946 21.5642C53.0533 21.6577 53.003 21.7995 52.9528 21.9364C52.8967 22.0882 52.8395 22.2358 52.7942 22.3443ZM74.6567 61.9563C74.7778 61.9559 74.8963 61.9923 74.9964 62.0606C75.2831 62.2547 75.5686 62.4723 75.8572 62.6929C75.9094 62.7332 75.9616 62.7727 76.0139 62.8121V31.5824L64.1135 22.8544C64.0652 22.8367 63.752 22.7214 63.6023 22.6653L63.5777 22.6564L63.2142 22.6023C63.1385 22.5915 63.0685 22.5806 63.0114 22.5708H62.9877C62.7779 22.6091 62.3653 22.6752 61.4947 22.8131C61.3765 22.8318 61.2583 22.8504 61.1411 22.8692L69.3521 28.8888C70.478 29.5232 71.3487 30.5289 71.8153 31.7341C71.8212 31.7627 72.1206 33.1908 72.2092 33.5995C72.2821 34.741 72.2792 36.0745 72.2762 37.2504L72.2752 51.4751C72.2634 52.9189 72.2702 54.3815 72.2772 55.8499C72.287 57.9871 72.2979 60.1873 72.2477 62.3314L74.5611 61.9631C74.5927 61.9584 74.6246 61.9561 74.6567 61.9563Z" fill="#0055BA"/>
<path d="M43.7246 18.3126L43.7014 18.004L43.3797 17.5219L43.0872 17.2063L42.4407 16.8957L42.0161 16.584L41.5915 16.2734L41.168 15.9618L40.7434 15.6501L40.3188 15.3395L39.8942 15.0279L39.4696 14.7162L39.045 14.4056L38.6215 14.094L38.1969 13.7824L37.7723 13.4717L37.3477 13.1601L36.9231 12.8485L36.4985 12.5378L36.0407 12.2988L34.9918 12.2201L34.1356 12.2776V10.2475V4.88318L34.0387 4.42834L33.7644 4.04611L33.353 3.79297L33.1311 3.48335L32.6914 3.46318L32.2527 3.25845L31.6173 3.12634L30.8841 3.08801L30.163 3.14852L29.5639 3.29879L29.1787 3.51563L28.7228 3.54991L28.5806 3.86457L28.1702 4.12879L27.8948 4.5201L27.799 4.97798V10.3423V13.0139L26.4869 13.2226L24.7624 13.498L23.0378 13.7723L21.3132 14.0476L19.5887 14.3229L18.8061 14.448V12.6921V7.32782L18.7092 6.87297L18.4349 6.49075L18.1747 6.12769L17.8026 5.92901L17.2509 5.67183L16.9232 5.7031L16.2888 5.572L15.5546 5.53266L14.8335 5.59318L14.2344 5.74345L13.8492 5.96028L13.3933 5.99457L13.2511 6.30921L12.8407 6.57445L12.5653 6.96475L12.4695 7.42262V12.7869V15.4585L10.9658 15.6985L9.24121 15.9729L7.51664 16.2482L5.95243 16.5437L4.70793 16.8805L3.78816 17.2638L3.85775 17.4312L3.22541 17.9284L2.90268 18.4982L2.79578 19.1305V19.7921V20.4547V21.1173V21.7789V22.4415V23.1041L2.90268 23.7062L3.19313 24.0168L3.51687 24.5029L3.94145 24.8146L4.36604 25.1252L4.79063 25.4368L5.21419 25.7484L5.63878 26.0591L5.68618 26.0934L5.71341 27.586L5.77896 29.49L5.88788 31.4254L6.06942 33.3819L6.3518 35.3516L6.76429 37.3232L7.33511 39.2908L7.72137 39.7033L8.4697 41.5066L9.44493 43.0244L9.96634 43.4076L10.4877 43.7899L11.0102 44.1731L11.5316 44.5553L12.053 44.9386L12.5754 45.3208L13.705 46.3344L14.2324 46.5744L15.6565 47.0393L17.3558 47.121L18.0164 47.0564V52.6426V61.086V69.5303L18.4188 70.2221L18.8111 71.6563L19.865 72.1958L20.6859 73.0057L21.8861 73.28L23.302 73.3758L24.718 73.28L25.9181 73.0057L26.7209 72.5952L27.793 71.6563L28.1631 71.0199L28.5877 69.5303V61.086V52.6426V45.4559L29.6819 45.2815L31.696 44.9597L33.5688 44.5462L35.1592 43.9482L36.5005 43.096L37.626 41.9191L38.5529 40.4164L39.2962 38.5869L39.868 36.5951L40.2805 34.6043L40.5639 32.6225L40.7454 30.6589L40.8543 28.7185L40.9199 26.8104L40.9521 25.099L42.0444 24.7934L42.6828 24.5049L42.8159 24.4454L43.4059 24.0087L43.7246 23.4964L43.8305 22.8832V22.2216V21.5591V20.8965V20.2349V19.5723V18.9097L43.7246 18.3126Z" fill="white"/>
<path d="M39.4562 38.4776C40.1032 36.4632 40.516 34.3809 40.686 32.2719C40.8493 30.0701 40.9349 27.8622 41.032 25.6559C41.0466 25.3245 41.1145 25.159 41.4645 25.0768C41.9052 24.9701 42.3337 24.818 42.7429 24.6228C43.0725 24.5115 43.3603 24.3026 43.5681 24.0238C43.776 23.7449 43.894 23.4095 43.9066 23.0619C43.9117 21.5744 43.8987 20.087 43.8675 18.5996C43.8471 18.3246 43.7606 18.0587 43.6155 17.8243C43.4706 17.5899 43.271 17.3939 43.0341 17.2529C41.3524 16.0283 39.672 14.8021 37.9928 13.5742C37.1841 12.8272 36.1383 12.3885 35.0386 12.3353C34.766 12.3235 34.4947 12.2902 34.2274 12.2356C34.2274 12.0297 34.2274 11.8433 34.2274 11.657C34.2276 9.55684 34.2195 7.4566 34.232 5.35646C34.2598 4.97097 34.1623 4.58685 33.9543 4.26115C33.7463 3.93544 33.4388 3.68551 33.0774 3.54849C31.9099 3.13815 30.6455 3.09075 29.4505 3.41251C29.332 3.45901 29.2253 3.53144 29.1385 3.62447C29.0516 3.71751 28.9867 3.8288 28.9484 3.9502C28.9126 4.06525 29.1788 4.30868 29.3489 4.44337C29.5185 4.55217 29.7017 4.63791 29.894 4.69831C30.4638 4.90174 31.0206 5.14024 31.561 5.41245C31.7021 5.49654 31.8248 5.60843 31.9215 5.74134C32.0182 5.87427 32.0868 6.02543 32.1232 6.18569C32.2094 7.07059 32.2481 7.9596 32.2388 8.84873C32.2513 11.3249 32.2436 13.8013 32.2421 16.2777C32.2421 16.4442 32.2282 16.6109 32.2209 16.7755C31.1379 16.9825 30.0203 16.9174 28.9687 16.5859C28.2018 16.3436 27.8143 16.2133 27.8786 15.113C27.9157 14.4785 27.8854 13.8401 27.8854 13.1676L18.8979 14.5954V13.9872C18.8979 11.9028 18.8907 9.81817 18.9018 7.73369C18.9211 7.41928 18.8525 7.10576 18.7037 6.82816C18.555 6.55044 18.3317 6.31974 18.0593 6.16176C16.7919 5.56145 15.3437 5.46577 14.0084 5.89412C13.9043 5.93841 13.8113 6.00514 13.7359 6.08952C13.6605 6.17392 13.6046 6.27392 13.5722 6.3824C13.5378 6.49434 13.7283 6.75807 13.8769 6.82879C14.4349 7.09454 15.0187 7.30532 15.5899 7.54383C16.1164 7.76369 16.7377 7.93111 16.8066 8.6145C16.8908 9.45019 16.9054 10.2952 16.9096 11.1363C16.9217 13.644 16.9138 16.1516 16.9138 18.6593V19.2015C15.8139 19.4076 14.6807 19.349 13.6079 19.0305C12.8844 18.7479 12.4871 18.6611 12.5495 17.574C12.5861 16.9373 12.5562 16.2967 12.5562 15.6132C11.1232 15.8401 9.74686 16.0411 8.37704 16.2805C7.31393 16.4664 6.25574 16.6798 5.2026 16.9209C4.64815 17.0472 4.59085 17.329 4.98176 17.736C5.05334 17.8194 5.132 17.8962 5.21697 17.9657C6.00866 18.5412 6.80879 19.1051 7.59594 19.6865C8.60761 20.4338 9.6508 21.1465 10.6004 21.9666C11.1283 22.5088 11.7712 22.9255 12.4818 23.1856C13.5211 23.4822 13.753 24.2773 13.722 25.2447C13.6949 26.0902 13.7158 26.9373 13.7165 27.7835C13.6764 28.414 13.8822 29.0353 14.2906 29.5173C14.9795 29.4128 15.6783 29.323 16.3699 29.1949C16.7108 29.1319 16.8194 29.2313 16.8243 29.5696C16.8439 30.9121 16.8792 32.2544 16.9151 33.5965C16.9402 34.5314 16.9619 35.4668 17.0104 36.4008C17.0927 37.985 17.1574 39.5716 17.3001 41.1508C17.4363 42.6557 17.6799 44.1505 17.8397 45.6536C17.8935 46.1593 18.0489 46.7075 17.5919 47.1549L17.6469 47.2614L25.2839 46.1246C25.2839 46.3857 25.2847 46.5707 25.2838 46.7557C25.2528 53.4751 25.2219 60.1945 25.1913 66.9137C25.1861 68.0735 25.2016 69.2336 25.1867 70.3931C25.17 71.7032 24.9151 72.8913 23.4837 73.461C23.9149 73.4313 24.3487 73.4232 24.7765 73.3684C25.3223 73.3415 25.8573 73.206 26.3502 72.97C26.843 72.734 27.2839 72.4021 27.6471 71.9938C28.0102 71.5853 28.2884 71.1087 28.4652 70.5917C28.642 70.0745 28.7142 69.5274 28.6771 68.9822C28.6811 61.6628 28.6825 54.3435 28.6813 47.0242C28.6815 46.5439 28.5445 45.9079 28.7921 45.6268C29.0431 45.3417 29.6927 45.4098 30.1668 45.3187C31.35 45.0912 32.5347 44.8704 33.7139 44.6238C33.9118 44.5824 34.1788 44.5731 34.1805 44.2143C34.1841 43.419 34.2504 42.6243 34.2629 41.8288C34.2446 41.483 34.3014 41.1373 34.4291 40.8155C34.5568 40.4936 34.7525 40.2032 35.0028 39.9639C35.2531 39.7246 35.5522 39.5424 35.8796 39.4294C36.2068 39.3164 36.5548 39.2755 36.8993 39.3093L39.4562 38.4776Z" fill="#8FB8E2"/>
<path d="M23.344 73.9803L21.845 73.8837L20.5518 73.5962C20.5027 73.5851 20.4552 73.5679 20.4105 73.545L19.6083 73.1343C19.5697 73.1146 19.5334 73.0908 19.5 73.0633C18.9886 72.7501 18.551 72.33 18.2173 71.8318C17.8836 71.3334 17.6619 70.7688 17.5672 70.1767L17.4342 69.6941C17.4193 69.6408 17.4116 69.5858 17.4115 69.5306L17.412 57.4343L17.4115 47.0447C17.4116 46.8843 17.4755 46.7305 17.589 46.6171C17.7025 46.5037 17.8564 46.44 18.0167 46.44C18.0962 46.44 18.1748 46.4555 18.2483 46.4859C18.3217 46.5163 18.3884 46.5608 18.4446 46.617C18.5008 46.6731 18.5453 46.7398 18.5758 46.8132C18.6062 46.8865 18.622 46.9652 18.622 47.0447V69.4488L18.7347 69.8576C18.7949 70.3177 18.96 70.7581 19.2171 71.1445C19.4743 71.5308 19.8167 71.8531 20.218 72.0864L20.8945 72.4331L22.0208 72.6901L23.344 72.7728L24.677 72.6763L25.7082 72.434L26.3784 72.0912L27.32 71.2669L27.6016 70.7824L27.9828 69.4459V45.4561C27.9828 45.2956 28.0465 45.1417 28.16 45.0281C28.2735 44.9146 28.4274 44.8508 28.5879 44.8508C28.7485 44.8508 28.9024 44.9146 29.0159 45.0281C29.1294 45.1417 29.1932 45.2956 29.1932 45.4561V69.5306C29.1932 69.5868 29.1853 69.6428 29.1701 69.697L28.7451 71.1871C28.7314 71.2353 28.7116 71.2817 28.686 71.325L28.3162 71.9612C28.2831 72.0178 28.241 72.0688 28.1916 72.1119L27.1191 73.0506C27.0819 73.0836 27.0407 73.1117 26.9965 73.1343L26.1943 73.545C26.1494 73.5678 26.102 73.5851 26.053 73.5962L24.8529 73.87L23.344 73.9803Z" fill="#0055BA"/>
<path d="M18.3919 29.3666C18.2399 29.3662 18.0935 29.3086 17.9821 29.2053C17.8705 29.102 17.802 28.9604 17.7901 28.8089C17.7782 28.6573 17.8237 28.5069 17.9178 28.3874C18.0117 28.2679 18.1472 28.1881 18.2973 28.1641L35.5652 25.4093C35.7237 25.3844 35.8854 25.4235 36.015 25.5178C36.1447 25.6121 36.2317 25.7539 36.2568 25.9123C36.282 26.0706 36.2433 26.2325 36.1493 26.3623C36.0552 26.4922 35.9135 26.5795 35.7553 26.605L18.4883 29.3597C18.4564 29.3644 18.4242 29.3667 18.3919 29.3666Z" fill="#ED1E71"/>
<path d="M16.8275 47.7041C16.4144 47.7052 16.0017 47.6843 15.5909 47.6411C15.5496 47.6362 15.5089 47.6273 15.4693 47.6145L14.0446 47.1496C13.4555 46.8916 12.9063 46.5511 12.4132 46.1381C12.2221 45.9924 12.0355 45.8496 11.8528 45.7245C10.8631 45.0366 9.92087 44.2827 9.03249 43.4681C5.45502 39.304 5.23932 32.0819 5.08174 26.8088L5.06006 26.0899C5.05552 25.9298 5.11478 25.7745 5.22458 25.658C5.33451 25.5415 5.48603 25.4733 5.64613 25.4684C5.80611 25.4634 5.96167 25.5221 6.07854 25.6315C6.19527 25.7411 6.26398 25.8924 6.2694 26.0525L6.29171 26.7724C6.44337 31.8652 6.65164 38.8401 9.90424 42.631C10.7349 43.385 11.6137 44.0844 12.5348 44.7248C12.7348 44.8617 12.9392 45.0173 13.1474 45.1759C13.5425 45.5102 13.9805 45.7903 14.4494 46.0092L15.7839 46.4445C17.7097 46.5255 19.6381 46.3657 21.5243 45.9687L29.5865 44.6835C31.4103 44.4946 33.2005 44.0625 34.9094 43.3982L36.1129 42.6251L37.1504 41.5407C40.0332 37.1167 40.1884 31.1493 40.3258 25.882L40.347 25.0823C40.3543 24.9229 40.4231 24.7726 40.5389 24.663C40.6549 24.5533 40.8088 24.4928 40.9683 24.4943C41.0477 24.4966 41.126 24.5143 41.1985 24.5467C41.2711 24.5791 41.3366 24.6255 41.3911 24.6833C41.4457 24.741 41.4885 24.8088 41.5167 24.8831C41.5451 24.9573 41.5586 25.0364 41.5563 25.1158L41.5351 25.9135C41.3938 31.3599 41.2333 37.5342 38.1319 42.2518C38.1116 42.2822 38.0887 42.3109 38.0634 42.3375L36.9378 43.5145C36.904 43.5494 36.8662 43.5801 36.8249 43.606L35.484 44.459C33.6537 45.1968 31.7291 45.6752 29.7663 45.8801L21.7209 47.1634C20.107 47.4757 18.4705 47.6565 16.8275 47.7041Z" fill="#0055BA"/>
<path d="M18.805 15.0528C18.6529 15.0527 18.5064 14.9952 18.3947 14.8918C18.283 14.7886 18.2143 14.6469 18.2024 14.4952C18.1905 14.3436 18.2361 14.1929 18.3303 14.0734C18.4244 13.9539 18.5602 13.8743 18.7105 13.8503L27.7029 12.4164C27.8613 12.3915 28.0232 12.4306 28.1527 12.5249C28.2825 12.6191 28.3693 12.761 28.3945 12.9193C28.4198 13.0776 28.381 13.2395 28.287 13.3694C28.193 13.4992 28.0513 13.5864 27.8931 13.6119L18.9006 15.0459C18.8689 15.0507 18.8369 15.053 18.805 15.0528Z" fill="#0055BA"/>
<path d="M12.1067 30.1767C11.5401 30.1843 10.9744 30.1252 10.4216 30.0003C10.379 29.9905 10.3377 29.9756 10.2985 29.956L10.0705 29.8467C9.55871 29.6292 9.07689 29.3471 8.63654 29.0077L4.43102 25.9259C4.26113 25.791 4.09174 25.6717 3.91889 25.5507C3.4921 25.2769 3.10247 24.9492 2.75968 24.5756L2.39969 24.0437C2.36132 23.9862 2.333 23.9227 2.31599 23.8556C2.24074 23.5145 2.19151 23.1682 2.16874 22.8195C2.17071 22.4827 2.16975 22.1065 2.16874 21.7352L2.16825 20.8104C2.17662 20.5503 2.1722 20.2923 2.16776 20.0274C2.13018 19.3752 2.17135 18.7208 2.29037 18.0783C2.30512 18.0135 2.33058 17.9516 2.36572 17.8952L2.68384 17.383C2.72411 17.3184 2.77624 17.2619 2.83748 17.2165L3.42693 16.7794C4.58453 16.2413 5.8171 15.882 7.08241 15.7136L7.40552 15.6546L12.3741 14.8617C12.5327 14.8367 12.6947 14.8755 12.8246 14.9699C12.9544 15.0644 13.0414 15.2064 13.0665 15.365C13.0916 15.5235 13.0526 15.6856 12.9583 15.8155C12.8639 15.9453 12.7218 16.0323 12.5632 16.0574L7.30051 16.9044C6.1895 17.0514 5.10408 17.3517 4.0755 17.7967L3.65249 18.1168L3.44961 18.4438C3.37447 18.9614 3.35039 19.4853 3.37772 20.0078C3.38263 20.2924 3.38707 20.5711 3.37821 20.8331L3.37922 21.7313C3.38023 22.1075 3.38123 22.4877 3.37873 22.8058C3.39779 23.0271 3.42803 23.2474 3.46933 23.4656L3.72737 23.8517C3.99726 24.1184 4.29455 24.3556 4.61425 24.5598C4.80877 24.6967 4.99885 24.8307 5.16774 24.9656L9.39293 28.0641C9.76306 28.3417 10.1653 28.5734 10.5911 28.7545L10.7664 28.8382C12.1278 29.0218 13.5103 28.9799 14.8581 28.7142C15.3836 28.6254 16.1256 28.5093 16.8393 28.397L33.8368 25.6866C34.6395 25.5448 35.482 25.4177 36.3344 25.2906C38.2027 25.0538 40.0534 24.6941 41.8744 24.2142L42.5096 23.9217L42.9519 23.5928L43.1577 23.2619C43.221 22.8428 43.2437 22.4186 43.2252 21.9953C43.2236 21.8396 43.2226 21.689 43.2247 21.551V19.5694C43.2428 19.1259 43.2122 18.6817 43.1335 18.2447C43.0105 18.0404 42.866 17.8495 42.7026 17.6756C42.6279 17.6184 42.4864 17.517 42.3417 17.4126C42.1629 17.2835 41.9798 17.1506 41.8669 17.0629L37.5453 13.8926C37.1928 13.6096 36.8143 13.3606 36.4146 13.1491L35.8488 12.8792C35.3041 12.7718 34.7488 12.7271 34.1937 12.7462C34.1147 12.754 34.0349 12.7462 33.9589 12.7232C33.8827 12.7001 33.812 12.6623 33.7506 12.612C33.6891 12.5616 33.6383 12.4995 33.6009 12.4294C33.5634 12.3593 33.5401 12.2826 33.5323 12.2035C33.5246 12.1245 33.5324 12.0446 33.5556 11.9685C33.5787 11.8925 33.6165 11.8218 33.667 11.7604C33.7175 11.6991 33.7795 11.6482 33.8496 11.6109C33.9197 11.5735 33.9966 11.5503 34.0756 11.5426C34.7735 11.5111 35.4728 11.5659 36.1572 11.7061C36.2064 11.7159 36.2543 11.7318 36.2995 11.7533L36.9219 12.0499C37.4001 12.2944 37.852 12.587 38.2708 12.9234L42.5963 16.0977C42.7141 16.1884 42.8844 16.3115 43.0504 16.4317C43.2045 16.5429 43.3553 16.6513 43.4537 16.7262C43.7445 17.0044 43.9963 17.3208 44.2022 17.6667C44.242 17.7279 44.2715 17.7951 44.2899 17.8657C44.4104 18.4367 44.4591 19.0207 44.4346 19.604L44.4356 21.9863C44.464 22.5447 44.4213 23.1043 44.3086 23.6518C44.2929 23.7098 44.2691 23.7651 44.2377 23.8163L43.9195 24.3294C43.8794 24.3942 43.8272 24.4507 43.7659 24.4958L43.1765 24.9331C43.1407 24.9605 43.1016 24.9833 43.0603 25.0011L42.293 25.3467C40.395 25.8591 38.4641 26.2402 36.5137 26.4872C35.6726 26.6133 34.8405 26.7374 34.0382 26.8802L17.0267 29.5926C16.3176 29.7039 15.5805 29.8201 15.0437 29.9098C14.072 30.0664 13.0907 30.1555 12.1067 30.1767Z" fill="#0055BA"/>
<path d="M30.8314 17.3303C30.3922 17.3361 29.9533 17.2995 29.521 17.221L28.7006 17.0516C28.6625 17.0433 28.6252 17.0314 28.5893 17.0162C28.5415 16.9964 28.3633 16.9127 28.188 16.83C28.0413 16.7601 27.8969 16.6921 27.8522 16.6724C27.7196 16.6154 27.6119 16.5127 27.5488 16.3828C27.5116 16.3401 27.476 16.2964 27.4434 16.25C27.3547 16.1307 27.2765 16.0146 27.2617 15.987C27.2165 15.9006 27.1927 15.8047 27.1927 15.7073V4.97896C27.2578 4.38332 27.4971 3.8201 27.8807 3.35981C27.933 3.30068 27.9962 3.2522 28.0669 3.217C28.1545 3.17364 28.2958 3.09195 28.4407 3.00824C28.6342 2.89694 28.8326 2.78368 28.9473 2.72951C29.5649 2.54306 30.2036 2.43519 30.8481 2.40845C31.4897 2.41694 32.1282 2.49688 32.752 2.64679L33.0646 2.78664C33.3237 2.90876 33.6512 3.06438 33.8181 3.16585C33.8872 3.20767 33.9471 3.26293 33.9943 3.32834L34.5301 4.07685C34.579 4.1445 34.6131 4.22169 34.6301 4.30338L34.7266 4.7584C34.736 4.80108 34.7404 4.84469 34.7399 4.8884C34.7336 5.60736 34.7365 7.24521 34.7395 8.81509C34.7415 10.2077 34.7439 11.5472 34.7399 12.147V15.6118C34.7398 15.7238 34.7087 15.8336 34.6503 15.929C34.6341 15.9644 34.6119 16.0186 34.5907 16.0708C34.5488 16.2014 34.4837 16.3236 34.3986 16.4312C34.3545 16.4814 34.3023 16.5237 34.2441 16.5563L33.6019 16.9187C33.5561 16.9443 33.5073 16.9641 33.4567 16.9779L32.458 17.228C31.9183 17.2935 31.3751 17.3277 30.8314 17.3303ZM29.0104 15.8796L29.7678 16.0363C30.5877 16.1506 31.4195 16.152 32.2398 16.0402L33.078 15.8245L33.4753 15.6009C33.495 15.5527 33.5128 15.5103 33.5295 15.4709V12.143C33.5339 11.5402 33.5315 10.2057 33.529 8.81698C33.526 7.28946 33.5236 5.69591 33.529 4.94445L33.4591 4.65882L33.0897 4.14373C32.939 4.06396 32.7259 3.96449 32.55 3.88274L32.3151 3.77045C31.8348 3.6801 31.348 3.62905 30.8595 3.61781C30.3663 3.64233 29.8773 3.71994 29.4009 3.84926C29.3684 3.86895 29.2049 3.96449 29.0448 4.05701C28.9316 4.12202 28.8197 4.18603 28.7272 4.23726C28.5539 4.47842 28.4412 4.75781 28.3988 5.05174L28.4155 15.528C28.4415 15.5634 28.4681 15.6009 28.4934 15.6354C28.5564 15.6649 28.6306 15.7003 28.7052 15.7359C28.8228 15.791 28.9409 15.8471 29.0104 15.8796Z" fill="#0055BA"/>
<path d="M15.8237 19.7909L14.5212 19.7289L13.3759 19.4975C13.3272 19.4875 13.2799 19.472 13.2349 19.4512L12.5046 19.1113C12.4243 19.0731 12.3533 19.0175 12.2968 18.9488C12.2757 18.9232 12.2047 18.8248 12.1318 18.7204C12.0796 18.6455 12.0249 18.5667 12.0008 18.5352C11.9164 18.4253 11.8685 18.2917 11.8639 18.1531C11.8619 16.729 11.8629 14.9266 11.8644 13.1017C11.8659 11.0757 11.8675 9.02225 11.8639 7.42475C11.9287 6.82972 12.1679 6.26713 12.5514 5.80761C12.6003 5.75222 12.659 5.70617 12.7244 5.67169C12.7981 5.63231 12.913 5.56631 13.036 5.4954C13.2527 5.37035 13.4925 5.23441 13.6221 5.17434C14.2383 4.98926 14.8752 4.88173 15.518 4.85425C16.1588 4.85851 16.797 4.93818 17.4193 5.0916C17.4493 5.10047 17.5503 5.14479 17.5783 5.1576C17.8398 5.27972 18.284 5.48851 18.4864 5.60965C18.5548 5.65098 18.6144 5.70516 18.6622 5.7692L19.1388 6.43501C19.4116 6.65752 19.4397 7.09383 19.4126 12.1266C19.4112 12.428 19.4097 12.6288 19.4106 12.6742C19.4141 13.2267 19.4121 14.1742 19.4106 15.1541C19.4086 16.266 19.4062 17.4194 19.4111 18.0526C19.4116 18.1399 19.3935 18.2261 19.3579 18.3058L19.1708 18.7224C19.1178 18.841 19.028 18.9394 18.9148 19.003L18.2726 19.3646C18.2271 19.3899 18.1786 19.4098 18.1283 19.4236L17.1297 19.6737C17.0958 19.6828 17.0611 19.6883 17.0262 19.6905L15.8237 19.7909ZM13.6865 18.3264L14.6725 18.5313L15.8075 18.5835L16.8786 18.4889L17.7497 18.2703L18.1476 18.0467L18.2003 17.9295C18.1964 17.2736 18.1982 16.1952 18.2003 15.1521C18.2023 14.1761 18.2037 13.2306 18.2008 12.6959C18.2003 12.692 18.2008 12.4684 18.2028 12.1207C18.218 9.27929 18.2023 7.60603 18.1554 7.14022L17.7616 6.59058C17.563 6.48418 17.2587 6.34437 17.0677 6.25477C16.5634 6.14827 16.0511 6.08436 15.5361 6.0637C15.0412 6.0883 14.5504 6.16589 14.0721 6.29515C14.0223 6.32269 13.822 6.43892 13.6397 6.54431C13.5535 6.5936 13.4713 6.64088 13.4015 6.68021C13.2269 6.92175 13.1132 7.20187 13.07 7.49673C13.0774 9.02124 13.0758 11.0757 13.075 13.1026C13.0735 14.8449 13.0724 16.5654 13.074 17.9561L13.1246 18.0281L13.1631 18.0821L13.6865 18.3264Z" fill="#0055BA"/>
<path d="M63.8503 50.994L63.6889 49.9038L63.5871 49.5679L63.348 48.7692L63.0293 48.2619L62.6501 47.7859L62.1408 47.3159L61.567 46.8954L60.9921 46.4738L60.4173 46.0522L59.8424 45.6307L59.2696 45.2101L58.6947 44.7886L58.1199 44.367L57.545 43.9454L56.9712 43.5249L56.3973 43.1033L55.8225 42.6818L55.2476 42.2602L54.6727 41.8396L54.0999 41.4181L53.5251 40.9965L52.9502 40.575L52.3753 40.1544L51.8015 39.7328L51.2276 39.3113L50.6528 38.8897L50.0779 38.4692L49.5031 38.0476L48.9635 37.7481L48.4451 37.5494L47.9782 37.4889H47.3811L46.7428 37.5908L46.1034 37.6926L45.464 37.7945L44.8256 37.8963L44.1872 37.9982L43.5488 38.1001L42.9094 38.2019L42.271 38.3038L41.6326 38.4056L40.9932 38.5075L40.3548 38.6094L39.7164 38.7112L39.077 38.8131L38.4386 38.9149L37.8002 39.0168L37.1608 39.1187L36.5224 39.2205L35.884 39.3224L35.3142 39.5079L34.8846 39.8629L34.6022 40.1191L34.4408 40.5044L34.223 41.0651L34.0616 42.0696L34.0082 43.3988V44.8884V46.379V47.8686V49.3592V50.8488V52.3383V53.8289V55.3185V56.8091V58.2987V59.7893V61.2789V62.7695V64.259V65.7496V67.2392V68.7298V70.2194L34.0616 71.5758L34.223 72.6661L34.3249 73.0019L34.5639 73.8016L34.8826 74.3089L35.2628 74.7839L35.7711 75.2539L36.3459 75.6755L36.9198 76.097L37.4946 76.5176L38.0685 76.9392L38.6433 77.3607L39.2182 77.7823L39.792 78.2028L40.3669 78.6244L40.9407 79.0459L41.5156 79.4675L42.0894 79.8881L42.6643 80.3096L43.2381 80.7312L43.813 81.1527L44.3879 81.5733L44.9617 81.9949L45.5356 82.4164L46.1104 82.838L46.6853 83.2585L47.2601 83.6801L47.834 84.1017L48.4078 84.5232L48.9484 84.8228L49.4658 85.0204L49.9347 85.0819H50.5318L51.1702 84.9801L51.8086 84.8782L52.3774 84.6917L52.808 84.3377L53.0904 84.0805L53.2517 83.6952L53.4696 83.1355L53.6309 82.13L53.639 81.9404L56.6706 81.4573L56.9046 81.6288L57.4784 82.0503L58.0533 82.4719L58.6282 82.8935L59.1677 83.193L59.6861 83.3907L60.153 83.4522H60.7501L61.3895 83.3503L62.0289 83.2485L62.5977 83.0619L63.0283 82.7079L63.3107 82.4507L63.4721 82.0655L63.6889 81.5057L63.8503 80.5002L63.9037 79.172V77.6814V76.1918V74.7023V73.2117V71.7221V70.2315V68.7419V67.2513V65.7617V64.2711V62.7816V61.291V59.8014V58.3108V56.8212V55.3306V53.841V52.3504L63.8503 50.994Z" fill="white"/>
<path d="M37.2696 39.3565C37.1538 39.4239 35.0487 40.0294 34.9017 40.1151C35.0165 40.2466 48.043 49.2986 48.4443 49.7917C49.2714 50.8084 50.7791 51.5051 50.7771 52.8304C50.763 62.3439 50.7579 71.8574 50.7618 81.371C50.7616 81.888 50.7673 82.4076 50.7201 82.9213C50.7823 83.7377 50.5676 84.5512 50.1108 85.2307C50.6233 85.1609 51.031 85.0938 51.4411 85.0515C52.9107 84.8999 53.454 84.0811 53.6463 82.7483C53.7508 82.0239 53.7468 82.0233 54.4719 81.9181C54.5185 81.9113 54.5657 81.9096 54.6121 81.9021C55.971 81.6839 57.3297 81.465 58.7255 81.2405V80.7975C58.7255 70.7668 58.7278 60.7361 58.7323 50.7053C58.7406 50.5759 58.7135 50.4464 58.654 50.3312C58.5944 50.2158 58.5045 50.1189 58.3941 50.0508C54.7387 47.3826 44.2177 40.9783 47.4487 42.0179C50.1357 43.5025 52.6982 45.202 55.1112 47.0995C56.9631 48.4967 58.7202 49.5034 58.7323 50.7053C58.9211 69.5191 53.6414 81.8164 59.599 83.1997C63.1466 84.0234 62.6831 68.1685 62.6831 49.5517C62.7371 48.9104 49.1814 39.5145 49.6208 38.9626C49.8756 38.6427 45.0613 38.443 45.3116 38.1655C45.3317 38.1655 45.2849 38.1598 45.2399 38.1663C43.852 38.3629 42.4646 38.5646 41.0759 38.7563C40.6611 38.8136 40.2396 38.8242 39.8267 38.8909L37.2696 39.3565Z" fill="#8FB8E2"/>
<path d="M59.9245 83.4426C60.3231 82.6038 60.5039 81.6781 60.4503 80.751C60.4735 80.3917 60.4701 80.0305 60.4707 79.6702C60.4865 70.5034 60.5013 61.3366 60.5152 52.1697C60.5843 51.1749 60.4909 50.1754 60.2385 49.2107C59.9553 48.2199 59.3512 47.3512 58.521 46.7408C56.5708 45.3571 54.6644 43.9115 52.7256 42.5112C51.001 41.2656 49.2794 40.0128 47.5078 38.8365C46.9564 38.4704 45.9157 38.6202 45.2766 38.3881C45.1345 38.3364 45.3153 38.0292 45.1655 37.8974C45.9364 37.7747 46.7076 37.652 47.4784 37.5295C47.7922 37.5092 48.1069 37.5529 48.4033 37.658C48.6996 37.7631 48.9716 37.9272 49.2025 38.1407C53.1714 41.0119 57.1261 43.9028 61.0664 46.8137C61.6 47.1949 62.0875 47.6369 62.5191 48.1307C63.125 49.0129 63.4484 50.0585 63.4466 51.1288C63.4719 51.3782 63.4835 51.629 63.4811 51.8799C63.4826 61.1105 63.4776 70.3409 63.4658 79.5715C63.431 80.366 63.305 81.1538 63.0908 81.9196C63.0085 82.2336 62.8368 82.5169 62.5963 82.7349C62.3557 82.953 62.057 83.0963 61.7365 83.1475C61.1685 83.2801 60.5829 83.3386 59.9245 83.4426Z" fill="#8FB8E2"/>
<path d="M50.1056 85.6897C49.8465 85.6918 49.5879 85.6657 49.3345 85.6118C48.5498 85.3317 47.8214 84.9138 47.1834 84.3777L38.285 77.848C37.8951 77.5467 37.4937 77.261 37.0889 76.9734C36.3049 76.4406 35.5566 75.8569 34.8489 75.2263C34.5428 74.8695 34.2681 74.4869 34.0279 74.0828C33.9368 73.8474 33.8604 73.6066 33.7989 73.3618C33.7472 73.1727 33.6989 72.9866 33.6606 72.8911C33.499 72.0116 33.4126 71.1201 33.4025 70.2259V65.7487C33.4193 62.6878 33.4098 59.6149 33.4 56.5391C33.3852 51.784 33.37 46.8666 33.4562 42.0594L33.6251 40.969C33.6348 40.9065 33.6546 40.846 33.6836 40.7898C33.7211 40.716 33.7738 40.5673 33.8299 40.4146C33.8992 40.2164 33.9789 40.0222 34.0688 39.8326C34.085 39.8028 34.1038 39.7744 34.1249 39.7478C34.2832 39.5677 34.4618 39.4063 34.6572 39.2672C34.7488 39.1953 34.8365 39.1292 34.8902 39.077C34.9469 39.021 35.0145 38.9767 35.0886 38.9471C35.6294 38.7599 36.1893 38.6331 36.758 38.5689L46.0095 37.0946C47.7715 36.7704 48.777 36.6611 50.4553 37.9957L61.9242 46.4076C62.4858 46.7379 62.975 47.178 63.3626 47.7015C63.7503 48.2251 64.0285 48.8214 64.1806 49.4548C64.4606 50.658 64.5703 51.8947 64.5066 53.1284L64.5087 77.6826C64.5046 77.9445 64.5056 78.2085 64.5066 78.4783C64.6285 79.9289 64.402 81.3877 63.8457 82.733C63.8089 82.8033 63.7583 82.8656 63.6971 82.9161C63.6222 82.9792 63.5375 83.0551 63.4498 83.1328C63.2834 83.2826 63.1071 83.4392 62.9554 83.5505C62.9034 83.5887 62.8455 83.6183 62.7841 83.6381L62.2158 83.8233L61.8228 83.8952C61.0791 84.0672 60.3093 84.0966 59.5547 83.9819C58.6697 83.6488 57.8499 83.1639 57.1318 82.5488C56.928 82.3922 56.726 82.2385 56.5242 82.0938L54.187 82.4661L54.0668 83.2323C54.057 83.2927 54.0381 83.3511 54.0107 83.4056C53.9733 83.4815 53.9211 83.6283 53.8649 83.7789C53.7948 83.979 53.7142 84.1753 53.6236 84.3669C53.5883 84.433 53.5409 84.4918 53.4838 84.5402L53.2818 84.7186C53.1017 84.8791 52.9007 85.0565 52.7401 85.1765C52.6874 85.2161 52.6286 85.2467 52.5659 85.2671L51.9966 85.4533L51.6096 85.5242C51.1136 85.6204 50.6106 85.6757 50.1056 85.6897ZM34.8069 41.2408L34.6587 42.1656C34.5803 46.8764 34.5956 51.786 34.6105 56.535C34.6198 59.6138 34.6296 62.6905 34.6129 65.7526V70.221C34.6218 70.9967 34.6889 71.7707 34.8133 72.5365C34.8736 72.7024 34.9246 72.8713 34.9665 73.0427C35.0226 73.2486 35.0778 73.4604 35.123 73.5697C35.3075 73.8585 35.5097 74.1355 35.7288 74.3989C36.3845 74.9683 37.0729 75.4987 37.7906 75.9875C38.2087 76.285 38.6229 76.5805 39.0129 76.8818L47.9083 83.4087C48.4242 83.8449 49.0081 84.1936 49.6368 84.4408C50.2298 84.5033 50.829 84.466 51.4096 84.3305L51.714 84.2803L52.0862 84.1522C52.2084 84.0546 52.3482 83.9286 52.4773 83.8144L52.5964 83.71C52.6368 83.6144 52.683 83.4834 52.7303 83.3574C52.7855 83.2096 52.8396 83.0658 52.884 82.9604L53.0337 82.0337L53.0357 81.9923C53.0316 81.9463 53.0328 81.9001 53.0396 81.8544C53.1046 79.5734 53.0929 77.1231 53.081 74.7524C53.0741 73.2781 53.0673 71.8106 53.08 70.3668V56.1451C53.0829 54.9859 53.0859 53.6711 53.0278 52.6587C52.9509 52.3435 52.6516 50.9066 52.6516 50.9066C52.4251 50.0418 51.4894 49.3672 50.6641 48.7723L41.2678 41.8969C41.1948 41.8466 41.1338 41.7809 41.0891 41.7044C41.0443 41.6278 41.0168 41.5425 41.0089 41.4543C41.0008 41.366 41.0123 41.277 41.0426 41.1937C41.0727 41.1104 41.1208 41.0347 41.1836 40.9721C41.3249 40.8302 41.3249 40.8302 43.3616 40.5081C44.0999 40.3909 44.7951 40.2806 44.8602 40.2698C44.8966 40.264 44.9301 40.2629 44.9735 40.2599C45.0513 40.2592 45.1289 40.2648 45.2058 40.2767L45.4019 40.3023C45.5997 40.3122 45.7953 40.348 45.9839 40.4087C46.7285 40.6864 46.8054 40.7277 46.9126 40.8362L58.9903 49.6863C59.0671 49.7423 59.1295 49.8156 59.1723 49.9004C59.2153 49.9851 59.2376 50.0787 59.2375 50.1738V82.535C59.4401 82.648 59.6528 82.742 59.8727 82.8158C60.4584 82.8745 61.0498 82.836 61.6229 82.7015L61.9342 82.6503L62.3074 82.5222C62.4137 82.4375 62.53 82.3321 62.6423 82.2317C62.7053 82.1755 62.7663 82.1214 62.8244 82.0701C63.2323 80.9207 63.393 79.6981 63.2962 78.4822C63.2952 78.2035 63.2942 77.9327 63.2992 77.6726L63.2962 53.1274C63.3545 51.9929 63.2577 50.8557 63.0086 49.7473C62.888 49.2549 62.6679 48.7924 62.3618 48.3883C62.0557 47.9842 61.6702 47.6469 61.229 47.3973L49.7205 38.9569C48.4313 37.9317 47.8915 37.978 46.2144 38.2873L36.9396 39.7655C36.4973 39.8197 36.06 39.9098 35.6322 40.0354C35.5653 40.0925 35.485 40.1555 35.4018 40.2206C35.3137 40.2895 35.1757 40.3968 35.1078 40.4619C35.0664 40.5554 35.0158 40.6982 34.965 40.8362C34.9089 40.9868 34.8528 41.1336 34.8069 41.2408ZM56.6708 80.8528C56.7924 80.8526 56.9111 80.889 57.0116 80.9572C57.2962 81.1512 57.5799 81.3679 57.8666 81.5875C57.9206 81.6279 57.9738 81.6694 58.028 81.7107V50.4801L46.1276 41.751C46.0775 41.7334 45.7347 41.6073 45.5939 41.5551L45.2275 41.4999C45.1487 41.4882 45.0749 41.4763 45.0168 41.4674C44.8306 41.4999 44.4396 41.5619 43.5507 41.7029C43.4193 41.7245 43.2858 41.7452 43.1543 41.7659L51.3722 47.7904C52.4953 48.4243 53.3638 49.4281 53.8295 50.6308C53.8364 50.6603 54.1328 52.0875 54.2224 52.4941C54.2963 53.6377 54.2934 54.9711 54.2903 56.148L54.2893 70.3717C54.2775 71.8155 54.2844 73.2781 54.2913 74.7465C54.3012 76.8838 54.312 79.085 54.2619 81.229L56.5753 80.8598C56.6069 80.855 56.6389 80.8527 56.6708 80.8528Z" fill="#0055BA"/>
</g>
<defs>
<clipPath id="clip0_1_1030">
<rect width="84.4635" height="85.7242" fill="white"/>
</clipPath>
</defs>
</svg>
