<svg width="99" height="84" viewBox="0 0 99 84" fill="none" xmlns="http://www.w3.org/2000/svg">
<g id="Group">
<path id="Vector" d="M7.45374 0.919189L5.52779 6.27552L0.757324 8.97205L5.87685 10.2846L8.17635 15.5112L10.284 9.79366L14.8646 7.34923L9.82672 5.79786L7.45374 0.919189Z" fill="white"/>
<path id="Vector_2" d="M11.0089 8.3306C10.7555 8.20697 10.5962 8.11256 10.4255 8.04877C9.44083 7.68096 9.50485 7.67828 9.42043 6.62689C9.34533 5.69161 9.10232 4.76997 8.9383 3.84137C8.79405 3.13431 8.71469 2.41553 8.70122 1.69403C9.04379 2.60225 9.32495 3.53243 9.5428 4.47832C9.55294 4.7331 9.61417 4.98328 9.72287 5.21395C9.83155 5.44461 9.98549 5.65116 10.1755 5.82123C10.3656 5.99129 10.5878 6.12142 10.8291 6.20384C11.0704 6.28626 11.3258 6.31943 11.5802 6.30131C12.5442 6.40988 13.4962 6.60699 14.4241 6.88984C14.7657 7.02673 15.0911 7.20139 15.3938 7.41075C15.0576 7.61972 14.8448 7.78085 14.6089 7.89389C13.4006 8.47285 12.1938 9.05551 10.9714 9.60359C10.6916 9.71816 10.4431 9.89753 10.246 10.1268C10.0489 10.3561 9.90904 10.6288 9.83777 10.9226C9.45874 12.3056 9.00873 13.668 8.4895 15.0046C8.59979 14.4622 8.67628 13.9101 8.82724 13.3793C9.24583 12.1829 9.53578 10.9452 9.69221 9.68741C9.71112 9.40431 10.1239 9.1392 10.3728 8.88276C10.5479 8.70236 10.7527 8.55067 11.0089 8.3306Z" fill="#F5A2C5"/>
<path id="Vector_3" d="M8.15333 16.1234C7.84784 16.1234 7.7123 15.9519 7.18452 15.2841C7.14938 15.2387 7.12038 15.1887 7.0983 15.1356C7.04698 15.0091 5.92967 12.2631 5.41634 10.8219C4.47844 10.6405 2.20643 10.162 1.12448 9.93379C1.04545 9.91746 0.97041 9.88582 0.903672 9.8404C0.836923 9.79511 0.779818 9.73706 0.735599 9.66957C0.691392 9.60208 0.660952 9.52642 0.646038 9.4472C0.631136 9.36784 0.632042 9.28645 0.648717 9.20747C0.665404 9.1285 0.697516 9.05361 0.743228 8.98714C0.78894 8.92067 0.847333 8.8639 0.915078 8.82001C0.98281 8.77625 1.05854 8.74614 1.13793 8.73173C1.21729 8.71718 1.29875 8.71859 1.3776 8.73568C3.01422 9.08155 5.70236 9.64176 5.94705 9.67556C6.06218 9.69075 6.17089 9.73744 6.2612 9.81042C6.3515 9.88339 6.41991 9.97984 6.45887 10.0892C6.78829 11.0779 7.6958 13.3445 8.06906 14.2695C8.22207 13.7921 8.38055 13.207 8.50463 12.7485C9.00349 10.9035 9.34686 9.75135 9.90552 9.31183C10.6283 8.89631 11.379 8.5313 12.1521 8.21937C13.0785 7.86444 13.9629 7.40821 14.789 6.85885C14.8534 6.81076 14.9266 6.77567 15.0046 6.7559C15.0825 6.736 15.1635 6.73166 15.2432 6.74314C15.3228 6.75462 15.3993 6.78167 15.4685 6.82275C15.5376 6.86383 15.598 6.91805 15.6462 6.98248C15.6943 7.04691 15.7294 7.12014 15.7491 7.19809C15.769 7.27604 15.7734 7.35705 15.7619 7.43666C15.7504 7.51627 15.7234 7.59282 15.6823 7.66197C15.6412 7.73112 15.587 7.79146 15.5226 7.83969C14.621 8.44952 13.6525 8.9541 12.6361 9.34373C11.9366 9.62517 11.256 9.95114 10.5982 10.3195C10.196 11.2001 9.89035 12.1219 9.68675 13.0685C9.51291 14.0747 9.156 15.0406 8.63372 15.9181C8.52666 16.0384 8.37635 16.1115 8.21559 16.1215C8.19419 16.1234 8.17327 16.1234 8.15333 16.1234Z" fill="#ED1E71"/>
<path id="Vector_4" d="M1.25094 9.94757C1.12011 9.94782 0.992716 9.90585 0.88759 9.82802L0.804867 9.76819C0.611967 9.6276 0.245213 9.35356 0.177927 9.28581C0.12095 9.22827 0.0759014 9.16014 0.0453587 9.08525C0.0148289 9.01037 -0.000582777 8.93012 1.68479e-05 8.84923C0.000501651 8.73339 0.0288882 8.61933 0.0827524 8.51689C0.136629 8.41431 0.214402 8.32628 0.3095 8.2602C1.56125 7.5358 2.85196 6.88093 4.17577 6.29866C5.28511 5.80428 5.28511 5.80428 5.67334 4.45066C5.90955 3.62741 6.26688 2.38351 6.97803 0.438905C7.0133 0.342442 7.07226 0.256413 7.1495 0.18872C7.23959 0.108868 7.34757 0.0518778 7.46433 0.0225727C7.58108 -0.00674514 7.70317 -0.00751062 7.82029 0.0203146C7.99522 0.0831094 8.21301 0.160856 8.92914 1.46158C9.40857 2.73534 10.1023 4.59023 10.3749 5.29792C10.6141 5.34385 10.933 5.39258 11.264 5.44349C13.4931 5.78834 15.2358 6.12719 15.7053 7.07906C15.7748 7.22157 15.7852 7.38564 15.7342 7.5358C15.6832 7.68583 15.575 7.80971 15.4332 7.88039C15.2887 7.95222 15.1221 7.96536 14.9681 7.91701C14.8141 7.86878 14.6849 7.76276 14.6073 7.62128C14.3512 7.15982 11.9726 6.79201 11.0771 6.65448C10.6337 6.59643 10.1936 6.51592 9.7584 6.41322C9.67228 6.38911 9.59252 6.34637 9.52475 6.28794C9.45697 6.22951 9.40286 6.15704 9.36618 6.07539C9.24458 5.80428 8.05599 2.60786 7.81879 1.96996C7.80184 1.94005 7.78389 1.90915 7.76546 1.87825C7.30248 3.21386 7.03784 4.13579 6.85096 4.78862C6.33564 6.58378 6.21356 6.73128 4.67412 7.41702C4.02825 7.7051 3.10029 8.11871 1.67898 8.8972C1.76618 8.98217 1.82604 9.09125 1.85089 9.21054C1.87574 9.3297 1.86447 9.45371 1.81851 9.56649C1.77255 9.67927 1.69398 9.77584 1.59287 9.84372C1.49177 9.91159 1.37274 9.9477 1.25094 9.94757Z" fill="#ED1E71"/>
<path id="Vector_5" d="M91.587 3.08014C91.9971 4.4206 92.383 5.64294 92.7392 6.87383C92.7642 7.0157 92.8359 7.14506 92.9429 7.24151C93.0498 7.33797 93.1861 7.39576 93.3298 7.40584C94.4884 7.59848 95.6479 7.79598 96.7935 8.0519C97.2352 8.19301 97.6624 8.37583 98.0693 8.59807L98.0602 8.77145C97.8326 8.90898 97.6144 9.06616 97.3758 9.18086C96.1356 9.77717 94.8936 10.3699 93.645 10.9483C93.4261 11.0439 93.2319 11.1881 93.077 11.3699C92.9221 11.5517 92.8106 11.7663 92.7509 11.9976C92.3422 13.3844 91.9169 14.7687 91.4749 16.15C91.5532 14.7175 90.7787 13.4905 90.5513 12.144C90.5127 11.8039 90.3601 11.4869 90.1183 11.2445C89.8766 11.0019 89.5599 10.8485 89.2199 10.8089C88.8643 10.6952 88.5156 10.5608 88.1759 10.406C88.785 9.91355 89.3498 9.47442 89.8922 9.00926C90.1176 8.84749 90.2982 8.63137 90.4176 8.38106C90.7958 7.25032 91.1664 6.11345 91.4523 4.9572C91.5503 4.33652 91.5954 3.70852 91.587 3.08014Z" fill="#F5A2C5"/>
<path id="Vector_6" d="M90.4799 3.08014C90.4799 3.08014 90.0691 7.7068 86.7348 8.44523C83.4006 9.18354 84.4245 10.3547 84.4245 10.3547C84.4245 10.3547 87.5706 10.4879 88.3953 11.5643C89.3353 13.2647 90.1338 15.0394 90.7823 16.8708C90.7823 16.8708 91.8039 12.048 93.0094 11.1369C94.3706 10.2484 95.7889 9.45082 97.2552 8.74925C95.4569 8.5427 93.8126 7.63574 92.6786 6.22483C91.8428 5.25242 91.1063 4.19899 90.4799 3.08014Z" fill="white"/>
<path id="Vector_7" d="M91.0555 17.2811C90.9209 17.2759 90.789 17.2416 90.6688 17.1805C90.5508 17.1283 90.4524 17.04 90.3877 16.9284C90.3318 16.8306 88.8777 13.5276 88.3315 12.0454C87.0885 11.7385 83.5313 10.7636 83.3439 10.668C83.2427 10.6171 83.1578 10.539 83.0985 10.4425C83.0391 10.3461 83.0079 10.2351 83.008 10.1218V10.0611C83.0079 9.95288 83.0363 9.84673 83.0907 9.75321C83.1449 9.6597 83.223 9.58226 83.317 9.5288C84.5441 8.82099 85.8081 8.17913 87.1036 7.60617C88.2099 7.11078 88.2099 7.11078 88.5877 5.78816C88.8199 4.97879 89.1697 3.75581 89.8704 1.84211C89.9069 1.7428 89.9684 1.65457 90.0489 1.58593C90.1544 1.49354 90.2849 1.43441 90.424 1.41597C90.5629 1.39752 90.7044 1.42059 90.8303 1.48226L90.9339 1.54706C90.9877 1.58088 91.0357 1.62292 91.0765 1.67164C91.7351 2.99088 92.3238 4.34396 92.8397 5.72526C92.9942 6.0881 93.1267 6.40002 93.2175 6.61335C94.9567 6.98013 96.6677 7.47005 98.3376 8.07949C98.4087 8.13907 98.4653 8.21396 98.5031 8.29855C98.5408 8.38312 98.559 8.47525 98.5559 8.56787C98.5509 8.72467 98.5 8.87649 98.4093 9.00445C97.5041 9.69351 96.4965 10.2364 95.4232 10.6132C94.7308 10.9014 94.0571 11.2322 93.4058 11.604C93.0646 12.4249 92.7918 13.2726 92.5904 14.1386C92.4012 15.1701 92.0389 16.1621 91.519 17.0729C91.4116 17.1946 91.2604 17.2688 91.0983 17.2792C91.0834 17.2802 91.0695 17.2811 91.0555 17.2811ZM85.141 9.92149C86.5624 10.3171 88.6405 10.8813 88.8787 10.9212C88.9911 10.94 89.0966 10.9882 89.1844 11.0608C89.2723 11.1334 89.3394 11.2279 89.3791 11.3348C89.6461 12.1382 90.4594 14.0448 90.9917 15.2678C91.1383 14.7974 91.2897 14.2492 91.4104 13.8126C91.6025 12.7194 91.9931 11.6706 92.5626 10.7178C93.2999 10.225 94.0898 9.81586 94.9178 9.49793C95.3863 9.28563 96.0242 8.99756 96.5505 8.73832C95.2865 8.37854 93.3291 7.86924 92.6632 7.7437C92.5651 7.72482 92.473 7.68234 92.3948 7.62008C92.3167 7.55769 92.2549 7.47732 92.2147 7.38584C92.1749 7.29207 91.9755 6.82271 91.7124 6.20369C91.3994 5.46615 90.932 4.36475 90.5741 3.52453C90.1734 4.69965 89.9362 5.52688 89.7658 6.12497C89.2604 7.89119 89.1388 8.03663 87.6048 8.72441C87.0447 8.9746 86.2693 9.32148 85.141 9.92149Z" fill="#ED1E71"/>
<path id="Vector_8" d="M12.7308 32.9931C12.7308 32.9931 10.6497 72.203 12.8444 74.6786C15.039 77.1542 77.8409 65.558 77.8409 65.558L78.758 22.6886L12.7308 32.9931Z" fill="white"/>
<path id="Vector_9" d="M14.1256 21.6476C14.1256 21.6476 12.2135 23.2986 12.8447 29.8358L78.7582 19.3235L78.0132 11.9677L14.1256 21.6476Z" fill="white"/>
<path id="Vector_10" d="M9.44976 18.128C9.44976 18.128 7.35205 19.4536 8.00351 26.2843L73.5385 16.1509L73.5314 9.39477C73.5311 9.18669 73.4857 8.98116 73.3982 8.79234C73.3108 8.60352 73.1833 8.43601 73.0248 8.30128C72.8662 8.16656 72.6803 8.06794 72.4799 8.01206C72.2794 7.95631 72.0692 7.9447 71.8638 7.97813L9.44976 18.128Z" fill="white"/>
<path id="Vector_11" d="M8.00276 29.6504V69.4928C8.00276 69.4928 7.9147 71.2159 10.2389 72.0355L75.6255 62.6919L73.5298 20.1567L8.00276 29.6504Z" fill="white"/>
<path id="Vector_12" d="M77.9393 22.5832C73.7751 23.2467 69.6109 23.9203 65.4467 24.5735C56.904 25.9309 48.368 27.2884 39.8389 28.6458C31.4696 29.9727 23.1004 31.3063 14.7312 32.6468C14.0575 32.759 13.3941 32.8815 12.7307 32.9938C12.7307 33.0754 12.7409 33.1469 12.7409 33.2183C13.0467 33.2387 13.3537 33.2387 13.6595 33.2183C17.4971 32.6161 21.3313 32.0072 25.1621 31.3914C29.7244 30.6667 34.2798 29.9421 38.8285 29.2174C41.1249 28.85 43.4146 28.486 45.6974 28.1253C45.9933 28.0743 46.2689 27.9824 46.2995 28.4723C46.4118 30.1666 46.6363 31.8609 46.6465 33.5551C46.667 35.4433 46.5547 37.3417 46.4118 39.2197C46.2689 41.0976 46.0444 42.9756 45.7892 44.8332C45.315 48.1926 44.5396 51.5027 43.4724 54.7232C42.6661 57.1421 41.7985 59.5508 40.7677 61.8779C39.6143 64.4805 38.2569 66.9913 36.9607 69.5326C36.5116 70.4104 35.9809 71.2575 35.4297 72.2169C35.7665 72.1863 35.9503 72.1761 36.134 72.1455C40.0736 71.5229 44.0099 70.8969 47.9428 70.2675C57.2612 68.7774 66.5796 67.2839 75.8981 65.7869C76.7534 65.7192 77.5468 65.3143 78.1037 64.6618C78.6607 64.0091 78.9356 63.1619 78.8681 62.3065C78.8783 49.3444 78.8783 36.379 78.8681 23.41C78.8681 22.6547 78.6844 22.471 77.9393 22.5832ZM62.7931 52.0083C62.6064 52.7347 62.3606 53.4447 62.0582 54.1312C61.9684 54.3092 61.8157 54.4475 61.6295 54.519C61.058 54.7946 60.466 55.0192 59.7107 55.3356C60.415 55.5193 60.9457 55.6418 61.4764 55.7948C61.6397 55.8357 61.8949 55.9275 61.9153 56.0398C62.0888 56.9686 62.2317 57.9178 62.3644 58.8568C62.3746 58.918 62.2929 58.9997 62.1705 59.2446C61.9657 58.9753 61.7912 58.6844 61.6499 58.3771C61.4383 57.8347 61.2909 57.2695 61.2111 56.693C61.1396 56.1112 60.8232 55.9377 60.3333 55.8459C59.7818 55.7446 59.2366 55.6116 58.7003 55.4478C58.4427 55.3176 58.1998 55.1601 57.9756 54.9783C58.935 54.5803 59.7516 54.2741 60.5272 53.8863C60.8565 53.707 61.1207 53.4284 61.2825 53.0902C61.6602 52.243 61.9459 51.3551 62.2725 50.4569C63.0891 50.8243 62.9155 51.4775 62.7931 52.0083Z" fill="#F5A2C5"/>
<path id="Vector_13" d="M61.6305 54.5193C61.059 54.7949 60.467 55.0194 59.7117 55.3358C60.416 55.5195 60.9467 55.642 61.4774 55.7951C61.6407 55.8359 61.8959 55.9278 61.9163 56.0401C62.0898 56.9688 62.2327 57.918 62.3654 58.857C62.3756 58.9183 62.2939 58.9999 62.1715 59.2449C61.9667 58.9757 61.7922 58.6847 61.6509 58.3773C61.4393 57.8351 61.292 57.2698 61.2121 56.6933C61.1406 56.1115 60.8242 55.938 60.3343 55.8461C59.7828 55.7448 59.2376 55.6119 58.7013 55.4481C58.4437 55.3178 58.2008 55.1604 57.9766 54.9786C58.936 54.5805 59.7525 54.2743 60.5282 53.8865C60.8575 53.7073 61.1217 53.4286 61.2835 53.0904C61.6611 52.2433 61.9469 51.3553 62.2735 50.4572C63.09 50.8246 62.9165 51.4778 62.794 52.0085C62.6074 52.7351 62.3615 53.4451 62.0592 54.1315C61.9694 54.3094 61.8167 54.4477 61.6305 54.5193Z" fill="#F5A2C5"/>
<path id="Vector_14" d="M78.8674 19.4548L45.8383 24.7244C45.5709 23.4886 45.3343 22.2602 45.0344 21.0473C44.7237 19.7901 44.3543 18.5472 44.0042 17.2999C43.908 16.9574 43.6852 16.8867 43.333 16.9445C40.8005 17.3607 38.264 17.754 35.7293 18.1571C30.5975 18.9732 25.4631 19.773 20.3359 20.6172C18.467 20.9249 16.6165 21.345 14.7546 21.6979C14.5436 21.7091 14.3318 21.692 14.1253 21.6473L14.0961 21.4375C14.6046 21.2478 15.1254 21.0923 15.6548 20.9722C23.7097 19.6699 31.7664 18.3784 39.8246 17.0976C49.387 15.5743 58.9498 14.055 68.5134 12.5394C70.739 12.1854 72.9598 11.8007 75.1883 11.467C76.1592 11.2621 77.1716 11.4413 78.013 11.9673C78.2583 12.1086 78.464 12.3095 78.611 12.5514C78.758 12.7933 78.8417 13.0685 78.8542 13.3514C78.8884 15.356 78.8674 17.3616 78.8674 19.4548Z" fill="#F5A2C5"/>
<path id="Vector_15" d="M15.4108 75.9919C15.3833 75.9917 15.3559 75.9901 15.3286 75.9869L14.0458 75.8344C13.9112 75.8185 13.7841 75.7635 13.6805 75.676C13.3486 75.3968 12.5657 74.743 12.2342 74.4818C12.1345 74.4032 12.0581 74.2988 12.0134 74.1799C11.7048 73.28 11.5748 72.3287 11.6307 71.3791L11.6252 32.8181C11.6253 32.6526 11.6844 32.4925 11.7917 32.3667C11.8991 32.2408 12.0479 32.1573 12.2113 32.1313L78.1258 21.619C78.2167 21.6043 78.3096 21.6079 78.399 21.6294C78.4885 21.651 78.5729 21.69 78.6471 21.7445L79.1703 22.1283C79.2904 22.2164 79.3789 22.3408 79.4231 22.4831C79.4672 22.6253 79.4645 22.7779 79.4156 22.9186C79.3169 23.5675 79.3807 28.0498 79.4485 32.7901C79.7953 57.0782 79.4733 64.7499 78.071 65.624C77.919 65.7239 77.7393 65.7731 77.5577 65.7646L76.4723 66.239C76.4182 66.2628 76.3612 66.2796 76.3029 66.2888L15.5205 75.9828C15.4842 75.9888 15.4475 75.9919 15.4108 75.9919ZM14.4161 74.4779L15.3969 74.5935L75.9958 64.9293C76.9247 64.5227 77.2088 64.3991 77.3434 64.3622C78.4726 61.9342 78.1936 42.3406 78.057 32.81C77.9653 26.3842 77.9463 24.0161 78.0131 23.0452L13.0167 33.4111V71.4658C12.981 72.1592 13.0629 72.8538 13.2589 73.52C13.5859 73.7841 14.0907 74.2047 14.4161 74.4779Z" fill="#ED1E71"/>
<path id="Vector_16" d="M8.00284 26.98C7.81833 26.98 7.64138 26.9067 7.51091 26.7763C7.38044 26.6458 7.30714 26.4688 7.30713 26.2843V20.002C7.3071 19.9653 7.3101 19.9285 7.3161 19.8923C7.57349 18.906 8.20746 18.06 9.0818 17.536C9.12794 17.5078 9.17708 17.4848 9.22833 17.4673L10.6746 16.983C10.7108 16.971 10.748 16.9619 10.7857 16.9561L70.9147 7.36557C70.9578 7.35856 71.0015 7.35549 71.0452 7.35651L71.3403 7.35856C72.1934 7.35856 73.5361 7.35358 74.1091 8.21577C74.1851 8.33008 74.2256 8.46429 74.2257 8.60157V11.9764C74.2257 12.1609 74.1525 12.3379 74.022 12.4684C73.8915 12.5988 73.7145 12.6721 73.5301 12.6721C73.3456 12.6721 73.1686 12.5988 73.0381 12.4684C72.9076 12.3379 72.8344 12.1609 72.8344 11.9764V8.90151C72.3547 8.74127 71.8454 8.68947 71.3432 8.75007C71.2436 8.75109 71.1509 8.75109 71.0721 8.74905L11.0618 18.3205L9.75258 18.759C9.26961 19.0702 8.89994 19.5287 8.69854 20.0667V25.469L12.499 24.863C12.5892 24.8487 12.6813 24.8521 12.7701 24.8733C12.859 24.8946 12.9427 24.933 13.0167 24.9866C13.0907 25.0402 13.1534 25.1078 13.2012 25.1856C13.2489 25.2634 13.281 25.3499 13.2954 25.4401C13.3098 25.5303 13.3063 25.6224 13.285 25.7112C13.2639 25.8 13.2253 25.8838 13.1717 25.9578C13.1182 26.0317 13.0505 26.0945 12.9727 26.1422C12.8949 26.19 12.8085 26.2221 12.7183 26.2365L8.11248 26.9711C8.07623 26.9769 8.03957 26.98 8.00284 26.98Z" fill="#ED1E71"/>
<path id="Vector_17" d="M12.8446 30.5313C12.6601 30.5313 12.4831 30.458 12.3526 30.3276C12.2222 30.1971 12.1489 30.0201 12.1489 29.8356V26.694C12.1489 24.9497 12.1489 23.9978 12.2146 23.4796L12.1544 23.4726C12.4047 22.4755 13.0401 21.6185 13.9215 21.0894C13.968 21.0607 14.0177 21.0372 14.0695 21.0196L15.5157 20.5342C15.5522 20.5223 15.5894 20.5132 15.6273 20.5072L75.7564 10.9178L77.4638 10.8699C77.6055 10.8667 77.7449 10.9067 77.8635 10.9846L78.7445 11.5666C79.3475 11.9405 79.5359 12.9432 79.4562 17.9158C79.4473 18.5079 79.4373 19.1198 79.4502 19.2534C79.468 19.43 79.4178 19.6068 79.3096 19.7474C79.2013 19.8881 79.0433 19.982 78.8682 20.0099L12.9543 30.5223C12.9179 30.5283 12.8813 30.5313 12.8446 30.5313ZM14.5962 22.3105C14.1084 22.6247 13.7362 23.0893 13.5358 23.6341C13.5392 23.6609 13.5397 27.3428 13.5403 29.0203L78.0538 18.7312C78.0559 18.5119 78.0598 18.2378 78.0648 17.893C78.15 16.1491 78.0903 14.4011 77.8864 12.6671L77.2794 12.2664L75.8829 12.3004L15.9035 21.8718L14.5962 22.3105Z" fill="#ED1E71"/>
<path id="Vector_18" d="M10.2519 72.3879C9.86286 72.3967 9.47434 72.3544 9.09623 72.2623C8.99655 72.2338 8.90447 72.1834 8.82662 72.1149L7.88772 71.2906C7.78472 71.2004 7.71069 71.0817 7.67492 70.9497L7.33105 69.6739C7.3152 69.6147 7.30717 69.5537 7.30713 69.4924V29.6507C7.30717 29.4852 7.3662 29.3251 7.47362 29.1993C7.58103 29.0734 7.72979 28.9899 7.89319 28.9639L12.3655 28.2502C12.4557 28.2358 12.5478 28.2394 12.6365 28.2605C12.7255 28.2817 12.8092 28.3202 12.8832 28.3738C12.9572 28.4274 13.0198 28.495 13.0676 28.5729C13.1154 28.6507 13.1474 28.7372 13.1618 28.8272C13.1762 28.9174 13.1728 29.0096 13.1515 29.0985C13.1303 29.1873 13.0918 29.2711 13.0382 29.345C12.9846 29.419 12.917 29.4816 12.8391 29.5294C12.7613 29.5773 12.675 29.6093 12.5848 29.6237L8.69854 30.2436V69.4007L8.96368 70.3845L9.61254 70.9536C10.4651 71.0353 11.3253 70.9795 12.1602 70.7881C12.2491 70.7668 12.3413 70.7634 12.4317 70.7779C12.522 70.7924 12.6085 70.8245 12.6864 70.8725C12.7643 70.9204 12.8319 70.9833 12.8855 71.0575C12.9389 71.1316 12.9773 71.2155 12.9984 71.3046C13.0194 71.3935 13.0227 71.4859 13.0081 71.5761C12.9934 71.6664 12.961 71.7529 12.9129 71.8306C12.8648 71.9084 12.8018 71.9759 12.7275 72.0292C12.6531 72.0826 12.5692 72.1208 12.4801 72.1416C11.7477 72.2995 11.0011 72.382 10.2519 72.3879Z" fill="#ED1E71"/>
<path id="Vector_19" d="M24.5274 24.7157C24.6529 24.5413 24.725 24.3342 24.7352 24.1197C24.7453 23.9051 24.693 23.6921 24.5846 23.5066C24.4761 23.3213 24.3163 23.1712 24.1243 23.0748C23.9322 22.9785 23.7164 22.9398 23.5028 22.9636C23.258 22.9806 23.0244 23.0735 22.8348 23.2294C22.6451 23.3853 22.5087 23.5963 22.4447 23.8334C22.3806 24.0704 22.392 24.3215 22.4772 24.5516C22.5625 24.7819 22.7174 24.9798 22.9204 25.1178C23.0508 25.2024 23.1971 25.2592 23.3505 25.2847C23.5037 25.3102 23.6606 25.3038 23.8113 25.2662C23.9621 25.2284 24.1035 25.1601 24.2266 25.0654C24.3498 24.9707 24.4523 24.8517 24.5274 24.7157Z" fill="#F5A2C5"/>
<path id="Vector_20" d="M17.6611 25.6252C18.0096 24.7392 17.4271 23.9982 16.3703 24.2491C15.8785 24.366 14.9847 25.5197 15.9581 26.2283C16.1049 26.3223 16.2712 26.3815 16.4443 26.4015C16.6175 26.4214 16.7929 26.4017 16.9572 26.3435C17.1215 26.2853 17.2703 26.1904 17.3924 26.0659C17.5144 25.9414 17.6062 25.7907 17.6611 25.6252Z" fill="#F5A2C5"/>
<path id="Vector_21" d="M21.1425 25.07C21.2365 24.8654 21.2647 24.6366 21.223 24.4153C21.1813 24.1939 21.0718 23.9911 20.9097 23.8348C20.7475 23.6785 20.5408 23.5764 20.3181 23.5429C20.0954 23.5093 19.8677 23.5459 19.6668 23.6475C19.4897 23.7419 19.3384 23.878 19.2257 24.0441C19.1131 24.2101 19.0425 24.4011 19.0202 24.6005C18.9977 24.7999 19.0243 25.0017 19.0974 25.1886C19.1705 25.3754 19.2879 25.5418 19.4396 25.6731C19.5855 25.77 19.7521 25.8318 19.926 25.8532C20.0999 25.8748 20.2765 25.8555 20.4417 25.7969C20.6069 25.7385 20.7562 25.6423 20.8778 25.5161C20.9995 25.39 21.0901 25.2373 21.1425 25.07Z" fill="#F5A2C5"/>
<path id="Vector_22" d="M95.5662 76.9149L95.5397 76.8781L91.1611 73.063L91.1254 73.0119L91.1132 73.016L91.107 72.9772L91.1132 72.9395L91.1254 72.9129L94.9834 68.2364L95.161 67.8261L95.1814 67.7679L95.1733 67.7383L95.1906 67.6842L95.1794 67.6332L95.1222 67.3954L95.1069 67.3382L95.0835 67.2943L95.0743 67.2688L95.0335 67.2249L94.9947 67.1739L94.9406 67.128L93.3525 65.9634L93.0657 65.7817L93.0228 65.7685L72.1875 60.6796L71.8751 60.6918L71.7945 60.701L71.7547 60.7153L71.7159 60.7296L71.672 60.7571L71.6149 60.8143L71.5843 60.851L71.5394 60.9153L71.5189 60.9633L71.5108 61.0051L71.5057 61.0439L71.5098 61.1266L71.5434 61.4461L79.6565 81.768L79.682 81.8027L79.8974 82.064L79.9494 82.112L81.5375 83.2775L81.6059 83.3204L81.6457 83.3367L81.7039 83.3571L81.7692 83.3776L81.9397 83.3908L82.0081 83.3776L82.0581 83.3796L82.0897 83.3714L82.1377 83.3571L82.1897 83.3245L82.549 83.0765L86.3213 78.6469L89.3454 81.1965L90.9335 82.362L90.9784 82.3763L91.2826 82.4967L91.3224 82.4794L91.65 82.4202L91.9358 82.2008L95.5642 77.8967L95.7275 77.5742L95.7285 77.2374L95.7346 77.1986L95.5662 76.9149Z" fill="white"/>
<path id="Vector_23" d="M91.0839 73.2864C92.5135 74.5368 93.8975 75.7452 95.2791 76.9566C95.8604 77.4664 95.878 77.8007 95.3712 78.4011C94.2916 79.6797 93.2128 80.9589 92.1346 82.2386C91.6629 82.7982 91.5394 82.8255 90.975 82.357C89.6446 81.2534 88.3279 80.1332 87.0052 79.0202C86.8659 78.9029 86.7239 78.7886 86.5588 78.6528C85.2809 80.1498 83.2211 82.5021 82.9195 82.7496C82.7114 82.3947 73.8763 61.7239 73.5377 61.3227C74.5291 61.561 74.0993 61.4558 75.0899 61.6973C80.9381 63.1235 86.7953 64.514 92.6232 66.018C93.5102 66.3597 94.3191 66.8765 95.002 67.5376C95.3907 67.8487 95.1292 68.3227 94.8491 68.6653C93.6853 70.0888 92.518 71.5096 91.3472 72.9274C91.2678 73.0239 91.1988 73.1289 91.0839 73.2864Z" fill="#F5A2C5"/>
<path id="Vector_24" d="M81.9236 83.9999C81.9021 84.0002 81.8804 83.9993 81.8588 83.9971L81.6934 83.975C81.6784 83.973 81.6018 83.9572 81.5867 83.9542C81.478 83.9311 81.3735 83.8915 81.2768 83.8366C81.2648 83.8296 81.1851 83.7778 81.1751 83.7699L79.5874 82.6057C79.5664 82.5917 79.4957 82.5258 79.4777 82.5089L79.2096 82.192C79.1609 82.1315 79.1197 82.065 79.087 81.9946L70.9737 61.6727C70.9534 61.6203 70.94 61.5657 70.9338 61.5101L70.9 61.1912C70.899 61.1773 70.895 61.0795 70.894 61.0656C70.896 61.0437 70.907 60.898 70.911 60.8761C70.9215 60.8257 70.936 60.7762 70.9538 60.7277C70.9773 60.6708 71.0052 60.6157 71.0375 60.5631C71.0514 60.5442 71.1102 60.4614 71.1262 60.4444C71.1946 60.3729 71.2668 60.305 71.3424 60.2412C71.4705 60.1591 71.62 60.1167 71.7721 60.1196L72.106 60.0719C72.1814 60.0613 72.2582 60.0654 72.3322 60.0838L93.1676 65.1729C93.2461 65.1935 93.3215 65.2242 93.3919 65.2647L93.679 65.4461L95.3026 66.6331C95.3146 66.6422 95.3803 66.6979 95.3912 66.7068C95.4447 66.7522 95.4899 66.8067 95.5248 66.8675C95.5428 66.8866 95.5595 66.9067 95.5747 66.9282C95.6502 67.039 95.6987 67.166 95.7162 67.2989L95.77 67.5632C95.773 67.5791 95.786 67.6707 95.788 67.6877C95.808 67.8392 95.7708 67.993 95.6833 68.1184L95.5159 68.4812C95.4936 68.5289 95.4655 68.5737 95.4322 68.6147L91.8989 72.8946L95.9415 76.416C95.9757 76.4462 96.0064 76.4798 96.0332 76.5166C96.0452 76.5325 96.083 76.5864 96.094 76.6033L96.2435 76.8576C96.3052 76.9622 96.3404 77.0802 96.3462 77.2014L96.3441 77.5581C96.344 77.6097 96.3374 77.661 96.3242 77.7109C96.3117 77.7591 96.2948 77.8062 96.2735 77.8513L96.1099 78.1732C96.0888 78.2157 96.0628 78.2556 96.0322 78.2919L92.4042 82.5946C92.3755 82.6284 92.3435 82.6592 92.3085 82.6863L92.0872 82.8559C92.0802 82.8609 92.0085 82.9155 92.0004 82.9205C91.9212 82.9761 91.8318 83.0154 91.7373 83.0362L91.3934 83.0979C91.2934 83.1173 91.19 83.1104 91.0935 83.078L90.7097 82.9315C90.6607 82.912 90.6144 82.8864 90.5722 82.8549L88.9824 81.6897L86.3819 79.496L83.0101 83.4597C82.9752 83.5004 82.9354 83.5367 82.8915 83.5675L82.5526 83.8008C82.4841 83.8611 82.405 83.9084 82.3194 83.9402C82.2421 83.9644 82.1626 83.9815 82.0822 83.9911C82.0295 83.9971 81.9766 84 81.9236 83.9999ZM80.1903 81.4543L80.3697 81.6736L81.8858 82.773L82.1299 82.6047L85.8438 78.2409C85.9494 78.1163 86.1002 78.0386 86.2631 78.0247C86.4259 78.0109 86.5877 78.0621 86.7129 78.1672L90.2323 81.0875L91.3397 81.8629L91.3766 81.8562L91.5112 81.7544L95.1213 77.3649L95.0724 77.2841L90.7995 73.5685C90.7723 73.5473 90.7471 73.5238 90.7237 73.4985C90.6858 73.4577 90.6515 73.4138 90.621 73.3671C90.6101 73.3512 90.6001 73.3352 90.5901 73.3193C90.5782 73.2984 90.5533 73.2504 90.5433 73.2274C90.5255 73.1852 90.5123 73.1412 90.5044 73.0959C90.4869 72.9959 90.4892 72.8931 90.5114 72.7938C90.5209 72.7276 90.5418 72.6635 90.5732 72.6045C90.5998 72.5556 90.6326 72.5104 90.6709 72.47L90.6928 72.438C90.7008 72.4261 90.7486 72.3654 90.7577 72.3533L94.4375 67.896L94.5391 67.6749L94.5201 67.5831L92.8187 66.3501L72.1528 61.3008L72.1449 61.3019L80.1903 81.4543Z" fill="#ED1E71"/>
</g>
</svg>
