<svg width="78" height="83" viewBox="0 0 78 83" fill="none" xmlns="http://www.w3.org/2000/svg">
<g id="Clip path group">
<mask id="mask0_625_708" style="mask-type:luminance" maskUnits="userSpaceOnUse" x="0" y="0" width="78" height="83">
<g id="clip0">
<path id="Vector" d="M78 0H0V82.9524H78V0Z" fill="white"/>
</g>
</mask>
<g mask="url(#mask0_625_708)">
<g id="Group">
<path id="Vector_2" d="M3.08423 18.4223C3.08423 18.4223 3.16111 49.0121 3.08869 59.7688C3.06999 62.5362 9.46983 65.6307 9.46983 65.6307L67.8081 56.5988L67.6784 10.8445L58.4895 7.77728L3.82387 16.8256L3.08423 18.4223Z" fill="white"/>
<path id="Vector_3" d="M25.1376 12.968C25.1376 12.968 23.0757 -0.0470365 42.6112 0.774836C42.6112 0.774836 48.3644 1.62405 48.6173 11.1885C48.6173 11.1885 45.709 13.4824 44.0654 11.649L42.6796 6.38473L40.3366 5.58876C40.3366 5.58876 30.5727 5.6997 30.4279 10.7291C30.4671 12.1916 30.1573 13.6425 29.5243 14.9616C29.5243 14.9616 26.3144 15.994 25.1376 12.968Z" fill="white"/>
<path id="Vector_4" d="M65.6074 54.5588C65.6128 51.3733 65.6167 48.1878 65.6194 45.0022C65.6213 42.3115 65.6234 39.6207 65.6097 36.93C65.6089 36.7854 65.8215 36.382 65.3334 36.5333C65.7605 36.1607 66.1519 35.7493 66.5031 35.3043C66.4814 35.2469 66.4786 35.199 66.4574 35.1887C65.5011 34.7232 65.5887 33.9089 65.6828 33.0453C65.7304 32.3712 65.7368 31.6949 65.7024 31.02C65.6989 30.7612 65.6241 30.5029 65.6235 30.2443C65.6172 27.6358 65.6322 25.0277 65.6156 22.4195C65.6035 20.5103 65.5577 18.6012 65.5184 16.6922C65.5017 15.8915 65.3484 15.7949 64.565 15.7454C62.7077 15.7015 60.8513 15.8658 59.0304 16.2348C57.5549 16.4717 56.0665 16.63 54.5876 16.8482C53.1589 17.0589 51.7366 17.3126 50.3084 17.5273C48.6697 17.7734 47.0261 17.9861 45.3878 18.234C43.5266 18.5156 41.6706 18.8301 39.8095 19.1118C38.1712 19.3598 36.5274 19.5708 34.8894 19.819C33.2688 20.0645 31.6533 20.3438 30.0334 20.5938C28.6529 20.8069 27.2683 20.9935 25.8872 21.2026C24.427 21.4237 20.1201 21.9662 18.6577 22.1719C17.7065 22.3056 16.749 22.4033 15.7912 22.4772C14.9576 22.5414 14.1189 22.5889 13.284 22.5704C12.6157 22.5454 11.9502 22.4707 11.2929 22.3468C10.3959 22.1914 9.96414 21.4381 9.47794 20.7934C8.65659 19.5443 7.64643 18.43 6.48349 17.4905C5.83943 17.1035 5.16615 16.7672 4.46985 16.4847C11.1842 15.2106 25.5994 12.9975 25.5731 13.3709C25.494 14.4931 29.9473 14.8214 30.7518 14.5986C30.7518 14.3903 30.8885 14.1183 30.752 13.938C28.6708 11.1877 39.4285 10.9472 42.9749 10.3837C42.9749 10.6183 43.2431 11.131 43.212 11.3162C43.1334 11.7849 43.4054 11.828 43.7969 11.9168C46.2047 12.5995 46.2009 8.16177 45.6882 6.96973C45.0554 5.49838 43.8018 3.3252 42.2828 2.98046C41.0821 2.7241 39.8419 2.7113 38.6361 2.94282C37.3812 3.22174 36.0732 3.14228 34.8612 2.71353C34.6198 2.61775 34.3538 2.58191 34.1162 2.47913C33.971 2.39404 33.8374 2.29079 33.7182 2.1719C33.8404 2.03149 33.94 1.80261 34.0885 1.76453C35.3726 1.4352 36.6583 1.10321 37.9585 0.848624C38.763 0.707642 39.5764 0.622535 40.3926 0.593948C43.646 0.417011 47.3674 4.31389 47.8352 7.56637C47.8889 7.94015 47.9458 8.31343 48.0095 8.7438C48.9567 8.59522 48.1108 9.58929 49.0327 9.44493C52.6984 8.8712 56.3575 8.25017 60.033 7.74787C61.4702 7.4303 62.9684 7.53653 64.3463 8.05381C64.9545 8.33535 65.5214 8.69898 66.0311 9.13429C67.1991 10.131 68.1695 11.3383 68.8919 12.6934C69.2164 13.3041 69.3946 13.9819 69.413 14.6732C69.4579 20.3843 69.4639 26.0956 69.4314 31.8072C69.4474 32.9775 69.0137 34.1096 68.2197 34.9698C68.0258 35.2018 67.9175 35.4934 67.9128 35.7956C67.8954 41.5403 67.8915 47.285 67.9004 53.0298C67.9005 53.304 67.8975 53.5775 67.878 53.8493L65.6074 54.5588Z" fill="#FFB7A4"/>
<path id="Vector_5" d="M10.8623 66.1978C10.5982 66.1978 10.2838 66.1775 9.93074 66.1514C9.75865 66.1388 9.60289 66.1263 9.48676 66.1233C9.4147 66.1212 9.34364 66.1062 9.2769 66.0789L8.30673 65.6783C8.26191 65.6599 8.21945 65.6361 8.18007 65.6078L5.88081 63.9209C5.52684 63.6568 5.10415 63.3492 4.68444 63.0425C4.29357 62.7582 3.90567 62.4748 3.57882 62.232C3.53326 62.198 3.49277 62.1577 3.45885 62.112C2.9459 61.5817 2.62747 60.8935 2.55541 60.1591L2.50415 59.8748C2.49759 59.8401 2.49425 59.8047 2.49449 59.7694C2.48669 57.5911 2.48967 48.1574 2.49251 39.2663L2.49635 28.2472C2.49635 25.272 2.49635 23.0753 2.49449 22.314C2.49425 22.2771 2.49747 22.2401 2.50415 22.2038C2.66919 21.3041 3.07008 20.4643 3.66586 19.7702C3.84513 19.5489 4.07096 19.3695 4.32712 19.2448C4.58328 19.1201 4.86371 19.0531 5.1486 19.0486H5.1564C5.42878 19.0488 5.69794 19.1069 5.9463 19.2189C6.19454 19.331 6.41616 19.4945 6.59655 19.6986C7.24259 20.4692 7.79849 21.3109 8.25349 22.2077C8.46991 22.6129 8.58877 23.063 8.60078 23.5222C8.62307 24.3869 8.59496 25.7692 8.59496 25.7692V63.1064L8.82029 64.0621L9.17439 64.5612L9.81758 64.9045C9.84643 64.9198 9.87391 64.9372 9.89979 64.9568L10.0178 64.9656C10.3933 65.0072 10.7717 65.0152 11.1485 64.9897L64.7601 56.6016C64.881 56.5542 65.0619 56.4903 65.2457 56.4255C65.4159 56.3656 65.589 56.3056 65.7041 56.2611C65.8048 56.1731 65.9344 56.0648 66.0669 55.9545C66.2197 55.8268 66.3774 55.6963 66.4916 55.5947L66.9239 54.8074L67.0912 53.7289L67.0845 35.2909C67.0846 35.1327 67.1475 34.981 67.2595 34.8692C67.6437 34.485 67.9906 34.0653 68.2955 33.6156C68.3117 33.5141 68.334 33.4136 68.3622 33.3148C68.399 33.1745 68.4338 33.0468 68.4579 32.9781C68.5043 32.8137 68.5865 32.302 68.6243 32.0264L68.6862 31.2584C68.7711 30.5391 68.7952 29.8141 68.7578 29.0908C68.7491 28.6719 68.7414 28.2725 68.7521 27.9387C68.7462 24.7313 68.7462 21.0915 68.7462 17.8657C68.7346 17.4392 68.7414 16.9835 68.7482 16.5231C68.8026 15.4835 68.7429 14.441 68.5702 13.4144C68.1913 12.5841 67.7017 11.809 67.1144 11.1103C66.3644 10.0898 65.43 9.21851 64.3597 8.54127C64.0441 8.39728 63.7166 8.28102 63.3808 8.19411C63.2546 8.1868 63.1293 8.16773 63.0064 8.13703C62.8866 8.11214 62.7655 8.09332 62.6438 8.08082C62.5989 8.07909 62.5544 8.07191 62.5112 8.05965C62.0399 7.99898 61.5626 7.9996 61.0914 8.06163C60.8331 8.08094 60.5931 8.09927 60.4016 8.10125C57.7174 8.4707 55.4986 8.83346 53.1491 9.21838C51.7311 9.44953 50.2638 9.69047 48.5981 9.94576C48.5211 9.95765 48.4424 9.95406 48.3666 9.93549C48.2908 9.91692 48.2195 9.88361 48.1566 9.83743C48.0938 9.79125 48.0406 9.73318 48.0002 9.66645C47.9597 9.59972 47.9329 9.52568 47.9211 9.44854C47.9092 9.37153 47.9127 9.29279 47.9314 9.21702C47.95 9.14137 47.9833 9.06993 48.0294 9.00704C48.0756 8.94427 48.1337 8.89103 48.2004 8.85067C48.2672 8.81018 48.3412 8.78332 48.4182 8.77155C50.079 8.51613 51.5434 8.27631 52.9576 8.04504C55.3148 7.65912 57.5415 7.29451 60.3136 6.91825C60.5574 6.91045 60.7712 6.89411 61.0004 6.87665C61.5875 6.80013 62.1826 6.80756 62.7676 6.89893C62.8894 6.91045 63.0548 6.93756 63.2164 6.96752C63.3412 6.98981 63.463 7.01309 63.5443 7.01878C64.0224 7.12674 64.487 7.2877 64.9294 7.49854C66.1446 8.25576 67.2061 9.23572 68.0575 10.3868C68.7377 11.2001 69.2945 12.109 69.7096 13.0844C69.9195 14.2235 69.9954 15.3829 69.9359 16.5396C69.9302 16.9844 69.9234 17.4246 69.9341 17.8511C69.9341 21.0914 69.9341 24.7293 69.9399 27.9572C69.9292 28.2927 69.9379 28.6709 69.9457 29.0665C69.9872 29.848 69.9597 30.6317 69.8635 31.4082L69.8054 32.155C69.7549 32.5553 69.6823 32.9525 69.5878 33.3447C69.5588 33.4299 69.5375 33.5179 69.5124 33.6136C69.4684 33.8187 69.4047 34.0189 69.3218 34.2114C69.0112 34.6816 68.6601 35.1237 68.2723 35.5327V53.8197L68.0866 55.0617C68.079 55.1128 68.0643 55.1627 68.043 55.2097L67.9086 55.5153L67.4724 56.2728C67.4428 56.3228 67.4064 56.3683 67.364 56.4081C67.2383 56.5242 67.0303 56.6993 66.8282 56.8667C66.6705 56.9982 66.5177 57.1258 66.4218 57.2129C66.3744 57.2563 66.3202 57.2916 66.2614 57.3174C66.1453 57.3676 65.8908 57.4586 65.6402 57.5466C65.442 57.6162 65.2457 57.6849 65.1471 57.7265C65.1029 57.7447 65.0568 57.7576 65.0097 57.7652L11.3575 66.1591C11.1941 66.1882 11.0282 66.2012 10.8623 66.1978ZM4.35746 61.3296C4.66599 61.5588 5.02479 61.8201 5.3847 62.0822C5.80838 62.3907 6.2349 62.7022 6.58788 62.9653L7.49813 63.6326L7.42273 63.3106C7.41221 63.2661 7.40701 63.2207 7.40726 63.1751V25.7566C7.40726 25.7411 7.43425 24.3956 7.41295 23.5531C7.40515 23.2788 7.33396 23.01 7.20495 22.7677C6.79328 21.953 6.29062 21.1876 5.70673 20.486C5.63777 20.408 5.55296 20.3456 5.45812 20.3028C5.36328 20.2599 5.2604 20.2376 5.1564 20.2374C5.05426 20.2306 4.95199 20.2491 4.85876 20.2915C4.76566 20.3338 4.68444 20.3987 4.62241 20.4802C4.14884 21.016 3.82495 21.6673 3.68319 22.3683C3.68418 23.1797 3.68418 25.3417 3.68418 28.2472L3.68133 39.2663C3.67836 48.0867 3.67551 57.4402 3.68232 59.7132L3.72491 59.9493C3.76713 60.4693 3.9911 60.9581 4.35746 61.3296Z" fill="#FC7C54"/>
<path id="Vector_6" d="M30.6658 12.792C30.5163 12.7917 30.3725 12.7354 30.2628 12.6339C30.1531 12.5323 30.0857 12.3933 30.074 12.2443C30.0623 12.0953 30.1071 11.9474 30.1996 11.83C30.2921 11.7127 30.4253 11.6344 30.5729 11.611L43.2499 9.58944C43.3271 9.57669 43.4061 9.57941 43.4823 9.59737C43.5584 9.61532 43.6304 9.64825 43.6939 9.69394C43.7573 9.73975 43.8111 9.79769 43.8521 9.8643C43.8932 9.93091 43.9207 10.0051 43.9331 10.0823C43.9453 10.1596 43.9424 10.2386 43.9242 10.3147C43.9058 10.3909 43.8728 10.4625 43.8267 10.5259C43.7807 10.5892 43.7226 10.6428 43.6559 10.6835C43.589 10.7244 43.5148 10.7515 43.4375 10.7637L30.7606 12.7852C30.7292 12.7897 30.6975 12.7921 30.6658 12.792Z" fill="#FC7C54"/>
<path id="Vector_7" d="M42.9048 40.1892C42.7551 40.189 42.611 40.1324 42.5014 40.0305C42.3917 39.9286 42.3246 39.7892 42.3133 39.64C42.3021 39.4908 42.3476 39.3427 42.4407 39.2256C42.5338 39.1085 42.6678 39.0309 42.8157 39.0083C49.8265 37.9288 58.9293 36.6249 65.4671 35.763C66.1038 35.5391 66.7099 35.236 67.271 34.8607C67.3226 34.8039 67.385 34.7579 67.4546 34.7256C67.5242 34.6933 67.5994 34.6752 67.6762 34.6726C67.7528 34.67 67.8292 34.6828 67.9009 34.7103C67.9725 34.7378 68.0379 34.7794 68.0932 34.8326C68.2083 34.9439 68.2756 35.0956 68.2806 35.2557C68.2857 35.4156 68.2281 35.5712 68.1203 35.6896C67.3716 36.2548 66.5263 36.6788 65.6257 36.9411C59.0929 37.8019 49.9995 39.1049 42.9956 40.1824C42.9656 40.1871 42.9351 40.1893 42.9048 40.1892Z" fill="#FC7C54"/>
<path id="Vector_8" d="M3.08797 22.9064C2.94336 22.9062 2.80383 22.8534 2.69537 22.7578C2.58704 22.6622 2.51708 22.5304 2.49888 22.387L2.12946 19.4628C2.03445 18.7152 2.19368 17.9572 2.58159 17.3108C2.96948 16.6645 3.5634 16.1674 4.268 15.8995C4.66988 15.7333 5.08427 15.5989 5.50708 15.4971C8.97474 14.881 12.9019 14.3103 16.7002 13.758C19.5207 13.3479 22.4361 12.9242 25.0439 12.4977C25.1994 12.4723 25.3585 12.5097 25.4864 12.6016C25.6143 12.6936 25.7005 12.8326 25.7258 12.9881C25.7512 13.1435 25.7138 13.3027 25.6218 13.4306C25.5298 13.5585 25.3908 13.6445 25.2354 13.6699C22.618 14.0984 19.6968 14.5231 16.8715 14.9341C13.0818 15.4846 9.16429 16.0542 5.72177 16.6665C5.37102 16.7551 5.02732 16.8699 4.69365 17.0099C4.23766 17.1828 3.85324 17.5039 3.60215 17.9219C3.35094 18.3399 3.24793 18.8302 3.30946 19.3139L3.67891 22.2379C3.69847 22.3944 3.65526 22.5523 3.55857 22.6768C3.462 22.8015 3.31974 22.8826 3.16337 22.9025C3.13836 22.9052 3.1131 22.9065 3.08797 22.9064Z" fill="#FC7C54"/>
<path id="Vector_9" d="M37.3129 46.7638C37.224 46.7619 37.1352 46.7555 37.047 46.7445C36.9041 46.7598 36.7597 46.733 36.632 46.6671C36.3902 46.5284 36.165 46.3627 35.9608 46.1729C35.1124 45.4541 35.0602 45.3488 35.0244 45.1291C34.9505 44.7352 34.9319 44.3328 34.9693 43.9336L35.2033 36.5748C35.2044 36.5374 35.209 36.5001 35.2169 36.4635L35.3136 36.0293C35.3287 35.9635 35.3545 35.9007 35.39 35.8435L35.6357 35.4518C35.6703 35.397 35.7134 35.3479 35.7634 35.3067L36.1019 35.03C36.1444 34.9957 36.1901 34.9656 36.2382 34.9401C36.6238 34.7839 37.0303 34.6851 37.4445 34.6471C37.6447 34.6248 38.0993 34.5484 38.6352 34.4584C39.6533 34.2536 40.6842 34.1189 41.7208 34.055C41.78 34.0596 41.8383 34.0727 41.8939 34.0937C42.0022 34.1363 42.275 34.2805 42.3756 34.3355C42.4129 34.3567 42.4479 34.3816 42.4801 34.4101L42.9549 34.8308C43.1386 34.99 43.2934 35.1798 43.4125 35.3918C43.604 35.6269 43.6388 35.8928 43.5267 38.7598C43.5102 39.168 43.4966 39.4805 43.4995 39.5685L43.3535 44.2268C43.3523 44.2645 43.3479 44.3021 43.34 44.339L43.2433 44.7723C43.2289 44.8355 43.2044 44.8959 43.1707 44.9512L42.9211 45.3508C42.8805 45.4146 42.8284 45.4704 42.7672 45.5152L42.4267 45.7638C42.3828 45.7965 42.3343 45.8226 42.2826 45.8412L41.8754 45.9921C41.8401 46.0056 41.8035 46.0152 41.7662 46.0211L41.0291 46.1381C40.0193 46.2967 38.1603 46.5898 37.605 46.7185C37.5109 46.7501 37.4122 46.7654 37.3129 46.7638ZM37.0866 45.5528C37.1167 45.5558 37.1476 45.5596 37.1776 45.5625C37.2124 45.5664 37.2482 45.5713 37.2801 45.5741L37.2811 45.5731C37.788 45.4483 39.3201 45.2037 40.8454 44.9637L41.5187 44.8574L41.7933 44.7557L41.9742 44.6233L42.1048 44.4144L42.1677 44.1348L42.3118 39.578C42.3079 39.5539 42.3195 39.1921 42.3388 38.7133C42.3659 38.0217 42.4269 36.4654 42.3931 36.0205L42.3902 36.0166C42.2653 35.944 42.1729 35.8263 42.132 35.6878L41.7421 35.3435C41.685 35.3125 41.6086 35.2718 41.5447 35.24C41.0786 35.2554 39.6335 35.4973 38.8307 35.6307C38.2677 35.7256 37.7898 35.8048 37.5683 35.8299C37.3107 35.8549 37.0565 35.9074 36.81 35.9867L36.5915 36.1656L36.4522 36.3881L36.3893 36.6676L36.1572 43.984C36.1387 44.2437 36.1406 44.5043 36.163 44.7637C36.2916 44.8865 36.5459 45.1118 36.7607 45.2947C36.8631 45.3883 36.9719 45.4746 37.0866 45.5528Z" fill="#FC7C54"/>
<path id="Vector_10" d="M9.46981 66.2252C9.31356 66.2252 9.16363 66.1635 9.05245 66.0537C8.94127 65.9439 8.87788 65.7947 8.8759 65.6384C8.87404 65.4822 8.93372 65.3314 9.04217 65.219C9.15063 65.1064 9.29908 65.0412 9.45533 65.0373L10.6074 65.0094L64.8523 56.4432L65.8331 56.0505L66.4492 55.5195L66.9551 54.7205L67.1109 54.2195L67.2202 53.6091L67.2714 53.6189C67.2067 52.816 67.2076 50.7964 67.2105 45.4262C67.2134 40.7234 67.2163 35.3918 67.2105 35.1703L67.8044 35.148L68.2068 34.7108C68.405 34.8936 68.405 34.8936 68.3992 45.427C68.3972 49.3686 68.3944 53.4428 68.3982 53.6923C68.4003 53.7371 68.3971 53.7818 68.3886 53.8258L68.2629 54.5039L68.0675 55.1481C68.0519 55.1982 68.0298 55.246 68.0017 55.2903L67.4059 56.2304C67.3748 56.2799 67.3363 56.3242 67.2917 56.362L66.5344 57.0149C66.4849 57.0582 66.4283 57.0925 66.367 57.1165L65.2314 57.5711C65.1904 57.5878 65.1476 57.5999 65.1038 57.6069L10.7146 66.1904L9.4843 66.2252H9.46981Z" fill="#FC7C54"/>
<path id="Vector_11" d="M12.3312 45.1806C11.7147 45.1814 11.1021 45.0831 10.5167 44.8895C9.51977 44.4698 8.7082 43.7036 8.23203 42.7325L8.07627 42.4819C7.76824 42.0599 7.54365 41.5829 7.41464 41.0765C7.403 40.9994 7.40659 40.9208 7.42528 40.845C7.44398 40.7694 7.47741 40.698 7.52371 40.6353C7.57002 40.5725 7.62808 40.5194 7.69494 40.4792C7.76167 40.4388 7.83571 40.412 7.91285 40.4004C7.98986 40.3886 8.0686 40.3924 8.14425 40.4111C8.22002 40.4297 8.29121 40.4632 8.35398 40.5095C8.41675 40.5557 8.46987 40.6139 8.51023 40.6806C8.55047 40.7473 8.57721 40.8214 8.58897 40.8985C8.70684 41.2362 8.87225 41.5554 9.08025 41.8464L9.25346 42.125C9.59183 42.8444 10.1706 43.4232 10.8901 43.7616C11.7261 44.0312 12.6198 44.0667 13.4746 43.8641C17.4607 43.158 21.9884 42.4857 26.3663 41.8347C29.4344 41.3791 32.4533 40.9304 35.1916 40.4874C35.2684 40.4749 35.3472 40.4778 35.4231 40.4957C35.499 40.5137 35.5705 40.5464 35.6338 40.5921C35.697 40.6376 35.7507 40.6953 35.7915 40.7617C35.8325 40.828 35.86 40.9018 35.8725 40.9787C35.8849 41.0557 35.882 41.1345 35.8641 41.2102C35.8461 41.2861 35.8135 41.3578 35.7678 41.421C35.7222 41.4842 35.6645 41.5378 35.5983 41.5788C35.5319 41.6198 35.4581 41.6473 35.3811 41.6597C32.639 42.1046 29.6143 42.5544 26.5414 43.0109C22.1703 43.6601 17.6512 44.3312 13.7484 45.02C13.2833 45.1253 12.808 45.1792 12.3312 45.1806Z" fill="#FC7C54"/>
<path id="Vector_12" d="M28.0034 15.5542C27.1893 15.547 26.3831 15.394 25.623 15.1025C25.2834 14.9698 24.978 14.7625 24.7293 14.496C24.4304 14.2367 24.4757 13.7822 24.5269 13.2637C24.5356 13.1737 24.5455 13.0925 24.5474 13.0384C24.5435 13.0037 24.5425 12.9687 24.5445 12.9339C24.5882 11.0256 24.9572 9.13884 25.6354 7.35462C26.6619 5.10339 28.3823 3.23975 30.5445 2.03667C32.6413 1.08169 34.8824 0.481873 37.1759 0.261727L37.5203 0.21047C39.5265 -0.196666 41.6045 -0.0668762 43.5443 0.586727C44.2233 0.878447 44.8716 1.2368 45.4797 1.65652C45.5535 1.70211 45.6209 1.7574 45.6799 1.82094L46.3988 2.4284C46.4703 2.49126 46.7381 2.79692 46.9596 3.0571C47.0786 3.19542 47.1811 3.31634 47.2189 3.35697C47.2375 3.37534 47.2944 3.45078 47.3099 3.47206L47.9125 4.43643C48.5368 5.74287 48.9187 7.15182 49.0393 8.5947C49.1031 9.30846 49.1806 10.2758 49.2116 10.9867C49.2064 11.1568 49.1668 11.3242 49.0951 11.4786C49.0234 11.6331 48.9213 11.7714 48.7947 11.8853C48.7869 11.894 48.7783 11.9018 48.7705 11.9094C48.2553 12.3148 47.6287 12.5531 46.9744 12.5924C46.0786 12.6726 45.176 12.5686 44.3221 12.2867C43.9025 12.172 43.518 11.955 43.203 11.655C43.0367 11.5243 42.9242 11.3371 42.8867 11.1288C42.88 11.0932 42.8766 11.0569 42.8769 11.0205L42.8759 10.6191C42.9387 9.51435 42.8277 8.40663 42.5472 7.33617C42.0839 6.04013 40.8603 6.07975 39.0523 6.29543L38.1103 6.43769C36.791 6.60396 35.4836 6.85331 34.1959 7.18438C31.2544 8.11394 30.7244 10.473 30.8269 13.9746C30.8289 14.0293 30.8229 14.0841 30.8094 14.137C30.6247 14.8683 29.9234 15.3297 28.724 15.5086C28.485 15.5389 28.2443 15.5542 28.0034 15.5542ZM25.679 13.7676C25.7917 13.8648 25.9198 13.9423 26.0581 13.9969C26.8528 14.308 27.711 14.4228 28.5594 14.3315C29.3507 14.2136 29.5733 14.0056 29.6362 13.8962C29.5492 10.5244 30.0231 7.25693 33.8544 6.04595C35.1969 5.69743 36.5601 5.43545 37.9361 5.2615L38.8879 5.11837C40.5758 4.92003 42.8499 4.65111 43.6701 6.94741C43.997 8.14279 44.1302 9.38274 44.0648 10.6201V10.8387C44.2478 10.9828 44.4571 11.09 44.6809 11.1541C45.3744 11.387 46.1083 11.4746 46.8369 11.4114C47.2413 11.3923 47.6324 11.2614 47.9667 11.0331C47.9922 11.0089 48.0144 10.9811 48.0326 10.9509C47.9948 10.3435 47.9174 9.39748 47.8565 8.70687C47.753 7.43274 47.4235 6.1871 46.8834 5.02836L46.3244 4.1347C46.3185 4.1347 46.1967 3.99245 46.0564 3.82902C45.8842 3.62687 45.6812 3.38796 45.6095 3.31735L44.8483 2.66637C44.8093 2.64045 44.7719 2.61234 44.7361 2.58218C44.2198 2.23571 43.6729 1.93722 43.1022 1.69046C41.3576 1.11913 39.494 1.01409 37.6963 1.38577L37.3529 1.43703C35.1946 1.63714 33.0845 2.19343 31.1082 3.08331C29.184 4.16652 27.65 5.82817 26.7237 7.83252C26.1092 9.46991 25.7747 11.199 25.7342 12.9475C25.7376 13.0926 25.7295 13.2378 25.7101 13.3818C25.7004 13.4775 25.6828 13.6486 25.679 13.7676Z" fill="#FC7C54"/>
<path id="Vector_13" d="M74.5646 66.0761L74.5636 63.9253L74.5625 61.7756V59.9725L74.5604 58.7764L74.5455 58.1079L74.5085 57.8036L74.462 57.7064L74.4207 57.6356L74.3292 57.5366L74.1933 57.4246L74.0287 57.3033L73.851 57.1738L73.6616 57.0353L73.4579 56.8862L73.2383 56.7251L73.0004 56.5505L72.7427 56.3614L72.4629 56.1563L72.1603 55.9343L71.8338 55.695L71.4889 55.4418L71.131 55.1792L70.766 54.9114L70.3987 54.6423L70.0306 54.3722L69.6612 54.1015L69.2909 53.8297L68.9206 53.5581L68.5556 53.2906L68.2039 53.0326L67.8722 52.7893L67.5654 52.5639L67.2765 52.3523L66.9982 52.1482L66.7221 51.9457L66.4439 51.7415L66.1763 51.5448L65.9349 51.3676L65.7377 51.222L65.5948 51.1179L65.4948 51.0569L65.3986 51.0233L65.3335 51.0062L65.1812 51.0052L65.0862 51.0165L64.9484 50.8948L64.6161 50.6882L64.2078 50.498L63.7311 50.3274L63.1937 50.1796L63.1079 50.1774L62.5344 50.0596L61.9193 49.9681L61.2762 49.903L60.6152 49.8672L59.9462 49.8632L59.2797 49.8891L58.6276 49.9427L58.0028 50.0248L57.4175 50.1357L56.8783 50.2722L56.7795 50.2758L56.2808 50.4388L55.8486 50.6225L55.4914 50.8244L55.2139 51.0404L55.0204 51.2669L54.9366 51.3387L54.8294 51.5755L54.8147 51.8152L54.7707 51.9641L54.7544 52.2246L54.7521 52.6384V52.6574L53.8884 52.7952L52.2511 53.0563L50.7464 53.2963L49.4402 53.5046L48.3825 53.6733L47.5567 53.8051L46.9302 53.9051L46.47 53.9784L46.1452 54.0316L45.9319 54.0753L45.8064 54.1205L45.737 54.1759L45.693 54.2789L45.6661 54.5781L45.6545 55.244L45.6522 56.4399L45.6535 58.2429L45.6563 60.3922L45.6597 62.5428L45.6625 64.3491L45.6687 65.5511L45.7004 66.23L45.7845 66.552L45.8174 66.5969L45.9008 66.6655L46.0389 66.7678L46.2326 66.9097L46.4695 67.0833L46.7332 67.2768L47.0081 67.4783L47.2818 67.6792L47.5584 67.882L47.8454 68.0924L48.1506 68.3163L48.4792 68.5575L48.8272 68.8126L49.1882 69.0775L49.5557 69.347L49.9241 69.6173L50.2927 69.8876L50.6612 70.158L51.0298 70.4282L51.3972 70.6976L51.7583 70.9625L52.1063 71.2178L52.4349 71.4588L52.7391 71.6819L53.0194 71.8875L53.2775 72.0769L53.5156 72.2515L53.7355 72.4127L53.9384 72.5616L54.1257 72.699L54.299 72.8263L54.4593 72.9429L54.6087 73.0451L54.7489 73.1272L54.8816 73.1839L54.9501 73.2472L55.0744 73.2714L55.2274 73.2695L55.4409 73.2438L55.7472 73.1961L56.1791 73.1273L56.7733 73.0324L57.5677 72.9058L58.5997 72.7412L59.8894 72.5356L61.3858 72.2969L63.0198 72.0363L64.7225 71.7646L66.4258 71.4931L68.0599 71.2324L69.557 70.9937L70.8483 70.7878L71.8825 70.6227L72.6792 70.4957L73.2754 70.4006L73.7071 70.3318L74.0086 70.2825L74.2001 70.2436L74.2985 70.2054L74.428 70.115L74.4948 69.8141L74.536 69.7566L74.5625 69.0842L74.5657 67.8828L74.5646 66.0761ZM65.5742 55.5972L65.5723 55.4323L65.5823 55.4634L65.5742 55.5972ZM65.5953 55.4034L65.5951 55.4017L65.6133 55.4273L65.5953 55.4034ZM65.5867 55.3919L65.5717 55.372V55.3688L65.5868 55.3901L65.5867 55.3919ZM54.7495 55.3933L54.7481 55.5164L54.7204 55.7334L54.7353 55.4896L54.66 55.5909L54.7495 55.3933Z" fill="white"/>
<path id="Vector_14" d="M46.1384 54.1332L54.806 52.7461C54.806 53.0091 54.806 53.243 54.806 53.4768C54.806 54.0059 54.8078 54.5348 54.8041 55.0638C54.811 55.1504 54.7958 55.2372 54.7599 55.3163C54.66 55.4197 54.5869 55.5459 54.5473 55.6842C54.5077 55.8224 54.5025 55.9683 54.5325 56.1089C54.5623 56.2494 54.6262 56.3807 54.7187 56.4907C54.811 56.6009 54.9292 56.6867 55.0624 56.7406C55.6787 57.1213 56.3642 57.3763 57.0795 57.491C58.1913 57.7334 59.3296 57.8331 60.4665 57.7875C60.955 57.7527 61.4405 57.6859 61.9201 57.5874C62.2885 57.5208 62.3681 57.4056 62.3704 57.0272C62.3747 56.2514 62.3716 55.4756 62.3715 54.6998C62.3715 54.497 62.3722 54.2942 62.371 54.0914C62.3686 53.7075 62.2244 53.5465 61.8424 53.5352C61.0504 53.5114 60.2548 53.5371 59.4667 53.4713C58.234 53.4467 57.023 53.1423 55.9252 52.5811C55.7129 52.4607 55.5257 52.3009 55.3735 52.1101C55.3064 52.0063 55.2626 51.8895 55.2447 51.7671C55.2269 51.6449 55.2356 51.5204 55.2701 51.4018C55.3047 51.2832 55.3643 51.1734 55.4452 51.0799C55.5259 50.9864 55.6258 50.9114 55.738 50.86C56.2689 50.5268 56.8616 50.3042 57.4805 50.2054C59.3274 49.8381 61.2297 49.8503 63.0717 50.2414C63.8026 50.3629 64.4991 50.6392 65.1145 51.052C65.2341 51.1404 65.4387 51.1054 65.5788 51.1769C65.7693 51.2861 65.9508 51.4103 66.1215 51.5484C68.0254 52.9448 69.9289 54.3418 71.8319 55.7395C72.6599 56.3466 73.496 56.9433 74.3146 57.5629C74.4422 57.6781 74.5292 57.8313 74.5627 57.9998C74.6046 58.2249 74.6213 58.4541 74.6124 58.6829C74.6156 62.1564 74.6162 65.63 74.6143 69.1036C74.6141 69.3585 74.5897 69.6136 74.573 69.8684C74.5755 69.9841 74.5324 70.0962 74.4529 70.1803C74.3734 70.2647 74.264 70.3142 74.1484 70.3183C73.1829 70.4666 72.2195 70.6282 71.2551 70.7824C69.3343 71.0899 67.4135 71.3964 65.4926 71.7023C63.4414 72.0298 61.3903 72.3574 59.3392 72.6851C58.0363 72.8931 56.7345 73.1006 55.4342 73.3075C55.4342 71.4802 55.434 69.658 55.4337 67.8408C55.4311 65.6723 55.4266 63.5038 55.4207 61.3353C55.4197 61.2464 55.3943 61.1593 55.3473 61.0838C55.3002 61.0083 55.2332 60.9471 55.1539 60.9071C54.7104 60.5977 54.3138 60.2222 53.8779 59.9013C52.0126 58.5285 50.1383 57.1677 48.2703 55.7986C47.5569 55.2759 46.8512 54.7428 46.1419 54.2144L46.1384 54.1332Z" fill="#FFB7A4"/>
<path id="Vector_15" d="M74.4625 58.3178C74.3803 58.318 74.2988 58.3004 74.2239 58.2664C74.149 58.2323 74.0823 58.1826 74.0282 58.1205C74.0064 58.0985 73.9863 58.075 73.9683 58.0498L73.8155 57.8816L65.2784 51.6214C65.2638 51.6194 65.2503 51.6176 65.2368 51.6147L65.2232 51.6167C65.052 51.6412 64.8778 51.5981 64.7376 51.4967C64.73 51.4899 64.6797 51.4465 64.6478 51.4184L64.3875 51.2617C64.2521 51.1816 64.1539 51.0511 64.1144 50.8988C64.075 50.7466 64.0976 50.5849 64.1773 50.4492C64.2569 50.3133 64.387 50.2148 64.5392 50.1749C64.6915 50.1351 64.8533 50.1571 64.9892 50.2363L65.3103 50.4211C65.3721 50.4178 65.4338 50.4268 65.4921 50.4472C65.5258 50.4499 65.5591 50.4557 65.5918 50.4646C65.6641 50.4861 65.7343 50.5139 65.8017 50.5478L74.7063 57.0768C74.7438 57.1069 74.7772 57.1417 74.806 57.1803L74.8794 57.279L74.9017 57.3109C74.9173 57.3278 74.9318 57.3456 74.9452 57.3642C75.0106 57.4534 75.05 57.5591 75.059 57.6694C75.0679 57.7797 75.0463 57.8902 74.9964 57.989C74.9464 58.0877 74.8701 58.1708 74.7759 58.2287C74.6817 58.2868 74.5732 58.3175 74.4625 58.3178Z" fill="#FC7C54"/>
<path id="Vector_16" d="M60.4244 54.1597L58.9774 54.1181L57.6058 53.9488L56.39 53.6586L55.3975 53.2582L54.998 53.0144L54.6653 52.732C54.6313 52.702 54.6007 52.6682 54.5743 52.6313L54.4079 52.3983C54.3723 52.3484 54.3445 52.2933 54.3257 52.2349L54.2493 51.9969C54.2269 51.9267 54.2176 51.8528 54.2222 51.7792L54.2367 51.5393C54.2414 51.4614 54.2613 51.3852 54.2954 51.315C54.3296 51.2448 54.3771 51.182 54.4355 51.1301C54.494 51.0784 54.5619 51.0385 54.6357 51.013C54.7095 50.9876 54.7876 50.9768 54.8655 50.9815C54.9434 50.9862 55.0197 51.0063 55.0899 51.0405C55.1601 51.0746 55.2228 51.1223 55.2745 51.1808C55.3262 51.2392 55.366 51.3073 55.3913 51.3811C55.4168 51.455 55.4274 51.533 55.4227 51.611L55.4149 51.7396L55.5019 51.8856L55.7041 52.0636L56.3155 52.3742L57.2537 52.6644L58.425 52.8694L59.7337 52.9671L60.406 52.9719L61.7311 52.8907L62.9383 52.6962L63.9346 52.408L64.63 52.0636L64.9221 51.7493L64.9299 51.6197C64.9411 51.4632 65.0132 51.3172 65.1307 51.2131C65.2482 51.1089 65.4017 51.055 65.5586 51.0625C65.6365 51.0672 65.7127 51.0872 65.7828 51.1212C65.853 51.1554 65.9158 51.2029 65.9675 51.2614C66.0193 51.3198 66.059 51.3878 66.0844 51.4616C66.1099 51.5353 66.1204 51.6133 66.1157 51.6912L66.1012 51.9302C66.0973 52.0027 66.0798 52.0739 66.05 52.14L65.9425 52.377C65.9192 52.4278 65.889 52.4749 65.8526 52.5173L65.6563 52.7476C65.6299 52.7779 65.6008 52.8058 65.5692 52.8308L65.2867 53.0503L64.8515 53.3037L64.3524 53.5194L63.1926 53.857L61.8578 54.0717L60.4244 54.1597Z" fill="#FC7C54"/>
<path id="Vector_17" d="M55.0738 73.864C55.0355 73.8644 54.9973 73.8608 54.9596 73.8533L54.8358 73.8292C54.7964 73.8214 54.7578 73.8098 54.7208 73.7944L54.0572 73.3959L45.7039 67.2635C45.7 67.2605 45.6275 67.2064 45.6227 67.2024L45.5221 67.1232L45.4389 67.0545C45.4 67.022 45.3653 66.985 45.3354 66.9441C45.2641 66.8423 45.2193 66.7243 45.2048 66.6008L45.1381 66.3484C45.1273 66.3079 45.1209 66.2664 45.1187 66.2246L45.0868 65.5455L45.0597 55.2461L45.1051 54.2219C45.1103 54.1843 45.1175 54.1473 45.1264 54.1105C45.1762 53.9776 45.2485 53.8543 45.3401 53.7459C45.3659 53.7146 45.3947 53.6861 45.4263 53.6607C45.4826 53.6193 45.544 53.5852 45.609 53.5592L46.026 53.448L54.1635 52.1577L54.1925 51.6838C54.1953 51.6394 54.2031 51.5956 54.2158 51.5531L54.3812 51.1218C54.4145 51.0499 54.4578 50.9831 54.5098 50.9234L54.7623 50.6535C54.789 50.6244 54.8174 50.5971 54.8475 50.5713L55.124 50.3547L55.5574 50.1032L56.5933 49.7095L57.8294 49.4367L59.203 49.2878L59.9158 49.2607L61.3405 49.3013L62.6919 49.4697L63.8884 49.7541L64.8672 50.1486L65.2608 50.3886C65.2879 50.4049 65.3856 50.4863 65.4089 50.5076C65.4137 50.5114 65.4853 50.5743 65.4901 50.5791L65.6652 50.7301C65.702 50.7617 65.7348 50.7978 65.7629 50.8374L65.9293 51.0705C65.9652 51.1205 65.9929 51.176 66.0115 51.2349L66.1353 51.6334C66.1478 51.676 66.1556 51.7198 66.1584 51.764L66.1817 55.2548L66.2582 55.4899C66.2808 55.5597 66.2899 55.6333 66.2852 55.7066L66.2707 55.9542C66.2669 56.0271 66.2492 56.0987 66.2185 56.165L66.1073 56.4097C66.0843 56.4608 66.054 56.5085 66.0173 56.551L65.8143 56.7879C65.7891 56.8179 65.7609 56.8451 65.7301 56.8691L65.4399 57.0965L64.9891 57.3576L64.4774 57.5781L63.2847 57.9264L61.9083 58.1469L60.4314 58.2379L58.9399 58.1933L57.5267 58.0202L56.275 57.7213L55.2545 57.3093L54.8425 57.0587L54.503 56.7705C54.4684 56.7399 54.4372 56.7055 54.4102 56.668L54.2389 56.4271C54.2043 56.3775 54.1769 56.323 54.1577 56.2656L54.0783 56.0199C54.0559 55.9491 54.0468 55.8746 54.0514 55.8004L54.0668 55.5528C54.0707 55.4811 54.088 55.4109 54.1181 55.3458L54.1577 55.2568V53.3629L47.1412 54.4713L54.976 60.212L74.3192 57.1264C74.4314 57.1083 74.5463 57.119 74.6533 57.1575C74.7601 57.1959 74.8556 57.2608 74.9306 57.3461C74.9973 57.4346 75.0429 57.5371 75.0641 57.6459C75.0669 57.6652 75.0824 57.7784 75.0834 57.7977L75.1133 58.8211L75.1559 69.0732L75.1299 69.7783C75.1283 69.8174 75.1228 69.8563 75.1135 69.8944L75.0128 70.2464C74.9634 70.3827 74.8802 70.5042 74.771 70.5995C74.7287 70.6295 74.6845 70.6566 74.6385 70.6807C74.5495 70.7221 74.456 70.7529 74.36 70.7726L72.8307 71.0067L55.0815 73.864H55.0738ZM55.1086 72.6713L55.128 72.6753L55.3708 72.653L56.0285 72.4838L73.9461 69.6225L73.9682 69.0596L73.9161 58.3955L54.9896 61.4135C54.8049 61.4434 54.6154 61.4064 54.4557 61.309L46.2475 55.2897L46.3036 66.1056L46.3645 66.3397L46.4033 66.3019L55.1086 72.6713ZM46.0279 66.6414L45.9786 66.7266L46.054 66.6511L46.0279 66.6414ZM55.3387 55.9232L55.5487 56.107L56.1842 56.431L57.1544 56.7309L58.3654 56.9437L59.7185 57.0452L60.4131 57.05L61.7817 56.9658L63.0304 56.7656L64.0605 56.4668L64.7822 56.1098L65.0926 55.7481L65.0656 55.662C65.0351 55.6028 65.0146 55.5392 65.0047 55.4734C65.0017 55.4512 64.9949 55.3816 64.9949 55.3593L64.9078 51.6856L64.7163 51.4824L65.02 50.9563L64.6313 51.4051L64.3024 51.1922L63.5306 50.8867L62.483 50.6391L61.2508 50.4861L59.9343 50.4485L58.6313 50.5277L57.4455 50.7193L56.4666 51.0027L55.7818 51.3413L55.4356 51.6769L55.3755 51.8084L55.3475 52.2592L55.3485 52.6461C55.3485 52.6596 55.3475 52.6789 55.3455 52.6984L55.3436 55.3815C55.3324 55.4778 55.3107 55.5725 55.2788 55.664L55.244 55.7617L55.3387 55.9232Z" fill="#FC7C54"/>
<path id="Vector_18" d="M44.2557 75.5938C44.2146 72.9624 44.3344 69.9399 44.1997 67.3212C43.8446 66.7347 42.9613 66.3431 42.4339 65.879C40.6188 64.5479 38.7827 63.2011 36.9676 61.8699C36.538 61.5552 36.0552 61.2007 35.626 60.8852C35.3829 60.7047 35.1075 60.4465 34.7773 60.5341C32.4884 58.9791 28.5358 59.1831 25.9719 59.9562C25.4751 60.0482 25.0352 60.3334 24.7486 60.7494C24.462 61.1654 24.3522 61.6781 24.4433 62.175C21.9015 62.5819 19.1604 63.0164 16.6213 63.4227C16.2628 63.549 15.5793 63.422 15.384 63.7964C15.2799 67.4573 15.3755 71.4036 15.3598 75.0687C15.3881 75.313 15.3537 75.9064 15.5086 76.1144C15.698 76.2729 15.9627 76.4508 16.1606 76.6009C16.9343 77.1685 17.7443 77.7625 18.5184 78.3303C20.5621 79.7891 22.5576 81.3779 24.6412 82.7649C28.415 82.375 32.3431 81.5434 36.1171 81.0107C38.7062 80.5079 41.6 80.3139 44.1192 79.6326C44.1337 79.5813 44.1773 79.3029 44.2272 79.2742C44.2781 78.2514 44.2495 76.6279 44.2557 75.5938ZM35.2652 65.1148L35.2635 64.95C35.2802 64.9688 35.2656 65.0913 35.2652 65.1148ZM35.2864 64.9211L35.2862 64.9194L35.3045 64.945L35.2864 64.9211ZM35.2779 64.9097L35.2628 64.8896V64.8865L35.278 64.9078L35.2779 64.9097ZM24.4406 64.9109C24.4395 65.0248 24.4297 65.1386 24.4115 65.251L24.4263 65.0072L24.3512 65.1085L24.4406 64.9109Z" fill="white"/>
<path id="Vector_19" d="M15.8291 63.6512L24.4966 62.2643C24.8686 63.5738 23.6682 65.5363 24.7527 66.2587C26.6423 67.1493 30.6524 68.2006 32.0613 66.5461C33.0458 60.7547 28.9159 64.2434 25.6156 62.099C22.8493 58.6627 33.2304 59.0409 34.8045 60.5699C46.0228 67.5275 44.479 66.6875 44.2631 79.3866C38.5401 81.3862 31.3309 81.4768 25.1248 82.8256C25.2843 69.8625 26.769 71.1834 15.8326 63.7324L15.8291 63.6512Z" fill="#FFB7A4"/>
<path id="Vector_20" d="M24.844 70.4261L25.1253 82.4723L43.7869 79.3533V67.4676L24.844 70.4261Z" fill="white"/>
<path id="Vector_21" d="M44.168 67.8437C44.0802 67.8439 43.9936 67.8246 43.9143 67.7871C43.835 67.7496 43.765 67.695 43.7096 67.627C43.4269 67.3249 43.1049 67.0623 42.7519 66.8464C42.5121 66.682 42.2721 66.5175 42.0555 66.3376L35.5158 61.542C35.4191 61.4782 35.3262 61.4092 35.2373 61.335C35.1454 61.2527 35.043 61.1829 34.9326 61.128C34.8346 61.1551 34.7311 61.1547 34.6333 61.1269C34.5355 61.0991 34.4474 61.0449 34.3784 60.9702C34.287 60.9002 34.1896 60.8383 34.0872 60.7855C33.9503 60.7078 33.8497 60.5789 33.8078 60.427C33.7659 60.2752 33.786 60.1129 33.8637 59.9759C33.9415 59.8389 34.0705 59.7385 34.2223 59.6965C34.3741 59.6546 34.5364 59.6747 34.6733 59.7525C34.774 59.8085 34.8813 59.8714 34.982 59.9392C35.3565 59.9816 35.7068 60.1458 35.9791 60.4063C36.044 60.461 36.1117 60.512 36.1823 60.5592L42.7858 65.4013C43.0035 65.5793 43.2133 65.7214 43.4232 65.8655C43.8704 66.142 44.2756 66.481 44.6265 66.8725C44.6761 66.9327 44.7134 67.002 44.7362 67.0767C44.759 67.1512 44.7668 67.2296 44.7592 67.3072C44.7517 67.3848 44.7289 67.4602 44.6922 67.5291C44.6555 67.5978 44.6056 67.6587 44.5453 67.7082C44.4394 67.7964 44.3058 67.8443 44.168 67.8437Z" fill="#FC7C54"/>
<path id="Vector_22" d="M29.7701 63.6815C29.535 63.6815 29.3126 63.6767 29.1065 63.667C25.8217 63.5229 23.8853 62.5547 23.9269 61.0777C23.9266 60.9989 23.9424 60.9209 23.9734 60.8485C24.0043 60.7762 24.0499 60.711 24.1071 60.6569C24.1643 60.6027 24.2319 60.5609 24.3059 60.5339C24.3799 60.507 24.4586 60.4955 24.5372 60.5002C24.6152 60.5023 24.6921 60.5198 24.7633 60.5516C24.8346 60.5834 24.8988 60.629 24.9524 60.6856C25.0062 60.7423 25.048 60.809 25.0759 60.8819C25.1037 60.9549 25.1169 61.0325 25.1146 61.1105C25.0992 61.6831 26.64 62.3689 29.1587 62.4802C32.1834 62.5982 34.5764 61.867 34.6209 61.1376C34.6248 61.0595 34.6442 60.983 34.6782 60.9124C34.7121 60.8418 34.7596 60.7788 34.8182 60.7269C34.8768 60.675 34.9451 60.6354 35.0191 60.6102C35.0932 60.585 35.1716 60.575 35.2497 60.5805C35.4069 60.59 35.5539 60.6616 35.6584 60.7794C35.7629 60.8974 35.8162 61.0519 35.8068 61.2092C35.6897 63.1824 32.1177 63.6815 29.7701 63.6815Z" fill="#FC7C54"/>
<path id="Vector_23" d="M24.8533 83.3855C24.638 83.3888 24.4254 83.3375 24.2353 83.2365L24.0882 83.136C21.1304 80.9916 18.0718 78.7746 15.1178 76.5441C15.0362 76.4826 14.9718 76.401 14.931 76.3073C14.8901 76.2135 14.8743 76.1109 14.8847 76.0093C14.7492 74.7216 14.7098 73.4259 14.7667 72.1324C14.7803 71.3558 14.7948 70.5945 14.7667 69.901C14.789 69.1242 14.7735 68.3166 14.759 67.4944C14.7089 66.2066 14.7331 64.917 14.8315 63.6321C14.8437 63.5189 14.8879 63.4113 14.9591 63.3222C15.0301 63.2331 15.1251 63.1661 15.2329 63.1291C15.5145 62.9897 15.8224 62.9112 16.1364 62.8989C16.2441 62.8919 16.3512 62.8764 16.4565 62.8525C17.7923 62.6427 19.102 62.4317 20.4126 62.2218C21.5695 62.0351 22.7263 61.8494 23.8512 61.6753C23.8358 61.375 23.8904 61.0751 24.0109 60.7995C24.1313 60.5239 24.314 60.28 24.5448 60.0871C26.5093 58.7552 29.3404 58.434 32.9938 59.1141L33.1901 59.1672C34.0723 59.4206 35.4061 59.8027 35.7805 60.9954C35.8834 61.7228 35.9138 62.4586 35.8714 63.192C35.8408 63.7631 35.8521 64.3356 35.9053 64.905C35.9551 65.1159 35.9579 65.335 35.9138 65.5471C35.8696 65.7592 35.7796 65.959 35.6499 66.1325C34.8461 67.2584 32.5382 67.5824 30.8726 67.7285C30.8571 67.7295 30.7594 67.7314 30.7449 67.7314C28.6508 67.7633 25.4888 67.8001 23.9605 65.9855C23.9276 65.9459 23.8996 65.9023 23.8773 65.8559C23.7987 65.6852 23.7554 65.5003 23.7503 65.3125C23.7451 65.1245 23.7781 64.9376 23.8474 64.7629C23.8502 64.2347 23.8502 63.665 23.8493 63.1088V62.8786C22.7843 63.0441 21.6923 63.2191 20.6012 63.3952C19.3303 63.5992 18.0603 63.8034 16.8348 63.9919C18.3843 65.1323 19.9367 66.2715 21.4921 67.4093L24.6609 69.7316C31.099 68.7083 37.6213 67.6675 44.0564 66.6384C44.1383 66.6255 44.2219 66.6298 44.3021 66.6512C44.3822 66.6725 44.4569 66.7103 44.5217 66.7623C44.5863 66.8142 44.6394 66.8791 44.6776 66.9526C44.7157 67.0263 44.738 67.107 44.7431 67.1898C44.8427 68.8506 44.8263 70.6786 44.8108 72.4459C44.8001 73.5399 44.7905 74.6212 44.8079 75.6427C44.7876 76.0808 44.8079 76.5441 44.8282 77.0249C44.9161 77.9477 44.8705 78.8784 44.6928 79.7883C44.6636 79.8969 44.6041 79.9949 44.5214 80.0711C44.4389 80.1474 44.3362 80.1985 44.2257 80.2188C41.3819 80.7343 38.4201 81.1938 35.5542 81.6386C33.5983 81.9425 31.6464 82.2452 29.7255 82.5663C29.2341 82.6524 28.703 82.7327 28.1652 82.814C27.2744 82.9493 26.3545 83.0886 25.5497 83.2636C25.3246 83.3374 25.09 83.3785 24.8533 83.3855ZM16.0502 75.7587C18.9278 77.9272 21.905 80.0852 24.7856 82.1735L24.8678 82.2335C24.8833 82.2199 25.1657 82.1387 25.2585 82.1126C26.1387 81.9192 27.0779 81.7769 27.9872 81.6386C28.5163 81.5584 29.0377 81.48 29.5251 81.3949C31.4548 81.0718 33.4116 80.7681 35.3723 80.4644C38.0971 80.0407 40.9098 79.6044 43.6171 79.1199C43.6833 78.4403 43.691 77.7561 43.6404 77.0751C43.6191 76.5556 43.5988 76.0644 43.6201 75.6232C43.6017 74.6318 43.6113 73.5398 43.6221 72.4351C43.6356 70.9204 43.6501 69.3612 43.5901 67.9171C37.2845 68.9249 30.9026 69.9435 24.6018 70.9446C24.445 70.9689 24.285 70.9299 24.1569 70.8363L20.7899 68.3677C19.1735 67.1839 17.5582 65.9986 15.9439 64.8122C15.9139 65.6624 15.9304 66.5783 15.9468 67.4731C15.9623 68.3146 15.9778 69.1425 15.9545 69.896C15.9826 70.5683 15.969 71.3528 15.9555 72.1537C15.9042 73.356 15.9358 74.5606 16.0502 75.7587ZM24.9403 65.2996C26.1475 66.6026 28.9003 66.5658 30.7294 66.5435C33.6709 66.2901 34.4659 65.7446 34.6825 65.4419C34.7171 65.3968 34.7402 65.3441 34.75 65.2881C34.7598 65.2323 34.756 65.1748 34.7388 65.1207C34.6676 64.4693 34.6492 63.8134 34.6835 63.1591C34.7211 62.5274 34.7019 61.8935 34.6265 61.2652C34.464 60.7689 33.5761 60.5146 32.8622 60.3096L32.72 60.269C29.4409 59.6644 26.9068 59.9207 25.2382 61.0515C25.0467 61.1984 25.0332 61.5312 25.037 62.0574V62.1579L25.038 63.1068C25.039 63.7124 25.039 64.3333 25.0352 64.9001C25.0348 65.0012 25.0084 65.1004 24.9588 65.1883C24.9425 65.2231 24.936 65.2616 24.9403 65.2996Z" fill="#FC7C54"/>
</g>
</g>
</g>
</svg>
