<svg width="21" height="22" viewBox="0 0 21 22" fill="none" xmlns="http://www.w3.org/2000/svg">
<g id="carbon:location">
<path id="Vector" d="M10.4441 12.1179C9.79856 12.1179 9.16754 11.9265 8.63082 11.5678C8.09409 11.2092 7.67577 10.6995 7.42874 10.1031C7.18171 9.50672 7.11708 8.85048 7.24301 8.21737C7.36895 7.58426 7.67979 7.00272 8.13624 6.54627C8.59268 6.08982 9.17423 5.77898 9.80734 5.65305C10.4404 5.52711 11.0967 5.59175 11.6931 5.83877C12.2894 6.0858 12.7992 6.50413 13.1578 7.04085C13.5164 7.57757 13.7078 8.20859 13.7078 8.8541C13.7068 9.71939 13.3626 10.5489 12.7508 11.1608C12.1389 11.7726 11.3094 12.1168 10.4441 12.1179ZM10.4441 6.89584C10.0568 6.89584 9.67815 7.01069 9.35612 7.22587C9.03408 7.44104 8.78309 7.74688 8.63487 8.10471C8.48665 8.46253 8.44787 8.85628 8.52343 9.23614C8.59899 9.61601 8.7855 9.96494 9.05937 10.2388C9.33324 10.5127 9.68217 10.6992 10.062 10.7747C10.4419 10.8503 10.8356 10.8115 11.1935 10.6633C11.5513 10.5151 11.8571 10.2641 12.0723 9.94206C12.2875 9.62002 12.4023 9.24141 12.4023 8.8541C12.4018 8.3349 12.1953 7.83711 11.8282 7.46998C11.4611 7.10284 10.9633 6.89636 10.4441 6.89584Z" fill="white"/>
<path id="Vector_2" d="M10.444 19.95L4.9374 13.4557C4.86089 13.3582 4.78516 13.2601 4.71024 13.1613C3.76961 11.9223 3.26146 10.4088 3.26374 8.85314C3.26374 6.94881 4.02023 5.12248 5.3668 3.77591C6.71337 2.42934 8.5397 1.67285 10.444 1.67285C12.3484 1.67285 14.1747 2.42934 15.5213 3.77591C16.8678 5.12248 17.6243 6.94881 17.6243 8.85314C17.6266 10.4081 17.1187 11.9209 16.1785 13.1594L16.1778 13.1613C16.1778 13.1613 15.982 13.4185 15.9526 13.4531L10.444 19.95ZM5.75204 12.3748C5.75334 12.3748 5.90478 12.5758 5.93938 12.6189L10.444 17.9316L14.9546 12.6117C14.9833 12.5758 15.136 12.3734 15.1367 12.3728C15.9051 11.3604 16.3203 10.1241 16.3188 8.85314C16.3188 7.29505 15.6999 5.80078 14.5981 4.69904C13.4964 3.59731 12.0021 2.97836 10.444 2.97836C8.88594 2.97836 7.39167 3.59731 6.28993 4.69904C5.1882 5.80078 4.56925 7.29505 4.56925 8.85314C4.56788 10.1249 4.98295 11.3619 5.75204 12.3748Z" fill="white"/>
</g>
</svg>
