<svg width="29" height="29" viewBox="0 0 29 29" fill="none" xmlns="http://www.w3.org/2000/svg">
<path fill-rule="evenodd" clip-rule="evenodd" d="M26.5833 12.0833C26.5833 11.416 26.0423 10.875 25.375 10.875H3.62498C2.95764 10.875 2.41665 11.416 2.41665 12.0833C2.41665 12.7507 2.95764 13.2917 3.62498 13.2917H25.375C26.0423 13.2917 26.5833 12.7507 26.5833 12.0833Z" fill="white"/>
<path fill-rule="evenodd" clip-rule="evenodd" d="M26.5833 7.25033C26.5833 6.58298 26.0423 6.04199 25.375 6.04199H3.62498C2.95764 6.04199 2.41665 6.58298 2.41665 7.25033C2.41665 7.91767 2.95764 8.45866 3.62498 8.45866H25.375C26.0423 8.45866 26.5833 7.91767 26.5833 7.25033Z" fill="white"/>
<path fill-rule="evenodd" clip-rule="evenodd" d="M26.5833 16.9163C26.5833 16.249 26.0423 15.708 25.375 15.708H3.62498C2.95764 15.708 2.41665 16.249 2.41665 16.9163C2.41665 17.5837 2.95764 18.1247 3.62498 18.1247H25.375C26.0423 18.1247 26.5833 17.5837 26.5833 16.9163Z" fill="white"/>
<path fill-rule="evenodd" clip-rule="evenodd" d="M26.5833 21.7503C26.5833 21.083 26.0423 20.542 25.375 20.542H3.62498C2.95764 20.542 2.41665 21.083 2.41665 21.7503C2.41665 22.4177 2.95764 22.9587 3.62498 22.9587H25.375C26.0423 22.9587 26.5833 22.4177 26.5833 21.7503Z" fill="white"/>
</svg>
