<svg width="24" height="24" viewBox="0 0 24 24" fill="none" xmlns="http://www.w3.org/2000/svg">
<path d="M4.99988 6C5.55216 6 5.99988 5.55228 5.99988 5C5.99988 4.44772 5.55216 4 4.99988 4C4.4476 4 3.99988 4.44772 3.99988 5C3.99988 5.55228 4.4476 6 4.99988 6Z" stroke="white" stroke-width="2" stroke-linecap="round" stroke-linejoin="round"/>
<path d="M11.9999 6C12.5522 6 12.9999 5.55228 12.9999 5C12.9999 4.44772 12.5522 4 11.9999 4C11.4476 4 10.9999 4.44772 10.9999 5C10.9999 5.55228 11.4476 6 11.9999 6Z" stroke="white" stroke-width="2" stroke-linecap="round" stroke-linejoin="round"/>
<path d="M18.9999 6C19.5522 6 19.9999 5.55228 19.9999 5C19.9999 4.44772 19.5522 4 18.9999 4C18.4476 4 17.9999 4.44772 17.9999 5C17.9999 5.55228 18.4476 6 18.9999 6Z" stroke="white" stroke-width="2" stroke-linecap="round" stroke-linejoin="round"/>
<path d="M4.99988 13C5.55216 13 5.99988 12.5523 5.99988 12C5.99988 11.4477 5.55216 11 4.99988 11C4.4476 11 3.99988 11.4477 3.99988 12C3.99988 12.5523 4.4476 13 4.99988 13Z" stroke="white" stroke-width="2" stroke-linecap="round" stroke-linejoin="round"/>
<path d="M11.9999 13C12.5522 13 12.9999 12.5523 12.9999 12C12.9999 11.4477 12.5522 11 11.9999 11C11.4476 11 10.9999 11.4477 10.9999 12C10.9999 12.5523 11.4476 13 11.9999 13Z" stroke="white" stroke-width="2" stroke-linecap="round" stroke-linejoin="round"/>
<path d="M18.9999 13C19.5522 13 19.9999 12.5523 19.9999 12C19.9999 11.4477 19.5522 11 18.9999 11C18.4476 11 17.9999 11.4477 17.9999 12C17.9999 12.5523 18.4476 13 18.9999 13Z" stroke="white" stroke-width="2" stroke-linecap="round" stroke-linejoin="round"/>
<path d="M4.99988 20C5.55216 20 5.99988 19.5523 5.99988 19C5.99988 18.4477 5.55216 18 4.99988 18C4.4476 18 3.99988 18.4477 3.99988 19C3.99988 19.5523 4.4476 20 4.99988 20Z" stroke="white" stroke-width="2" stroke-linecap="round" stroke-linejoin="round"/>
<path d="M11.9999 20C12.5522 20 12.9999 19.5523 12.9999 19C12.9999 18.4477 12.5522 18 11.9999 18C11.4476 18 10.9999 18.4477 10.9999 19C10.9999 19.5523 11.4476 20 11.9999 20Z" stroke="white" stroke-width="2" stroke-linecap="round" stroke-linejoin="round"/>
<path d="M18.9999 20C19.5522 20 19.9999 19.5523 19.9999 19C19.9999 18.4477 19.5522 18 18.9999 18C18.4476 18 17.9999 18.4477 17.9999 19C17.9999 19.5523 18.4476 20 18.9999 20Z" stroke="white" stroke-width="2" stroke-linecap="round" stroke-linejoin="round"/>
</svg>
