<svg width="42" height="41" viewBox="0 0 42 41" fill="none" xmlns="http://www.w3.org/2000/svg">
<g clip-path="url(#clip0_76_726)">
<path d="M36.92 6.63989H29.2V11.5199H36.92V6.63989ZM34.78 7.28989L33.06 8.66989L31.34 7.28989H34.78ZM36.26 10.8699H29.85V7.28989H30.29L33.06 9.49991L35.82 7.28989H36.26V10.8699Z" fill="#01426F"/>
<path d="M18.61 34.08C18.7327 35.3165 19.2805 36.4721 20.16 37.3499C20.2684 37.4518 20.4112 37.5089 20.56 37.5099C20.6162 37.5195 20.6737 37.5195 20.73 37.5099C20.8287 37.4805 20.9169 37.4234 20.9842 37.3455C21.0516 37.2675 21.0952 37.1719 21.11 37.0699C21.1803 36.6726 21.3882 36.3127 21.6971 36.0531C22.0061 35.7935 22.3965 35.6508 22.8 35.65H25.61C25.9567 35.6495 26.2955 35.7544 26.5812 35.9508C26.867 36.1473 27.0863 36.426 27.21 36.75C27.2445 36.8438 27.3035 36.9266 27.3809 36.9899C27.4583 37.0532 27.5512 37.0947 27.65 37.11C27.749 37.1246 27.8501 37.1129 27.9431 37.076C28.0361 37.0391 28.1178 36.9784 28.18 36.9C28.7816 36.1448 29.1686 35.2414 29.3 34.2849C29.4315 33.3283 29.3026 32.354 28.9269 31.4645C28.5513 30.5751 27.9428 29.8033 27.1655 29.2306C26.3881 28.6578 25.4708 28.3053 24.51 28.21H23.96C23.2073 28.2102 22.4629 28.3684 21.7751 28.6744C21.0874 28.9803 20.4714 29.4272 19.9672 29.9861C19.463 30.545 19.0817 31.2035 18.8479 31.919C18.6141 32.6345 18.533 33.3911 18.61 34.14V34.08ZM23.96 34.81C23.5644 34.81 23.1778 34.6927 22.8489 34.4729C22.52 34.2531 22.2636 33.9408 22.1122 33.5753C21.9609 33.2099 21.9212 32.8077 21.9984 32.4198C22.0756 32.0318 22.2661 31.6755 22.5458 31.3958C22.8255 31.116 23.1818 30.9256 23.5698 30.8484C23.9578 30.7712 24.3599 30.8108 24.7253 30.9622C25.0908 31.1136 25.4031 31.3699 25.6229 31.6988C25.8427 32.0277 25.96 32.4144 25.96 32.81C25.96 33.3404 25.7493 33.8491 25.3742 34.2242C24.9991 34.5993 24.4904 34.81 23.96 34.81ZM20.81 30.68C21.2077 30.239 21.6937 29.8866 22.2363 29.6454C22.7789 29.4042 23.3662 29.2797 23.96 29.28C24.1065 29.2702 24.2535 29.2702 24.4 29.28C25.088 29.3484 25.7488 29.584 26.3249 29.9664C26.9009 30.3487 27.3747 30.8661 27.7051 31.4734C28.0354 32.0808 28.2122 32.7598 28.22 33.4511C28.2278 34.1425 28.0665 34.8252 27.75 35.4399C27.2995 34.927 26.6772 34.5962 26 34.5099C26.2826 34.1812 26.4815 33.789 26.5798 33.3668C26.6782 32.9446 26.673 32.5048 26.5648 32.0851C26.4566 31.6653 26.2485 31.2778 25.9583 30.9558C25.6681 30.6337 25.3044 30.3866 24.8981 30.2354C24.4918 30.0842 24.0549 30.0335 23.6248 30.0875C23.1947 30.1415 22.784 30.2987 22.4277 30.5456C22.0714 30.7926 21.78 31.122 21.5784 31.5058C21.3768 31.8896 21.2711 32.3165 21.27 32.75C21.2692 33.436 21.5345 34.0955 22.01 34.59C21.3362 34.785 20.7589 35.2233 20.39 35.8199C20.0225 35.2589 19.796 34.6174 19.73 33.95C19.6693 33.3596 19.7342 32.763 19.9203 32.1995C20.1065 31.6359 20.4096 31.1181 20.81 30.68Z" fill="#01426F"/>
<path d="M4.55998 23.36C4.63769 23.4392 4.73755 23.4931 4.84642 23.5145C4.95528 23.5359 5.06805 23.5239 5.16996 23.48C5.27274 23.437 5.36069 23.3649 5.42289 23.2725C5.4851 23.18 5.51886 23.0714 5.52 22.9601V22.4601C5.521 21.6265 5.82639 20.8219 6.37883 20.1977C6.93126 19.5734 7.69272 19.1724 8.52 19.07H8.87999H13.78C14.6853 19.07 15.5537 19.429 16.1947 20.0682C16.8358 20.7074 17.1973 21.5747 17.2 22.48V22.98C17.2011 23.0914 17.2349 23.2001 17.2971 23.2925C17.3593 23.3849 17.4472 23.4571 17.55 23.5001C17.6192 23.5143 17.6907 23.5143 17.76 23.5001C17.834 23.5017 17.9076 23.4883 17.9763 23.4608C18.045 23.4334 18.1075 23.3923 18.16 23.3401C19.5329 21.9861 20.4721 20.2545 20.8582 18.3653C21.2443 16.4762 21.0597 14.5149 20.328 12.7309C19.5963 10.9469 18.3506 9.42082 16.7492 8.34677C15.1478 7.27273 13.2632 6.69922 11.335 6.69922C9.4068 6.69922 7.52213 7.27273 5.92076 8.34677C4.31938 9.42082 3.07364 10.9469 2.34196 12.7309C1.61028 14.5149 1.42575 16.4762 1.81181 18.3653C2.19787 20.2545 3.13707 21.9861 4.50999 23.3401L4.55998 23.36ZM11.9 17.92H10.9C9.95731 17.7932 9.098 17.3129 8.49614 16.5764C7.89427 15.8398 7.59481 14.902 7.65837 13.953C7.72192 13.0039 8.14372 12.1145 8.83842 11.4647C9.53312 10.815 10.4488 10.4535 11.4 10.4535C12.3512 10.4535 13.2668 10.815 13.9615 11.4647C14.6562 12.1145 15.078 13.0039 15.1416 13.953C15.2051 14.902 14.9057 15.8398 14.3038 16.5764C13.702 17.3129 12.8427 17.7932 11.9 17.92ZM11.38 7.86005C12.9695 7.86274 14.5272 8.30593 15.8801 9.14038C17.233 9.97483 18.3282 11.1679 19.044 12.5871C19.7598 14.0064 20.0683 15.5962 19.9352 17.1801C19.8021 18.7641 19.2326 20.2802 18.29 21.5601C18.0932 20.6115 17.5994 19.7502 16.8802 19.1011C16.161 18.452 15.2537 18.0488 14.29 17.95C15.0727 17.3476 15.6472 16.5153 15.9328 15.5698C16.2185 14.6243 16.201 13.6131 15.8829 12.678C15.5647 11.743 14.9617 10.931 14.1587 10.356C13.3556 9.78094 12.3927 9.47177 11.405 9.47177C10.4173 9.47177 9.45435 9.78094 8.65129 10.356C7.84822 10.931 7.24529 11.743 6.92711 12.678C6.60893 13.6131 6.59145 14.6243 6.87712 15.5698C7.16278 16.5153 7.7373 17.3476 8.52 17.95H8.40001C7.45446 18.0651 6.56904 18.4747 5.86912 19.1208C5.1692 19.7669 4.69022 20.6167 4.49998 21.55C3.55401 20.2718 2.98143 18.7561 2.84599 17.1717C2.71055 15.5872 3.01759 13.9963 3.73289 12.5761C4.44819 11.1559 5.54369 9.96205 6.89738 9.12762C8.25107 8.2932 9.80981 7.85092 11.4 7.85004L11.38 7.86005Z" fill="#01426F"/>
<path d="M33.06 16.1401C34.4998 16.1401 35.9074 15.7131 37.1046 14.9132C38.3017 14.1132 39.2348 12.9763 39.7858 11.646C40.3368 10.3158 40.481 8.85199 40.2001 7.43981C39.9192 6.02763 39.2259 4.73046 38.2078 3.71233C37.1896 2.69421 35.8925 2.00086 34.4803 1.71996C33.0681 1.43906 31.6043 1.58323 30.274 2.13424C28.9438 2.68525 27.8068 3.61832 27.0069 4.81551C26.207 6.0127 25.78 7.42022 25.78 8.86007C25.7827 10.79 26.5505 12.6402 27.9152 14.0049C29.2799 15.3696 31.13 16.1374 33.06 16.1401ZM33.06 2.71008C34.2759 2.71205 35.464 3.07443 36.474 3.7514C37.484 4.42837 38.2708 5.38954 38.7347 6.51348C39.1987 7.63742 39.3191 8.87368 39.0806 10.066C38.8422 11.2583 38.2557 12.3532 37.3952 13.2123C36.5347 14.0714 35.4389 14.6561 34.2462 14.8926C33.0534 15.1291 31.8174 15.0068 30.6942 14.541C29.571 14.0752 28.6111 13.2869 27.9358 12.2758C27.2605 11.2646 26.9 10.076 26.9 8.86007C26.9027 7.22807 27.5528 5.66383 28.7078 4.51077C29.8627 3.3577 31.428 2.71007 33.06 2.71008Z" fill="#01426F"/>
<path d="M0 16.4599C-0.0052031 18.3838 0.478261 20.2774 1.40509 21.9633C2.33192 23.6492 3.67173 25.0721 5.29889 26.0986C6.92605 27.1251 8.78725 27.7215 10.7079 27.8319C12.6286 27.9423 14.546 27.5631 16.28 26.7299L18.51 29.2099C17.7498 30.1922 17.2646 31.3591 17.1043 32.5909C16.944 33.8226 17.1144 35.0748 17.598 36.219C18.0815 37.3631 18.8607 38.3581 19.8557 39.1016C20.8507 39.8451 22.0257 40.3105 23.26 40.4499C23.4931 40.4651 23.7269 40.4651 23.96 40.4499C25.6664 40.331 27.2703 39.5913 28.4686 38.3706C29.6669 37.15 30.3767 35.5327 30.4641 33.8244C30.5515 32.1161 30.0104 30.4349 28.9429 29.0984C27.8754 27.7618 26.3554 26.8623 24.67 26.5699C23.2488 26.4327 21.8195 26.7291 20.57 27.4199L18.57 25.2199C19.872 24.1516 20.9219 22.8088 21.6445 21.2875C22.3671 19.7662 22.7446 18.1041 22.75 16.4199C22.7497 15.5197 22.6388 14.623 22.42 13.7499L25.12 12.7499C26.0931 14.6903 27.7446 16.2059 29.7612 17.0092C31.7778 17.8125 34.0191 17.8476 36.0599 17.1077C38.1006 16.3678 39.7987 14.9045 40.8319 12.9955C41.8651 11.0864 42.1616 8.86451 41.665 6.75136C41.1684 4.63822 39.9134 2.7809 38.138 1.53188C36.3626 0.282862 34.1905 -0.270959 32.0338 -0.0244531C29.8771 0.222053 27.886 1.25174 26.4383 2.86916C24.9906 4.48658 24.1869 6.5792 24.18 8.7499C24.1822 9.21864 24.219 9.68656 24.29 10.1499L21.47 11.1499C20.2996 8.88502 18.4027 7.07872 16.0833 6.02059C13.7639 4.96246 11.1563 4.71378 8.67871 5.31444C6.2011 5.91511 3.99694 7.33033 2.41962 9.33318C0.842293 11.336 -0.0168415 13.8105 -0.0200195 16.3599L0 16.4599ZM11.38 6.20989C13.3439 6.21743 15.2646 6.78624 16.9159 7.8493C18.5672 8.91235 19.8802 10.4253 20.7 12.2099C20.7591 12.3371 20.8639 12.4375 20.9935 12.4912C21.1232 12.5449 21.2682 12.548 21.4 12.4999L25.15 11.1799C25.2766 11.1308 25.382 11.0389 25.4478 10.9201C25.5135 10.8013 25.5356 10.6632 25.51 10.5299C25.084 8.587 25.4223 6.55466 26.4547 4.85454C27.4872 3.15443 29.1345 1.91704 31.0549 1.3991C32.9754 0.881165 35.0215 1.12243 36.7688 2.07287C38.5161 3.0233 39.8304 4.60992 40.4391 6.50356C41.0478 8.3972 40.9041 10.4525 40.0378 12.243C39.1715 14.0335 37.6492 15.4218 35.7866 16.1198C33.9241 16.8179 31.8643 16.772 30.0346 15.9919C28.2049 15.2117 26.7458 13.7571 25.96 11.9299C25.9044 11.7967 25.7995 11.69 25.6672 11.6323C25.5349 11.5745 25.3855 11.5701 25.25 11.6199L21.58 12.9199C21.4437 12.9679 21.3307 13.0658 21.2639 13.1939C21.1971 13.322 21.1814 13.4707 21.22 13.6099C21.4977 14.5413 21.6392 15.508 21.64 16.4799C21.6335 18.0915 21.2492 19.6791 20.5181 21.1153C19.7869 22.5515 18.7293 23.7964 17.43 24.7499C17.3658 24.796 17.3128 24.8558 17.2747 24.925C17.2367 24.9942 17.2146 25.071 17.21 25.1499C17.2009 25.2274 17.2087 25.306 17.2328 25.3802C17.257 25.4545 17.2969 25.5226 17.35 25.5799L20.05 28.5799C20.1373 28.6813 20.2586 28.7474 20.3911 28.7658C20.5236 28.7842 20.6584 28.7537 20.77 28.6799C21.8922 27.9512 23.2279 27.6234 24.56 27.7499C26.0481 27.9014 27.4211 28.6192 28.3949 29.7546C29.3687 30.8901 29.8687 32.3564 29.7916 33.8503C29.7146 35.3441 29.0663 36.7512 27.9808 37.7804C26.8954 38.8097 25.4559 39.3823 23.96 39.3799C23.7635 39.3901 23.5665 39.3901 23.37 39.3799C22.0354 39.2463 20.7879 38.6557 19.8385 37.7082C18.8891 36.7606 18.2962 35.5143 18.16 34.1799C18.071 33.3708 18.1553 32.5519 18.407 31.7778C18.6587 31.0037 19.0722 30.292 19.62 29.6899L19.68 29.6199C19.772 29.5187 19.8231 29.3867 19.8231 29.2499C19.8231 29.1131 19.772 28.9811 19.68 28.8799L16.83 25.7099C16.7771 25.6507 16.7124 25.6033 16.6401 25.5705C16.5678 25.5378 16.4894 25.5206 16.41 25.5199C16.3184 25.5179 16.2282 25.5422 16.15 25.5899C14.7736 26.3108 13.2512 26.7093 11.6981 26.7554C10.1449 26.8014 8.60168 26.4937 7.18494 25.8556C5.7682 25.2175 4.51503 24.2656 3.52026 23.072C2.5255 21.8783 1.81513 20.4741 1.44287 18.9656C1.07061 17.457 1.04619 15.8835 1.37146 14.3642C1.69673 12.8448 2.36319 11.4192 3.32043 10.1953C4.27768 8.97133 5.50066 7.98102 6.89691 7.29925C8.29317 6.61747 9.82619 6.26206 11.38 6.25988V6.20989Z" fill="#01426F"/>
</g>
<defs>
<clipPath id="clip0_76_726">
<rect width="41.92" height="40.49" fill="white"/>
</clipPath>
</defs>
</svg>
