<svg width="22" height="22" viewBox="0 0 22 22" fill="none" xmlns="http://www.w3.org/2000/svg">
<g id="phone-line">
<path id="Vector" d="M7.61323 9.49568L8.05539 9.17985L9.13314 8.41003C9.13315 8.41002 9.13316 8.41002 9.13316 8.41001C9.24333 8.33129 9.27743 8.18263 9.21247 8.0637M7.61323 9.49568L13.7408 11.7744M7.61323 9.49568L7.88184 9.96802C8.75046 11.4955 10.0202 12.7652 11.5476 13.6338L12.02 13.9024L12.3358 13.4602L13.1055 12.3826M7.61323 9.49568L13.1055 12.3826M9.21247 8.0637L9.74127 7.77486M9.21247 8.0637L9.74127 7.77486M9.21247 8.0637C8.50308 6.76512 8.072 5.32977 7.95355 3.83334C7.94252 3.69406 7.82628 3.58667 7.68659 3.58667H3.80247C3.66516 3.58667 3.55011 3.69051 3.53608 3.82708L3.53607 3.82709C3.49078 4.26778 3.46796 4.71247 3.46796 5.15998C3.46796 12.2776 9.23799 18.0477 16.3557 18.0477C16.8032 18.0477 17.2479 18.0249 17.6885 17.9796L17.6885 17.9796C17.8252 17.9655 17.929 17.8505 17.929 17.7132V13.8291C17.929 13.6894 17.8216 13.5731 17.6823 13.5621C16.1858 13.4436 14.7505 13.0125 13.452 12.3032M9.74127 7.77486C9.95232 8.16125 9.84162 8.64441 9.48338 8.90032L9.74127 7.77486ZM13.452 12.3032L13.7408 11.7744M13.452 12.3032C13.452 12.3032 13.452 12.3032 13.452 12.3032L13.7408 11.7744M13.452 12.3032C13.333 12.2382 13.1844 12.2723 13.1056 12.3825L12.6153 12.0323M13.7408 11.7744C13.3544 11.5633 12.8713 11.674 12.6153 12.0323M12.6153 12.0323L13.1055 12.3826M12.6153 12.0323L13.1055 12.3826" stroke="white" stroke-width="1.20508"/>
</g>
</svg>
