<svg width="30" height="30" viewBox="0 0 30 30" fill="none" xmlns="http://www.w3.org/2000/svg">
<g id="telegram-line" >
<path id="Vector" d="M15.3442 24.4545C20.7278 24.4545 25.092 20.0903 25.092 14.7067C25.092 9.32315 20.7278 4.95892 15.3442 4.95892C9.96067 4.95892 5.59643 9.32315 5.59643 14.7067C5.59643 20.0903 9.96067 24.4545 15.3442 24.4545ZM15.3442 26.8915C8.61478 26.8915 3.15948 21.4361 3.15948 14.7067C3.15948 7.97726 8.61478 2.52197 15.3442 2.52197C22.0736 2.52197 27.529 7.97726 27.529 14.7067C27.529 21.4361 22.0736 26.8915 15.3442 26.8915ZM11.555 16.1333L8.51114 15.1833C7.85328 14.9815 7.84937 14.5288 8.65845 14.2036L20.5179 9.62268C21.2057 9.34109 21.5968 9.69686 21.3739 10.5839L19.3539 20.1139C19.2133 20.7919 18.8043 20.9533 18.238 20.6404L15.1298 18.3406L13.6812 19.7386C13.5323 19.8823 13.4111 20.0057 13.183 20.0367C12.9548 20.0675 12.7667 20 12.6299 19.6217L11.5704 16.1236L11.555 16.1333Z" fill="#fff"/>
</g>
</svg>
