<svg width="70" height="69" viewBox="0 0 70 69" fill="none" xmlns="http://www.w3.org/2000/svg">
<g id="university-26">
<g id="Group">
<path id="Vector" d="M51.4074 3.72329C51.4074 3.72329 54.6105 14.7434 65.4647 18.1186C65.4647 18.1186 66.5289 57.4289 34.9771 64.8289C3.40413 57.4183 4.47892 18.108 4.47892 18.108C15.3331 14.7327 18.5362 3.71265 18.5362 3.71265H51.4074V3.72329Z" stroke="white" stroke-width="2.06614" stroke-miterlimit="10" stroke-linecap="round" stroke-linejoin="round"/>
<path id="Vector_2" d="M48.2682 8.35474C48.2682 8.35474 50.8647 17.4902 59.6439 20.2905C59.6439 20.2905 60.5058 52.8929 34.9665 59.0365C9.42714 52.8929 10.2891 20.2905 10.2891 20.2905C19.0682 17.5009 21.6647 8.35474 21.6647 8.35474H48.2682Z" stroke="white" stroke-width="2.06614" stroke-miterlimit="10" stroke-linecap="round" stroke-linejoin="round"/>
<g id="Group_2">
<path id="Vector_3" d="M52.0779 25.5718L34.5409 32.7908L16.9932 25.5718L34.5409 18.3635L52.0779 25.5718Z" stroke="white" stroke-width="2.06614" stroke-miterlimit="10" stroke-linecap="round" stroke-linejoin="round"/>
<path id="Vector_4" d="M46.1719 27.9988V37.9861C46.1719 40.9035 43.8096 43.2565 40.9045 43.2565H28.1667C25.251 43.2565 22.8992 40.8928 22.8992 37.9861V27.9988" stroke="white" stroke-width="2.06614" stroke-miterlimit="10" stroke-linecap="round" stroke-linejoin="round"/>
<path id="Vector_5" d="M52.0779 25.5715V37.2092" stroke="white" stroke-width="2.06614" stroke-miterlimit="10" stroke-linecap="round" stroke-linejoin="round"/>
<path id="Vector_6" d="M51.1309 37.2095H52.9399" stroke="white" stroke-width="2.06614" stroke-miterlimit="10" stroke-linecap="round" stroke-linejoin="round"/>
</g>
</g>
</g>
</svg>
