<svg width="70" height="70" viewBox="0 0 70 70" fill="none" xmlns="http://www.w3.org/2000/svg">
<g id="university-03">
<g id="Group">
<path id="Vector" d="M39.0276 35.1846H31.7247V66.2811H39.0276V35.1846Z" stroke="white" stroke-width="2.15425" stroke-miterlimit="10" stroke-linecap="round" stroke-linejoin="round"/>
<path id="Vector_2" d="M14.0275 48.1101V58.2782L31.7247 66.2812" stroke="white" stroke-width="2.15425" stroke-miterlimit="10" stroke-linecap="round" stroke-linejoin="round"/>
<path id="Vector_3" d="M14.0275 36.0029V28.9478L16.6773 29.8849L31.7247 35.1843" stroke="white" stroke-width="2.15425" stroke-miterlimit="10" stroke-linecap="round" stroke-linejoin="round"/>
<path id="Vector_4" d="M56.714 48.1101V58.2782L39.0276 66.2812" stroke="white" stroke-width="2.15425" stroke-miterlimit="10" stroke-linecap="round" stroke-linejoin="round"/>
<path id="Vector_5" d="M39.0276 35.1843L56.714 28.9478V36.0029" stroke="white" stroke-width="2.15425" stroke-miterlimit="10" stroke-linecap="round" stroke-linejoin="round"/>
<path id="Vector_6" d="M16.6772 29.8852V26.0291C16.6772 26.0291 25.5851 28.528 31.0568 31.0377C32.8233 31.8455 33.9112 33.4504 33.9112 35.1846" stroke="white" stroke-width="2.15425" stroke-miterlimit="10" stroke-linecap="round" stroke-linejoin="round"/>
<path id="Vector_7" d="M54.0427 29.8852V26.0291C54.0427 26.0291 45.1349 28.528 39.6631 31.0377C37.8966 31.8455 36.8087 33.4504 36.8087 35.1846" stroke="white" stroke-width="2.15425" stroke-miterlimit="10" stroke-linecap="round" stroke-linejoin="round"/>
<g id="Group_2">
<path id="Vector_8" d="M35.3761 22.9594C40.8728 22.9594 45.3288 18.5035 45.3288 13.0068C45.3288 7.51014 40.8728 3.0542 35.3761 3.0542C29.8795 3.0542 25.4235 7.51014 25.4235 13.0068C25.4235 18.5035 29.8795 22.9594 35.3761 22.9594Z" stroke="white" stroke-width="2.15425" stroke-miterlimit="10" stroke-linecap="round" stroke-linejoin="round"/>
<path id="Vector_9" d="M51.5222 26.7723C49.1095 24.4134 46.2012 22.9485 43.056 22.9485H35.3761H27.707C24.551 22.9485 21.6428 24.4134 19.23 26.783" stroke="white" stroke-width="2.15425" stroke-miterlimit="10" stroke-linecap="round" stroke-linejoin="round"/>
</g>
<path id="Vector_10" d="M60.2146 38.3405V45.7727C60.2146 47.0652 59.1698 48.11 57.8773 48.11H55.5722C54.2797 48.11 53.2349 47.0652 53.2349 45.7727V38.3405C53.2349 37.048 54.2797 36.0032 55.5722 36.0032H57.8773C59.1698 36.0032 60.2146 37.048 60.2146 38.3405Z" stroke="white" stroke-width="2.15425" stroke-miterlimit="10" stroke-linecap="round" stroke-linejoin="round"/>
<path id="Vector_11" d="M17.5174 38.3405V45.7727C17.5174 47.0652 16.4726 48.11 15.1801 48.11H12.875C11.5825 48.11 10.5377 47.0652 10.5377 45.7727V38.3405C10.5377 37.048 11.5825 36.0032 12.875 36.0032H15.1801C16.4726 36.0032 17.5174 37.048 17.5174 38.3405Z" stroke="white" stroke-width="2.15425" stroke-miterlimit="10" stroke-linecap="round" stroke-linejoin="round"/>
</g>
</g>
</svg>
