<svg width="72" height="71" viewBox="0 0 72 71" fill="none" xmlns="http://www.w3.org/2000/svg">
<g id="university-18">
<g id="Group">
<g id="Group_2">
<path id="Vector" d="M60.6168 39.5428L48.3179 44.5925L36.03 39.5428L48.3179 34.4822L60.6168 39.5428Z" stroke="white" stroke-width="2.1302" stroke-miterlimit="10" stroke-linecap="round" stroke-linejoin="round"/>
<path id="Vector_2" d="M56.4805 41.2444V48.2371C56.4805 50.2789 54.8239 51.9366 52.7832 51.9366H43.8635C41.8228 51.9366 40.1661 50.2789 40.1661 48.2371V41.2444" stroke="white" stroke-width="2.1302" stroke-miterlimit="10" stroke-linecap="round" stroke-linejoin="round"/>
<path id="Vector_3" d="M60.6168 39.543V47.6993" stroke="white" stroke-width="2.1302" stroke-miterlimit="10" stroke-linecap="round" stroke-linejoin="round"/>
<path id="Vector_4" d="M59.9585 47.6995H61.2202" stroke="white" stroke-width="2.1302" stroke-miterlimit="10" stroke-linecap="round" stroke-linejoin="round"/>
</g>
<g id="Group_3">
<g id="Group_4">
<path id="Vector_5" d="M58.7187 27.0281C58.0275 25.3595 56.5902 22.2748 55.8771 21.0124C51.1923 12.5048 42.2068 6.7196 31.8389 6.5769C31.7072 6.56592 31.5646 6.56592 31.4329 6.56592C31.3013 6.56592 31.1586 6.56592 31.027 6.5769C20.6481 6.7196 11.6625 12.5048 6.97777 21.0124C4.76155 25.0083 3.52179 29.6079 3.52179 34.4819C3.52179 39.356 4.77252 43.9556 6.97777 47.9514C11.6625 56.47 20.6481 62.2442 31.027 62.3979C31.1586 62.4089 31.3013 62.4089 31.4329 62.4089C31.5646 62.4089 31.7072 62.4089 31.8389 62.3979C34.0112 62.376 36.1287 62.1015 38.1474 61.5965" stroke="white" stroke-width="2.1302" stroke-miterlimit="10" stroke-linecap="round" stroke-linejoin="round"/>
<path id="Vector_6" d="M42.3165 25.3049C42.1081 23.8119 41.8447 22.3849 41.5375 21.0127C39.6285 12.6697 36.019 6.92841 31.8389 6.56615C31.6962 6.55518 31.5646 6.55518 31.4329 6.55518C31.2903 6.55518 31.1586 6.55518 31.027 6.56615C26.825 6.91744 23.2044 12.6697 21.3064 21.0127C20.4067 25.0195 19.8801 29.6081 19.8801 34.4821C19.8801 39.3562 20.4067 43.9558 21.3064 47.9516C23.2044 56.2946 26.825 62.0469 31.027 62.3981C31.1586 62.4091 31.2903 62.4091 31.4329 62.4091C31.5646 62.4091 31.6962 62.4091 31.8389 62.3981C33.4297 62.2554 34.9438 61.3443 36.2932 59.7965" stroke="white" stroke-width="2.1302" stroke-miterlimit="10" stroke-linecap="round" stroke-linejoin="round"/>
<path id="Vector_7" d="M31.433 62.4087V54.2085" stroke="white" stroke-width="2.1302" stroke-miterlimit="10" stroke-linecap="round" stroke-linejoin="round"/>
<path id="Vector_8" d="M31.433 34.1528V21.0127V6.55518" stroke="white" stroke-width="2.1302" stroke-miterlimit="10" stroke-linecap="round" stroke-linejoin="round"/>
<path id="Vector_9" d="M31.2354 34.4822H19.8801H3.52179" stroke="white" stroke-width="2.1302" stroke-miterlimit="10" stroke-linecap="round" stroke-linejoin="round"/>
<path id="Vector_10" d="M55.8771 21.0127H41.5375H31.4329H21.3064H6.97778" stroke="white" stroke-width="2.1302" stroke-miterlimit="10" stroke-linecap="round" stroke-linejoin="round"/>
<path id="Vector_11" d="M29.0851 47.9626H21.3064H6.97778" stroke="white" stroke-width="2.1302" stroke-miterlimit="10" stroke-linecap="round" stroke-linejoin="round"/>
</g>
</g>
<path id="Vector_12" d="M48.6251 64.0994C59.6167 64.0994 68.5271 55.1839 68.5271 44.186C68.5271 33.1882 59.6167 24.2727 48.6251 24.2727C37.6335 24.2727 28.723 33.1882 28.723 44.186C28.723 55.1839 37.6335 64.0994 48.6251 64.0994Z" stroke="white" stroke-width="2.1302" stroke-miterlimit="10" stroke-linecap="round" stroke-linejoin="round"/>
</g>
</g>
</svg>
