<svg width="71" height="71" viewBox="0 0 71 71" fill="none" xmlns="http://www.w3.org/2000/svg">
<g id="university-09" clip-path="url(#clip0_1_381)">
<g id="Group">
<path id="Vector" d="M49.8728 29.7068H65.9458V63.5836H53.6359H48.9073" stroke="white" stroke-width="2.1302" stroke-miterlimit="10" stroke-linecap="round" stroke-linejoin="round"/>
<path id="Vector_2" d="M20.3818 29.7068H4.30875V63.5836H16.6186H21.3473" stroke="white" stroke-width="2.1302" stroke-miterlimit="10" stroke-linecap="round" stroke-linejoin="round"/>
<path id="Vector_3" d="M14.5381 39.0945L17.5991 39.0945L17.5991 35.6475L14.5381 35.6475L14.5381 39.0945Z" stroke="white" stroke-width="2.1302" stroke-miterlimit="10" stroke-linecap="round" stroke-linejoin="round"/>
<path id="Vector_4" d="M14.5381 45.9119L17.5991 45.9119L17.5991 42.4649L14.5381 42.4649L14.5381 45.9119Z" stroke="white" stroke-width="2.1302" stroke-miterlimit="10" stroke-linecap="round" stroke-linejoin="round"/>
<path id="Vector_5" d="M8.0481 39.0945L11.1091 39.0945L11.1091 35.6475L8.0481 35.6475L8.0481 39.0945Z" stroke="white" stroke-width="2.1302" stroke-miterlimit="10" stroke-linecap="round" stroke-linejoin="round"/>
<path id="Vector_6" d="M8.0481 45.9119L11.1091 45.9119L11.1091 42.4649L8.0481 42.4649L8.0481 45.9119Z" stroke="white" stroke-width="2.1302" stroke-miterlimit="10" stroke-linecap="round" stroke-linejoin="round"/>
<path id="Vector_7" d="M14.5381 53.5188L17.5991 53.5188L17.5991 50.0718L14.5381 50.0718L14.5381 53.5188Z" stroke="white" stroke-width="2.1302" stroke-miterlimit="10" stroke-linecap="round" stroke-linejoin="round"/>
<path id="Vector_8" d="M8.0481 53.5188L11.1091 53.5188L11.1091 50.0718L8.0481 50.0718L8.0481 53.5188Z" stroke="white" stroke-width="2.1302" stroke-miterlimit="10" stroke-linecap="round" stroke-linejoin="round"/>
<path id="Vector_9" d="M59.1472 39.0945L62.2082 39.0945L62.2082 35.6475L59.1472 35.6475L59.1472 39.0945Z" stroke="white" stroke-width="2.1302" stroke-miterlimit="10" stroke-linecap="round" stroke-linejoin="round"/>
<path id="Vector_10" d="M59.1472 45.9119L62.2082 45.9119L62.2082 42.4649L59.1472 42.4649L59.1472 45.9119Z" stroke="white" stroke-width="2.1302" stroke-miterlimit="10" stroke-linecap="round" stroke-linejoin="round"/>
<path id="Vector_11" d="M52.6572 39.0945L55.7182 39.0945L55.7182 35.6475L52.6572 35.6475L52.6572 39.0945Z" stroke="white" stroke-width="2.1302" stroke-miterlimit="10" stroke-linecap="round" stroke-linejoin="round"/>
<path id="Vector_12" d="M52.6572 45.9119L55.7182 45.9119L55.7182 42.4649L52.6572 42.4649L52.6572 45.9119Z" stroke="white" stroke-width="2.1302" stroke-miterlimit="10" stroke-linecap="round" stroke-linejoin="round"/>
<path id="Vector_13" d="M59.1472 53.5188L62.2082 53.5188L62.2082 50.0718L59.1472 50.0718L59.1472 53.5188Z" stroke="white" stroke-width="2.1302" stroke-miterlimit="10" stroke-linecap="round" stroke-linejoin="round"/>
<path id="Vector_14" d="M52.6572 53.5188L55.7182 53.5188L55.7182 50.0718L52.6572 50.0718L52.6572 53.5188Z" stroke="white" stroke-width="2.1302" stroke-miterlimit="10" stroke-linecap="round" stroke-linejoin="round"/>
<path id="Vector_15" d="M50.4652 32.1H19.8003L21.4899 25.1731H48.7647L50.4652 32.1Z" stroke="white" stroke-width="2.1302" stroke-miterlimit="10" stroke-linecap="round" stroke-linejoin="round"/>
<path id="Vector_16" d="M49.8727 29.7071H49.8837H65.9458H67.778L64.1794 17.8733H6.0751L2.47649 29.7071H20.3817" stroke="white" stroke-width="2.1302" stroke-miterlimit="10" stroke-linecap="round" stroke-linejoin="round"/>
<path id="Vector_17" d="M42.3355 47.9624H27.9191L28.1934 44.5923H42.0612L42.3355 47.9624Z" stroke="white" stroke-width="2.1302" stroke-miterlimit="10" stroke-linecap="round" stroke-linejoin="round"/>
<path id="Vector_18" d="M48.9183 32.1003H21.3472V63.5731H48.9183V32.1003Z" stroke="white" stroke-width="2.1302" stroke-miterlimit="10" stroke-linecap="round" stroke-linejoin="round"/>
<path id="Vector_19" d="M40.6787 47.9624H29.5648V63.5835H40.6787V47.9624Z" stroke="white" stroke-width="2.1302" stroke-miterlimit="10" stroke-linecap="round" stroke-linejoin="round"/>
<path id="Vector_20" d="M35.1272 17.873V7.07104" stroke="white" stroke-width="2.1302" stroke-miterlimit="10" stroke-linecap="round" stroke-linejoin="round"/>
<path id="Vector_21" d="M42.3354 13.6577H35.1272V7.78467H42.3354L40.9969 10.7157L42.3354 13.6577Z" stroke="white" stroke-width="2.1302" stroke-miterlimit="10" stroke-linecap="round" stroke-linejoin="round"/>
<path id="Vector_22" d="M21.3472 37.9727H48.9073" stroke="white" stroke-width="2.1302" stroke-miterlimit="10" stroke-linecap="round" stroke-linejoin="round"/>
<path id="Vector_23" d="M68.2169 63.5837H2.03766" stroke="white" stroke-width="2.1302" stroke-miterlimit="10" stroke-linecap="round" stroke-linejoin="round"/>
</g>
</g>
<defs>
<clipPath id="clip0_1_381">
<rect width="70.2167" height="70.2565" fill="white" transform="translate(0.0189209 0.198975)"/>
</clipPath>
</defs>
</svg>
