<svg width="69" height="69" viewBox="0 0 69 69" fill="none" xmlns="http://www.w3.org/2000/svg">
<g id="university-20">
<g id="Group">
<g id="Group_2">
<path id="Vector" d="M27.6554 25.5005C31.912 25.5005 35.3628 22.0498 35.3628 17.7931C35.3628 13.5364 31.912 10.0857 27.6554 10.0857C23.3987 10.0857 19.9479 13.5364 19.9479 17.7931C19.9479 22.0498 23.3987 25.5005 27.6554 25.5005Z" stroke="white" stroke-width="2.12618" stroke-miterlimit="10" stroke-linecap="round" stroke-linejoin="round"/>
<path id="Vector_2" d="M41.4862 30.0082C39.4238 27.3079 36.6491 25.5432 33.6087 25.5432H27.6554H21.702C18.6616 25.5432 15.8869 27.3079 13.8245 30.0082" stroke="white" stroke-width="2.12618" stroke-miterlimit="10" stroke-linecap="round" stroke-linejoin="round"/>
</g>
<path id="Vector_3" d="M53.733 36.0993H12.113L11.22 30.0078H54.626L53.733 36.0993Z" stroke="white" stroke-width="2.12618" stroke-miterlimit="10" stroke-linecap="round" stroke-linejoin="round"/>
<path id="Vector_4" d="M49.6933 65.791H16.1527L14.2391 36.0989H51.6068L49.6933 65.791Z" stroke="white" stroke-width="2.12618" stroke-miterlimit="10" stroke-linecap="round" stroke-linejoin="round"/>
<path id="Vector_5" d="M49.1405 30.0075V25.4894L43.4529 22.9592" stroke="white" stroke-width="2.12618" stroke-miterlimit="10" stroke-linecap="round" stroke-linejoin="round"/>
<path id="Vector_6" d="M43.5912 22.5024C43.5912 22.9383 43.2297 23.321 42.7726 23.321H42.1028C41.6457 23.321 41.2842 22.9489 41.2842 22.5024C41.2842 22.0453 41.6457 21.6838 42.1028 21.6838H42.7726C43.2297 21.6945 43.5912 22.0453 43.5912 22.5024Z" stroke="white" stroke-width="2.12618" stroke-miterlimit="10" stroke-linecap="round" stroke-linejoin="round"/>
<g id="Group_3">
<path id="Vector_7" d="M39.7108 17.5267C39.7108 17.548 44.6648 15.358 44.6648 15.358C44.6648 15.358 44.6755 15.358 44.6861 15.358C45.2176 15.5068 45.7704 15.5813 46.3445 15.5813H52.1065C55.6678 15.5813 58.5701 12.6896 58.5701 9.11765C58.5701 7.33166 57.8472 5.71576 56.6778 4.54636C55.5084 3.37696 53.8925 2.65405 52.1065 2.65405H46.5146C43.2084 2.65405 40.2955 5.06727 39.9128 8.3416C39.7533 9.67046 40.0191 10.9355 40.5613 12.0199V12.0305L39.7108 17.5267Z" stroke="white" stroke-width="2.12618" stroke-miterlimit="10" stroke-linecap="round" stroke-linejoin="round"/>
<path id="Vector_8" d="M44.8555 9.10549C44.9549 9.10549 45.0355 9.02487 45.0355 8.92543C45.0355 8.82598 44.9549 8.74536 44.8555 8.74536C44.756 8.74536 44.6754 8.82598 44.6754 8.92543C44.6754 9.02487 44.756 9.10549 44.8555 9.10549Z" stroke="white" stroke-width="2.12618" stroke-miterlimit="10" stroke-linecap="round" stroke-linejoin="round"/>
<path id="Vector_9" d="M49.0972 9.10549C49.1967 9.10549 49.2773 9.02487 49.2773 8.92543C49.2773 8.82598 49.1967 8.74536 49.0972 8.74536C48.9978 8.74536 48.9172 8.82598 48.9172 8.92543C48.9172 9.02487 48.9978 9.10549 49.0972 9.10549Z" stroke="white" stroke-width="2.12618" stroke-miterlimit="10" stroke-linecap="round" stroke-linejoin="round"/>
<path id="Vector_10" d="M53.339 9.10549C53.4384 9.10549 53.5191 9.02487 53.5191 8.92543C53.5191 8.82598 53.4384 8.74536 53.339 8.74536C53.2396 8.74536 53.1589 8.82598 53.1589 8.92543C53.1589 9.02487 53.2396 9.10549 53.339 9.10549Z" stroke="white" stroke-width="2.12618" stroke-miterlimit="10" stroke-linecap="round" stroke-linejoin="round"/>
</g>
<path id="Vector_11" d="M47.0568 44.21H18.7998V48.1221H47.0568V44.21Z" stroke="white" stroke-width="2.12618" stroke-miterlimit="10" stroke-linecap="round" stroke-linejoin="round"/>
</g>
</g>
</svg>
