<svg width="71" height="71" viewBox="0 0 71 71" fill="none" xmlns="http://www.w3.org/2000/svg">
<g id="university-07">
<g id="Group">
<path id="Vector" d="M42.3321 50.0154H7.24576V10.2437H63.7921V50.0154H58.9318" stroke="white" stroke-width="2.1302" stroke-miterlimit="10" stroke-linecap="round" stroke-linejoin="round"/>
<path id="Vector_2" d="M14.6295 18.104H40.083" stroke="white" stroke-width="2.1302" stroke-miterlimit="10" stroke-linecap="round" stroke-linejoin="round"/>
<path id="Vector_3" d="M14.6295 24.1194H40.083" stroke="white" stroke-width="2.1302" stroke-miterlimit="10" stroke-linecap="round" stroke-linejoin="round"/>
<path id="Vector_4" d="M14.6295 30.135H28.4424" stroke="white" stroke-width="2.1302" stroke-miterlimit="10" stroke-linecap="round" stroke-linejoin="round"/>
<path id="Vector_5" d="M50.6374 55.3722C55.6666 55.3722 59.7436 51.2929 59.7436 46.2608C59.7436 41.2287 55.6666 37.1494 50.6374 37.1494C45.6082 37.1494 41.5312 41.2287 41.5312 46.2608C41.5312 51.2929 45.6082 55.3722 50.6374 55.3722Z" stroke="white" stroke-width="2.1302" stroke-miterlimit="10" stroke-linecap="round" stroke-linejoin="round"/>
<path id="Vector_6" d="M54.28 54.6038V65.0544L50.6375 62.6723L46.984 65.0544V54.6038" stroke="white" stroke-width="2.1302" stroke-miterlimit="10" stroke-linecap="round" stroke-linejoin="round"/>
<path id="Vector_7" d="M50.6374 51.2121C53.3702 51.2121 55.5855 48.9955 55.5855 46.2612C55.5855 43.5269 53.3702 41.3103 50.6374 41.3103C47.9047 41.3103 45.6894 43.5269 45.6894 46.2612C45.6894 48.9955 47.9047 51.2121 50.6374 51.2121Z" stroke="white" stroke-width="2.1302" stroke-miterlimit="10" stroke-linecap="round" stroke-linejoin="round"/>
<path id="Vector_8" d="M14.6295 42.1229C14.6295 42.1229 18.4694 38.3685 21.8047 40.7397C21.8047 40.7397 23.9112 42.8145 25.919 41.2008C26.6541 40.608 27.455 40.2018 28.3327 39.9932C30.5489 39.4553 32.4579 39.7847 33.8074 41.7277" stroke="white" stroke-width="2.1302" stroke-miterlimit="10" stroke-linecap="round" stroke-linejoin="round"/>
<path id="Vector_9" d="M46.984 54.8565H2.84622V5.6001H68.1916V54.8565H54.2799" stroke="white" stroke-width="2.1302" stroke-miterlimit="10" stroke-linecap="round" stroke-linejoin="round"/>
</g>
</g>
</svg>
