<svg width="38" height="22" viewBox="0 0 38 22" fill="none" xmlns="http://www.w3.org/2000/svg">
<path d="M4.04109 17.7478L4.04111 17.7478L4.6544 14.1951C4.46617 13.9271 4.36425 13.6087 4.36303 13.2817M4.04109 17.7478L4.49428 13.2812M4.04109 17.7478L4.04072 17.7502C4.02599 17.846 4.03226 17.9437 4.05906 18.0369C4.08586 18.1301 4.13254 18.2164 4.19585 18.2901C4.25915 18.3638 4.33758 18.4232 4.42585 18.4645C4.51411 18.5058 4.61024 18.528 4.70777 18.5298L4.70777 18.5298H4.71017H7.25095V18.5299L7.25557 18.5297C7.35012 18.5264 7.44308 18.5043 7.52888 18.4647C7.61468 18.4252 7.6916 18.3688 7.75496 18.2991L7.75497 18.2991L7.75659 18.2973C7.81959 18.2253 7.86622 18.1406 7.89311 18.049C7.91992 17.9576 7.92646 17.8615 7.91224 17.7674C7.9122 17.7672 7.91216 17.7669 7.91213 17.7667L7.3875 14.0522C7.52534 13.8183 7.59821 13.5523 7.5981 13.2811L7.59809 13.2804C7.59645 13.0071 7.52408 12.7389 7.388 12.5009C7.26428 12.2846 7.09166 12.0998 6.88403 11.9605V10.2811L9.94281 11.5965V19.6716L4.04109 17.7478ZM4.36303 13.2817L4.49428 13.2812M4.36303 13.2817C4.36303 13.2817 4.36303 13.2818 4.36303 13.2819L4.49428 13.2812M4.36303 13.2817C4.36122 12.9169 4.48741 12.5628 4.71986 12.2793C4.9296 12.0234 5.21425 11.839 5.53343 11.75M4.49428 13.2812C4.49259 12.9471 4.60811 12.6226 4.82136 12.3625C5.03462 12.1023 5.33259 11.9223 5.66506 11.8529M5.53343 11.75L5.53381 11.8534L5.66506 11.8529M5.53343 11.75L5.52582 9.69529M5.53343 11.75C5.56798 11.7403 5.60293 11.7318 5.63823 11.7244L5.66506 11.8529M5.66506 11.8529L5.52582 9.69529M5.52582 9.69529L0.899052 7.72213C0.898746 7.722 0.89844 7.72188 0.898134 7.72175C0.755675 7.66316 0.637677 7.55774 0.564592 7.42283C0.491308 7.28755 0.467946 7.13129 0.498574 6.98076C0.529203 6.83022 0.61185 6.69523 0.73189 6.5985C0.850719 6.50275 0.998971 6.45023 1.1519 6.44922C1.25467 6.44206 1.50085 6.38354 1.88252 6.27287C2.26191 6.16286 2.76046 6.00591 3.35291 5.81149C4.53759 5.42273 6.0939 4.88546 7.81545 4.27753C11.2584 3.06174 15.3594 1.56433 18.4644 0.409634L18.5101 0.532652L18.4635 0.409966C18.6102 0.354211 18.7725 0.353874 18.9194 0.408954L37.0678 6.46412L37.0709 6.46516L37.0709 6.4652C37.1994 6.51169 37.3108 6.59595 37.3896 6.70702C37.4684 6.81811 37.5108 6.95056 37.5108 7.08649C37.5108 7.22241 37.4684 7.35486 37.3896 7.46595C37.3115 7.57597 37.2015 7.65969 37.0745 7.70644L29.1864 11.0664L29.1864 19.6712C29.1864 19.6713 29.1864 19.6715 29.1864 19.6716V19.6718H29.0552C29.0563 19.9115 29.0092 20.149 28.9166 20.3708C28.8241 20.5926 28.6879 20.7942 28.5158 20.964C28.3438 21.1339 28.1392 21.2687 27.9141 21.3607C27.6889 21.4527 27.4474 21.5 27.2036 21.5H11.9257C11.6818 21.5 11.4403 21.4527 11.2151 21.3607C10.99 21.2687 10.7855 21.1339 10.6134 20.964C10.4414 20.7942 10.3052 20.5926 10.2126 20.3708C10.1201 20.149 10.073 19.9115 10.0741 19.6718L5.52582 9.69529ZM6.50245 17.1837L5.50538 17.1962L6.03522 14.0868L6.03525 14.0866C6.05477 13.9712 6.04289 13.8528 6.00097 13.7435C5.9592 13.6347 5.88916 13.5387 5.79804 13.4653C5.7685 13.4406 5.74497 13.41 5.72898 13.3757C5.71283 13.3412 5.70465 13.3037 5.70494 13.2659V13.2649C5.70494 13.1922 5.73431 13.122 5.78733 13.0699C5.84041 13.0177 5.91284 12.988 5.98885 12.988C6.06488 12.988 6.13735 13.0178 6.19043 13.0699C6.24341 13.122 6.27276 13.1922 6.27275 13.2649L6.27277 13.2667C6.27362 13.3293 6.25051 13.3903 6.2074 13.4376L6.20739 13.4376L6.20595 13.4392C6.14357 13.5099 6.09729 13.5931 6.07033 13.6832C6.04339 13.7733 6.03644 13.868 6.04994 13.9609C6.04995 13.961 6.04997 13.9611 6.04998 13.9612L6.50245 17.1837ZM11.3179 19.6718V12.1662L18.749 15.3525L18.7631 15.3585L18.7783 15.3612C18.8575 15.3749 18.9384 15.376 19.0178 15.3645C19.0957 15.3744 19.1746 15.3734 19.2522 15.3616L19.2688 15.3591L19.2842 15.3525L27.8777 11.6684V19.6718C27.8777 19.8386 27.8108 19.9991 27.6908 20.1183C27.5709 20.2375 27.4076 20.3058 27.2361 20.3077H11.9595C11.7881 20.3058 11.6248 20.2375 11.5048 20.1183C11.3848 19.9991 11.3179 19.8386 11.3179 19.6718ZM17.5453 7.71345C17.5069 7.67914 17.488 7.65235 17.4789 7.63427V7.60883C17.4789 7.60061 17.4867 7.56348 17.5527 7.50378C17.615 7.44743 17.7135 7.38586 17.849 7.32887C18.1189 7.21531 18.5163 7.12796 19.0083 7.12796C19.5003 7.12796 19.8977 7.21531 20.1676 7.32887C20.303 7.38586 20.4016 7.44743 20.4638 7.50378C20.5298 7.56348 20.5377 7.60061 20.5377 7.60883C20.5377 7.61705 20.5298 7.65419 20.4638 7.71388C20.4016 7.77024 20.303 7.83181 20.1676 7.8888C19.8977 8.00236 19.5003 8.08971 19.0083 8.08971C18.5163 8.08971 18.1167 8.00236 17.8445 7.88867C17.708 7.83161 17.6083 7.76994 17.5453 7.71345ZM18.7282 1.74102L34.9637 7.19092L19 14.0036L8.70049 9.6114L17.3149 8.49523C17.8335 8.76568 18.4148 8.89925 19.0019 8.88271C19.6432 8.88247 20.2146 8.7574 20.6308 8.54151C21.0437 8.32734 21.3316 8.00646 21.3316 7.60883C21.3316 7.21121 21.0437 6.89032 20.6308 6.67616C20.2142 6.46005 19.6421 6.33495 19 6.33495C18.4424 6.33495 17.939 6.42893 17.5443 6.5929C17.1847 6.74233 16.8994 6.95699 16.7606 7.22683L6.29815 8.58405L3.20502 7.26119C7.28437 5.98047 16.1692 2.69029 18.7282 1.74102Z" fill="#01426F" stroke="#01426F" stroke-width="0.2625"/>
</svg>
