<svg width="30" height="30" viewBox="0 0 30 30" fill="none" xmlns="http://www.w3.org/2000/svg">
<g id="youtube-line">
<path id="Vector" d="M23.8905 8.60761C23.7976 8.24466 23.535 7.97082 23.2343 7.88634C22.7 7.73737 20.106 7.39544 14.6229 7.39544C9.13972 7.39544 6.54624 7.73751 6.00979 7.88677C5.71188 7.96963 5.44935 8.24342 5.35528 8.60761C5.22271 9.12474 4.87506 11.2896 4.87506 14.7063C4.87506 18.1229 5.22271 20.2879 5.35565 20.8065C5.44808 21.168 5.71066 21.4418 6.0101 21.5258C6.54624 21.6751 9.13972 22.0171 14.6229 22.0171C20.106 22.0171 22.7 21.6752 23.2359 21.5258C23.5338 21.443 23.7964 21.1692 23.8905 20.805C24.023 20.2879 24.3707 18.118 24.3707 14.7063C24.3707 11.2946 24.023 9.12474 23.8905 8.60761ZM26.251 8.00246C26.8076 10.1736 26.8076 14.7063 26.8076 14.7063C26.8076 14.7063 26.8076 19.239 26.251 21.4101C25.9409 22.6109 25.036 23.5546 23.8889 23.8736C21.8071 24.4541 14.6229 24.4541 14.6229 24.4541C14.6229 24.4541 7.44286 24.4541 5.35683 23.8736C4.20548 23.5502 3.30056 22.6064 2.99466 21.4101C2.43811 19.239 2.43811 14.7063 2.43811 14.7063C2.43811 14.7063 2.43811 10.1736 2.99466 8.00246C3.3048 6.80172 4.20973 5.85795 5.35683 5.53893C7.44286 4.9585 14.6229 4.9585 14.6229 4.9585C14.6229 4.9585 21.8071 4.9585 23.8889 5.53893C25.0402 5.86238 25.9452 6.80614 26.251 8.00246ZM12.1859 18.9709V10.4416L19.4968 14.7063L12.1859 18.9709Z" fill="white"/>
</g>
</svg>
