<svg width="30" height="30" viewBox="0 0 30 30" fill="none" xmlns="http://www.w3.org/2000/svg">
<g clip-path="url(#clip0_518_1513)">
<circle cx="15" cy="15" r="15" fill="#0868A2"/>
<path d="M15 17C14.6016 17 14.2031 16.8828 13.875 16.625L9 12.8281V18.125C9 18.7578 9.49219 19.25 10.125 19.25H19.875C20.4844 19.25 21 18.7578 21 18.125V12.8281L16.1016 16.625C15.7734 16.8828 15.375 17 15 17ZM9.375 12.1719L14.3438 16.0391C14.7188 16.3203 15.2578 16.3203 15.6328 16.0391L20.6016 12.1719C20.8359 11.9844 21 11.6797 21 11.375C21 10.7656 20.4844 10.25 19.875 10.25H10.125C9.49219 10.25 9 10.7656 9 11.375C9 11.6797 9.14062 11.9844 9.375 12.1719Z" fill="white"/>
</g>
<defs>
<clipPath id="clip0_518_1513">
<rect width="30" height="30" fill="white"/>
</clipPath>
</defs>
</svg>
