<svg width="31" height="31" viewBox="0 0 31 31" fill="none" xmlns="http://www.w3.org/2000/svg">
<circle cx="15.5" cy="15.7383" r="15" fill="#0868A2"/>
<path d="M15.5 12.1445C17.4688 12.1445 19.0938 13.7695 19.0938 15.7383C19.0938 17.7383 17.4688 19.332 15.5 19.332C13.5 19.332 11.9062 17.7383 11.9062 15.7383C11.9062 13.7695 13.5 12.1445 15.5 12.1445ZM15.5 18.082C16.7812 18.082 17.8125 17.0508 17.8125 15.7383C17.8125 14.457 16.7812 13.4258 15.5 13.4258C14.1875 13.4258 13.1562 14.457 13.1562 15.7383C13.1562 17.0508 14.2188 18.082 15.5 18.082ZM20.0625 12.0195C20.0625 11.5508 19.6875 11.1758 19.2188 11.1758C18.75 11.1758 18.375 11.5508 18.375 12.0195C18.375 12.4883 18.75 12.8633 19.2188 12.8633C19.6875 12.8633 20.0625 12.4883 20.0625 12.0195ZM22.4375 12.8633C22.5 14.0195 22.5 17.4883 22.4375 18.6445C22.375 19.7695 22.125 20.7383 21.3125 21.582C20.5 22.3945 19.5 22.6445 18.375 22.707C17.2188 22.7695 13.75 22.7695 12.5938 22.707C11.4688 22.6445 10.5 22.3945 9.65625 21.582C8.84375 20.7383 8.59375 19.7695 8.53125 18.6445C8.46875 17.4883 8.46875 14.0195 8.53125 12.8633C8.59375 11.7383 8.84375 10.7383 9.65625 9.92578C10.5 9.11328 11.4688 8.86328 12.5938 8.80078C13.75 8.73828 17.2188 8.73828 18.375 8.80078C19.5 8.86328 20.5 9.11328 21.3125 9.92578C22.125 10.7383 22.375 11.7383 22.4375 12.8633ZM20.9375 19.8633C21.3125 18.957 21.2188 16.7695 21.2188 15.7383C21.2188 14.7383 21.3125 12.5508 20.9375 11.6133C20.6875 11.0195 20.2188 10.5195 19.625 10.3008C18.6875 9.92578 16.5 10.0195 15.5 10.0195C14.4688 10.0195 12.2812 9.92578 11.375 10.3008C10.75 10.5508 10.2812 11.0195 10.0312 11.6133C9.65625 12.5508 9.75 14.7383 9.75 15.7383C9.75 16.7695 9.65625 18.957 10.0312 19.8633C10.2812 20.4883 10.75 20.957 11.375 21.207C12.2812 21.582 14.4688 21.4883 15.5 21.4883C16.5 21.4883 18.6875 21.582 19.625 21.207C20.2188 20.957 20.7188 20.4883 20.9375 19.8633Z" fill="white"/>
</svg>
