<svg width="158" height="44" viewBox="0 0 158 44" fill="none" xmlns="http://www.w3.org/2000/svg">
<path d="M0.792799 43.2793V0.911431H8.46784V36.8455H27.1279V43.2793H0.792799ZM69.6091 22.0954C69.6091 26.6604 68.754 30.5703 67.0438 33.8251C65.3475 37.0662 63.0305 39.5487 60.0928 41.2726C57.169 42.9966 53.8521 43.8585 50.1422 43.8585C46.4322 43.8585 43.1085 42.9966 40.1708 41.2726C37.247 39.5349 34.93 37.0455 33.2199 33.8045C31.5235 30.5496 30.6753 26.6466 30.6753 22.0954C30.6753 17.5303 31.5235 13.6273 33.2199 10.3863C34.93 7.13145 37.247 4.64207 40.1708 2.91811C43.1085 1.19416 46.4322 0.332183 50.1422 0.332183C53.8521 0.332183 57.169 1.19416 60.0928 2.91811C63.0305 4.64207 65.3475 7.13145 67.0438 10.3863C68.754 13.6273 69.6091 17.5303 69.6091 22.0954ZM61.8927 22.0954C61.8927 18.8819 61.3893 16.1719 60.3825 13.9652C59.3895 11.7448 58.0103 10.0691 56.245 8.93816C54.4797 7.79345 52.4454 7.2211 50.1422 7.2211C47.839 7.2211 45.8047 7.79345 44.0394 8.93816C42.2741 10.0691 40.888 11.7448 39.8812 13.9652C38.8882 16.1719 38.3917 18.8819 38.3917 22.0954C38.3917 25.3088 38.8882 28.0258 39.8812 30.2462C40.888 32.4529 42.2741 34.1286 44.0394 35.2733C45.8047 36.4042 47.839 36.9696 50.1422 36.9696C52.4454 36.9696 54.4797 36.4042 56.245 35.2733C58.0103 34.1286 59.3895 32.4529 60.3825 30.2462C61.3893 28.0258 61.8927 25.3088 61.8927 22.0954ZM104.86 14.441C104.515 13.3239 104.039 12.324 103.433 11.4413C102.839 10.5449 102.122 9.77944 101.281 9.14503C100.454 8.51062 99.5019 8.0348 98.4262 7.7176C97.3504 7.3866 96.1781 7.2211 94.9093 7.2211C92.6337 7.2211 90.6063 7.79345 88.8272 8.93816C87.0481 10.0829 85.6482 11.7654 84.6277 13.9859C83.6209 16.1925 83.1175 18.8819 83.1175 22.054C83.1175 25.2536 83.6209 27.9637 84.6277 30.1842C85.6345 32.4046 87.0343 34.0941 88.8272 35.2526C90.6201 36.3973 92.7027 36.9696 95.0748 36.9696C97.2263 36.9696 99.0882 36.5559 100.66 35.7284C102.246 34.9009 103.467 33.7286 104.322 32.2115C105.177 30.6806 105.605 28.8877 105.605 26.8328L107.342 27.1017H95.8403V21.1024H113.032V26.1915C113.032 29.8187 112.259 32.9563 110.715 35.6043C109.17 38.2523 107.046 40.2934 104.343 41.7277C101.64 43.1483 98.5365 43.8585 95.0334 43.8585C91.1304 43.8585 87.7032 42.9828 84.7518 41.2312C81.8142 39.4659 79.5179 36.9627 77.8629 33.7217C76.2217 30.4669 75.4011 26.6052 75.4011 22.1367C75.4011 18.7164 75.8838 15.6616 76.8492 12.9722C77.8284 10.2828 79.1938 8.00033 80.9453 6.12466C82.6968 4.23521 84.7518 2.80088 87.1102 1.82168C89.4685 0.828681 92.0338 0.332183 94.8059 0.332183C97.1505 0.332183 99.3364 0.676973 101.364 1.36655C103.391 2.04234 105.191 3.00776 106.763 4.2628C108.349 5.51783 109.653 7.00733 110.673 8.73128C111.694 10.4552 112.363 12.3585 112.68 14.441H104.86ZM157.923 22.0954C157.923 26.6604 157.068 30.5703 155.358 33.8251C153.661 37.0662 151.344 39.5487 148.407 41.2726C145.483 42.9966 142.166 43.8585 138.456 43.8585C134.746 43.8585 131.422 42.9966 128.485 41.2726C125.561 39.5349 123.244 37.0455 121.534 33.8045C119.837 30.5496 118.989 26.6466 118.989 22.0954C118.989 17.5303 119.837 13.6273 121.534 10.3863C123.244 7.13145 125.561 4.64207 128.485 2.91811C131.422 1.19416 134.746 0.332183 138.456 0.332183C142.166 0.332183 145.483 1.19416 148.407 2.91811C151.344 4.64207 153.661 7.13145 155.358 10.3863C157.068 13.6273 157.923 17.5303 157.923 22.0954ZM150.206 22.0954C150.206 18.8819 149.703 16.1719 148.696 13.9652C147.703 11.7448 146.324 10.0691 144.559 8.93816C142.793 7.79345 140.759 7.2211 138.456 7.2211C136.153 7.2211 134.118 7.79345 132.353 8.93816C130.588 10.0691 129.202 11.7448 128.195 13.9652C127.202 16.1719 126.705 18.8819 126.705 22.0954C126.705 25.3088 127.202 28.0258 128.195 30.2462C129.202 32.4529 130.588 34.1286 132.353 35.2733C134.118 36.4042 136.153 36.9696 138.456 36.9696C140.759 36.9696 142.793 36.4042 144.559 35.2733C146.324 34.1286 147.703 32.4529 148.696 30.2462C149.703 28.0258 150.206 25.3088 150.206 22.0954Z" fill="white"/>
</svg>
