<svg width="90" height="89" viewBox="0 0 90 89" fill="none" xmlns="http://www.w3.org/2000/svg">
<g id="university-02">
<g id="Group">
<g id="Group_2">
<path id="Vector" d="M76.3278 21.9728L40.7982 36.589L5.26855 21.9728L40.7982 7.35669L76.3278 21.9728Z" stroke="#01426F" stroke-width="2.68841" stroke-miterlimit="10" stroke-linecap="round" stroke-linejoin="round"/>
<path id="Vector_2" d="M17.2314 47.0213V26.905" stroke="#01426F" stroke-width="2.68841" stroke-miterlimit="10" stroke-linecap="round" stroke-linejoin="round"/>
<path id="Vector_3" d="M64.3643 47.0213V26.905" stroke="#01426F" stroke-width="2.68841" stroke-miterlimit="10" stroke-linecap="round" stroke-linejoin="round"/>
<path id="Vector_4" d="M76.3281 21.9729V36.9631" stroke="#01426F" stroke-width="2.68841" stroke-miterlimit="10" stroke-linecap="round" stroke-linejoin="round"/>
<path id="Vector_5" d="M74.1537 38.6257L76.3276 36.5891L78.5153 38.6257L79.4015 46.4948H73.2676L74.1537 38.6257Z" stroke="#01426F" stroke-width="2.68841" stroke-miterlimit="10" stroke-linecap="round" stroke-linejoin="round"/>
<path id="Vector_6" d="M40.7979 50.4571C53.8132 50.4571 64.3643 48.9188 64.3643 47.0213C64.3643 45.1237 53.8132 43.5854 40.7979 43.5854C27.7825 43.5854 17.2314 45.1237 17.2314 47.0213C17.2314 48.9188 27.7825 50.4571 40.7979 50.4571Z" stroke="#01426F" stroke-width="2.68841" stroke-miterlimit="10" stroke-linecap="round" stroke-linejoin="round"/>
</g>
<g id="Group_3">
<path id="Vector_7" d="M4.38281 81.2965C4.38281 81.2965 42.9171 81.4073 51.848 80.9917C60.765 80.576 67.3558 73.9815 67.3558 73.9815L84.6498 57.5089C86.7545 55.2229 84.7191 47.5477 79.6236 51.9395L68.5189 60.2797C64.7389 63.1198 60.128 64.6576 55.3926 64.6576H42.3632" stroke="#01426F" stroke-width="2.68841" stroke-miterlimit="10" stroke-linecap="round" stroke-linejoin="round"/>
<path id="Vector_8" d="M4.38281 63.0366L20.9707 63.1613C30.5523 63.2583 30.3446 56.1511 39.497 56.6775H48.8848C55.4341 56.7052 56.6942 64.6437 54.091 64.6437" stroke="#01426F" stroke-width="2.68841" stroke-miterlimit="10" stroke-linecap="round" stroke-linejoin="round"/>
</g>
</g>
</g>
</svg>
