<svg width="90" height="89" viewBox="0 0 90 89" fill="none" xmlns="http://www.w3.org/2000/svg">
<g id="university-09">
<g id="Group">
<path id="Vector" d="M63.7663 37.24H84.0512V79.994H68.5156H62.5479" stroke="#01426F" stroke-width="2.68841" stroke-miterlimit="10" stroke-linecap="round" stroke-linejoin="round"/>
<path id="Vector_2" d="M26.5475 37.24H6.2627V79.994H21.7982H27.766" stroke="#01426F" stroke-width="2.68841" stroke-miterlimit="10" stroke-linecap="round" stroke-linejoin="round"/>
<path id="Vector_3" d="M19.173 49.0879L23.0361 49.0879L23.0361 44.7377L19.173 44.7377L19.173 49.0879Z" stroke="#01426F" stroke-width="2.68841" stroke-miterlimit="10" stroke-linecap="round" stroke-linejoin="round"/>
<path id="Vector_4" d="M19.173 57.6914L23.0361 57.6914L23.0361 53.3412L19.173 53.3412L19.173 57.6914Z" stroke="#01426F" stroke-width="2.68841" stroke-miterlimit="10" stroke-linecap="round" stroke-linejoin="round"/>
<path id="Vector_5" d="M10.9816 49.0879L14.8447 49.0879L14.8447 44.7377L10.9816 44.7377L10.9816 49.0879Z" stroke="#01426F" stroke-width="2.68841" stroke-miterlimit="10" stroke-linecap="round" stroke-linejoin="round"/>
<path id="Vector_6" d="M10.9816 57.6914L14.8447 57.6914L14.8447 53.3412L10.9816 53.3412L10.9816 57.6914Z" stroke="#01426F" stroke-width="2.68841" stroke-miterlimit="10" stroke-linecap="round" stroke-linejoin="round"/>
<path id="Vector_7" d="M19.173 67.2915L23.0361 67.2915L23.0361 62.9413L19.173 62.9413L19.173 67.2915Z" stroke="#01426F" stroke-width="2.68841" stroke-miterlimit="10" stroke-linecap="round" stroke-linejoin="round"/>
<path id="Vector_8" d="M10.9816 67.2915L14.8447 67.2915L14.8447 62.9413L10.9816 62.9413L10.9816 67.2915Z" stroke="#01426F" stroke-width="2.68841" stroke-miterlimit="10" stroke-linecap="round" stroke-linejoin="round"/>
<path id="Vector_9" d="M75.4709 49.0879L79.334 49.0879L79.334 44.7377L75.4709 44.7377L75.4709 49.0879Z" stroke="#01426F" stroke-width="2.68841" stroke-miterlimit="10" stroke-linecap="round" stroke-linejoin="round"/>
<path id="Vector_10" d="M75.4709 57.6914L79.334 57.6914L79.334 53.3412L75.4709 53.3412L75.4709 57.6914Z" stroke="#01426F" stroke-width="2.68841" stroke-miterlimit="10" stroke-linecap="round" stroke-linejoin="round"/>
<path id="Vector_11" d="M67.2804 49.0879L71.1436 49.0879L71.1436 44.7377L67.2804 44.7377L67.2804 49.0879Z" stroke="#01426F" stroke-width="2.68841" stroke-miterlimit="10" stroke-linecap="round" stroke-linejoin="round"/>
<path id="Vector_12" d="M67.2804 57.6914L71.1436 57.6914L71.1436 53.3412L67.2804 53.3412L67.2804 57.6914Z" stroke="#01426F" stroke-width="2.68841" stroke-miterlimit="10" stroke-linecap="round" stroke-linejoin="round"/>
<path id="Vector_13" d="M75.4709 67.2915L79.334 67.2915L79.334 62.9413L75.4709 62.9413L75.4709 67.2915Z" stroke="#01426F" stroke-width="2.68841" stroke-miterlimit="10" stroke-linecap="round" stroke-linejoin="round"/>
<path id="Vector_14" d="M67.2804 67.2915L71.1436 67.2915L71.1436 62.9413L67.2804 62.9413L67.2804 67.2915Z" stroke="#01426F" stroke-width="2.68841" stroke-miterlimit="10" stroke-linecap="round" stroke-linejoin="round"/>
<path id="Vector_15" d="M64.5139 40.26H25.8135L27.9458 31.5181H62.3677L64.5139 40.26Z" stroke="#01426F" stroke-width="2.68841" stroke-miterlimit="10" stroke-linecap="round" stroke-linejoin="round"/>
<path id="Vector_16" d="M63.7662 37.24H63.7801H84.0511H86.3634L81.8218 22.3052H8.49178L3.9502 37.24H26.5474" stroke="#01426F" stroke-width="2.68841" stroke-miterlimit="10" stroke-linecap="round" stroke-linejoin="round"/>
<path id="Vector_17" d="M54.2536 60.2794H36.0596L36.4057 56.0261H53.9075L54.2536 60.2794Z" stroke="#01426F" stroke-width="2.68841" stroke-miterlimit="10" stroke-linecap="round" stroke-linejoin="round"/>
<path id="Vector_18" d="M62.5614 40.26H27.7656V79.9799H62.5614V40.26Z" stroke="#01426F" stroke-width="2.68841" stroke-miterlimit="10" stroke-linecap="round" stroke-linejoin="round"/>
<path id="Vector_19" d="M52.163 60.2793H38.1367V79.9938H52.163V60.2793Z" stroke="#01426F" stroke-width="2.68841" stroke-miterlimit="10" stroke-linecap="round" stroke-linejoin="round"/>
<path id="Vector_20" d="M45.1572 22.3051V8.67261" stroke="#01426F" stroke-width="2.68841" stroke-miterlimit="10" stroke-linecap="round" stroke-linejoin="round"/>
<path id="Vector_21" d="M54.2542 16.9852H45.1572V9.57324H54.2542L52.565 13.2723L54.2542 16.9852Z" stroke="#01426F" stroke-width="2.68841" stroke-miterlimit="10" stroke-linecap="round" stroke-linejoin="round"/>
<path id="Vector_22" d="M27.7656 47.6721H62.5475" stroke="#01426F" stroke-width="2.68841" stroke-miterlimit="10" stroke-linecap="round" stroke-linejoin="round"/>
<path id="Vector_23" d="M86.9174 79.9939H3.39648" stroke="#01426F" stroke-width="2.68841" stroke-miterlimit="10" stroke-linecap="round" stroke-linejoin="round"/>
</g>
</g>
</svg>
