<svg width="89" height="89" viewBox="0 0 89 89" fill="none" xmlns="http://www.w3.org/2000/svg">
<g id="university-05">
<g id="Group">
<path id="Vector" d="M44.5407 85.1062C67.0461 85.1062 85.2904 66.8516 85.2904 44.3334C85.2904 21.8152 67.0461 3.56055 44.5407 3.56055C22.0353 3.56055 3.79102 21.8152 3.79102 44.3334C3.79102 66.8516 22.0353 85.1062 44.5407 85.1062Z" stroke="#01426F" stroke-width="2.68841" stroke-miterlimit="10" stroke-linecap="round" stroke-linejoin="round"/>
<path id="Vector_2" d="M44.5407 78.3593C63.322 78.3593 78.5472 63.1254 78.5472 44.3335C78.5472 25.5415 63.322 10.3076 44.5407 10.3076C25.7594 10.3076 10.5342 25.5415 10.5342 44.3335C10.5342 63.1254 25.7594 78.3593 44.5407 78.3593Z" stroke="#01426F" stroke-width="2.68841" stroke-miterlimit="10" stroke-linecap="round" stroke-linejoin="round"/>
<path id="Vector_3" d="M44.5408 45.6356C45.2596 45.6356 45.8424 45.0525 45.8424 44.3333C45.8424 43.6141 45.2596 43.031 44.5408 43.031C43.822 43.031 43.2393 43.6141 43.2393 44.3333C43.2393 45.0525 43.822 45.6356 44.5408 45.6356Z" stroke="#01426F" stroke-width="2.68841" stroke-miterlimit="10" stroke-linecap="round" stroke-linejoin="round"/>
<path id="Vector_4" d="M44.541 20.2686V44.3332L57.4458 51.3157" stroke="#01426F" stroke-width="2.68841" stroke-miterlimit="10" stroke-linecap="round" stroke-linejoin="round"/>
<path id="Vector_5" d="M44.541 10.3076V15.4614" stroke="#01426F" stroke-width="2.68841" stroke-miterlimit="10" stroke-linecap="round" stroke-linejoin="round"/>
<path id="Vector_6" d="M44.541 73.2056V78.3593" stroke="#01426F" stroke-width="2.68841" stroke-miterlimit="10" stroke-linecap="round" stroke-linejoin="round"/>
<path id="Vector_7" d="M68.5919 68.398L64.9365 64.7405" stroke="#01426F" stroke-width="2.68841" stroke-miterlimit="10" stroke-linecap="round" stroke-linejoin="round"/>
<path id="Vector_8" d="M24.1447 23.9261L20.4893 20.2686" stroke="#01426F" stroke-width="2.68841" stroke-miterlimit="10" stroke-linecap="round" stroke-linejoin="round"/>
<path id="Vector_9" d="M20.4893 68.398L24.1447 64.7405" stroke="#01426F" stroke-width="2.68841" stroke-miterlimit="10" stroke-linecap="round" stroke-linejoin="round"/>
<path id="Vector_10" d="M64.9365 23.9261L68.5919 20.2686" stroke="#01426F" stroke-width="2.68841" stroke-miterlimit="10" stroke-linecap="round" stroke-linejoin="round"/>
<path id="Vector_11" d="M78.5473 44.3333H73.3965" stroke="#01426F" stroke-width="2.68841" stroke-miterlimit="10" stroke-linecap="round" stroke-linejoin="round"/>
<path id="Vector_12" d="M15.685 44.3333H10.5342" stroke="#01426F" stroke-width="2.68841" stroke-miterlimit="10" stroke-linecap="round" stroke-linejoin="round"/>
</g>
</g>
</svg>
