<svg width="89" height="89" viewBox="0 0 89 89" fill="none" xmlns="http://www.w3.org/2000/svg">
<g id="university-01">
<g id="Group">
<path id="Vector" d="M63.8868 21.8618V77.2508H24.7295V21.8618L44.3082 5.4585L63.8868 21.8618Z" stroke="#01426F" stroke-width="2.68841" stroke-miterlimit="10" stroke-linecap="round" stroke-linejoin="round"/>
<g id="Group_2">
<path id="Vector_2" d="M35.7932 34.4275H29.8809V40.3432H35.7932V34.4275Z" stroke="#01426F" stroke-width="2.68841" stroke-miterlimit="10" stroke-linecap="round" stroke-linejoin="round"/>
<path id="Vector_3" d="M35.7932 46.1482H29.8809V52.0639H35.7932V46.1482Z" stroke="#01426F" stroke-width="2.68841" stroke-miterlimit="10" stroke-linecap="round" stroke-linejoin="round"/>
<path id="Vector_4" d="M47.2581 34.4275H41.3457V40.3432H47.2581V34.4275Z" stroke="#01426F" stroke-width="2.68841" stroke-miterlimit="10" stroke-linecap="round" stroke-linejoin="round"/>
<path id="Vector_5" d="M47.2581 46.1482H41.3457V52.0639H47.2581V46.1482Z" stroke="#01426F" stroke-width="2.68841" stroke-miterlimit="10" stroke-linecap="round" stroke-linejoin="round"/>
<path id="Vector_6" d="M58.7366 34.4275H52.8242V40.3432H58.7366V34.4275Z" stroke="#01426F" stroke-width="2.68841" stroke-miterlimit="10" stroke-linecap="round" stroke-linejoin="round"/>
<path id="Vector_7" d="M58.7366 46.1482H52.8242V52.0639H58.7366V46.1482Z" stroke="#01426F" stroke-width="2.68841" stroke-miterlimit="10" stroke-linecap="round" stroke-linejoin="round"/>
</g>
<path id="Vector_8" d="M24.7297 77.2508V28.9829H4.16797V83.2081H19.0251H24.7297" stroke="#01426F" stroke-width="2.68841" stroke-miterlimit="10" stroke-linecap="round" stroke-linejoin="round"/>
<path id="Vector_9" d="M17.3909 35.3975H11.4785V41.3132H17.3909V35.3975Z" stroke="#01426F" stroke-width="2.68841" stroke-miterlimit="10" stroke-linecap="round" stroke-linejoin="round"/>
<path id="Vector_10" d="M17.3909 47.1179H11.4785V53.0336H17.3909V47.1179Z" stroke="#01426F" stroke-width="2.68841" stroke-miterlimit="10" stroke-linecap="round" stroke-linejoin="round"/>
<path id="Vector_11" d="M63.8867 77.2508V28.9829H84.4485V83.2081H69.5914H63.8867" stroke="#01426F" stroke-width="2.68841" stroke-miterlimit="10" stroke-linecap="round" stroke-linejoin="round"/>
<path id="Vector_12" d="M77.1243 35.3975H71.2119V41.3132H77.1243V35.3975Z" stroke="#01426F" stroke-width="2.68841" stroke-miterlimit="10" stroke-linecap="round" stroke-linejoin="round"/>
<path id="Vector_13" d="M77.1243 47.1179H71.2119V53.0336H77.1243V47.1179Z" stroke="#01426F" stroke-width="2.68841" stroke-miterlimit="10" stroke-linecap="round" stroke-linejoin="round"/>
<path id="Vector_14" d="M69.5921 83.208H19.0254L19.9808 77.2507H68.6367L69.5921 83.208Z" stroke="#01426F" stroke-width="2.68841" stroke-miterlimit="10" stroke-linecap="round" stroke-linejoin="round"/>
<g id="Group_3">
<path id="Vector_15" d="M51.3424 61.8035H37.2607V77.237H51.3424V61.8035Z" stroke="#01426F" stroke-width="2.68841" stroke-miterlimit="10" stroke-linecap="round" stroke-linejoin="round"/>
<path id="Vector_16" d="M44.3086 61.8035V77.2509" stroke="#01426F" stroke-width="2.68841" stroke-miterlimit="10" stroke-linecap="round" stroke-linejoin="round"/>
<path id="Vector_17" d="M52.8239 61.8035H35.793" stroke="#01426F" stroke-width="2.68841" stroke-miterlimit="10" stroke-linecap="round" stroke-linejoin="round"/>
</g>
<path id="Vector_18" d="M44.3089 27.2787C47.7883 27.2787 50.6089 24.4564 50.6089 20.975C50.6089 17.4936 47.7883 14.6714 44.3089 14.6714C40.8294 14.6714 38.0088 17.4936 38.0088 20.975C38.0088 24.4564 40.8294 27.2787 44.3089 27.2787Z" stroke="#01426F" stroke-width="2.68841" stroke-miterlimit="10" stroke-linecap="round" stroke-linejoin="round"/>
<g id="Group_4">
<path id="Vector_19" d="M19.7723 65.627C19.7723 68.9797 17.0584 71.709 13.6938 71.709C10.3291 71.709 7.61523 68.9936 7.61523 65.627C7.61523 62.2743 10.3291 57.8271 13.6938 57.8271C17.0584 57.8271 19.7723 62.2743 19.7723 65.627Z" stroke="#01426F" stroke-width="2.68841" stroke-miterlimit="10" stroke-linecap="round" stroke-linejoin="round"/>
<path id="Vector_20" d="M13.6934 71.709V83.2079" stroke="#01426F" stroke-width="2.68841" stroke-miterlimit="10" stroke-linecap="round" stroke-linejoin="round"/>
</g>
<g id="Group_5">
<path id="Vector_21" d="M81.0008 65.627C81.0008 68.9797 78.2869 71.709 74.9223 71.709C71.5576 71.709 68.8438 68.9936 68.8438 65.627C68.8438 62.2743 71.5576 57.8271 74.9223 57.8271C78.2869 57.8271 81.0008 62.2743 81.0008 65.627Z" stroke="#01426F" stroke-width="2.68841" stroke-miterlimit="10" stroke-linecap="round" stroke-linejoin="round"/>
<path id="Vector_22" d="M74.9219 71.709V83.2079" stroke="#01426F" stroke-width="2.68841" stroke-miterlimit="10" stroke-linecap="round" stroke-linejoin="round"/>
</g>
</g>
</g>
</svg>
