<svg width="31" height="31" viewBox="0 0 31 31" fill="none" xmlns="http://www.w3.org/2000/svg">
<circle cx="15.5" cy="15.7383" r="15" fill="#0868A2"/>
<path d="M20.375 10.8008C21.6875 12.1133 22.5 13.832 22.5 15.707C22.5 19.5195 19.3125 22.6445 15.4688 22.6445C14.3125 22.6445 13.1875 22.332 12.1562 21.8008L8.5 22.7383L9.46875 19.1445C8.875 18.1133 8.53125 16.9258 8.53125 15.6758C8.53125 11.8633 11.6562 8.73828 15.4688 8.73828C17.3438 8.73828 19.0938 9.48828 20.375 10.8008ZM15.4688 21.457C18.6562 21.457 21.3125 18.8633 21.3125 15.707C21.3125 14.1445 20.6562 12.707 19.5625 11.6133C18.4688 10.5195 17.0312 9.92578 15.5 9.92578C12.3125 9.92578 9.71875 12.5195 9.71875 15.6758C9.71875 16.7695 10.0312 17.832 10.5938 18.7695L10.75 18.9883L10.1562 21.1133L12.3438 20.5195L12.5312 20.6445C13.4375 21.1758 14.4375 21.457 15.4688 21.457ZM18.6562 17.1445C18.8125 17.2383 18.9375 17.2695 18.9688 17.3633C19.0312 17.4258 19.0312 17.7695 18.875 18.1758C18.7188 18.582 18.0312 18.957 17.7188 18.9883C17.1562 19.082 16.7188 19.0508 15.625 18.5508C13.875 17.8008 12.75 16.0508 12.6562 15.957C12.5625 15.832 11.9688 15.0195 11.9688 14.1445C11.9688 13.3008 12.4062 12.8945 12.5625 12.707C12.7188 12.5195 12.9062 12.4883 13.0312 12.4883C13.125 12.4883 13.25 12.4883 13.3438 12.4883C13.4688 12.4883 13.5938 12.457 13.75 12.8008C13.875 13.1445 14.25 13.9883 14.2812 14.082C14.3125 14.1758 14.3438 14.2695 14.2812 14.3945C13.9688 15.0508 13.5938 15.0195 13.7812 15.332C14.4688 16.4883 15.125 16.8945 16.1562 17.3945C16.3125 17.4883 16.4062 17.457 16.5312 17.3633C16.625 17.2383 16.9688 16.832 17.0625 16.6758C17.1875 16.4883 17.3125 16.5195 17.4688 16.582C17.625 16.6445 18.4688 17.0508 18.6562 17.1445Z" fill="white"/>
</svg>
